<mxfile host="Electron" agent="Mozilla/5.0 (Macintosh; Intel Mac OS X 10_15_7) AppleWebKit/537.36 (KHTML, like Gecko) draw.io/27.0.5 Chrome/134.0.6998.205 Electron/35.3.0 Safari/537.36" version="27.0.5" pages="2">
  <diagram id="CtGdQn-uUphGVode4XGb" name="Canvas">
    <mxGraphModel dx="3983" dy="3049" grid="1" gridSize="10" guides="1" tooltips="1" connect="1" arrows="1" fold="1" page="1" pageScale="1" pageWidth="3300" pageHeight="2339" math="0" shadow="0">
      <root>
        <mxCell id="0" />
        <mxCell id="1" value="Background" style="" parent="0" />
        <mxCell id="d8810RLYs8ym3tOuzAX7-32" value="System III" style="text;strokeColor=default;fillColor=none;html=1;align=center;verticalAlign=top;whiteSpace=wrap;rounded=0;sketch=0;hachureGap=4;jiggle=2;fontFamily=Architects Daughter;fontSource=https%3A%2F%2Ffonts.googleapis.com%2Fcss%3Ffamily%3DArchitects%2BDaughter;fontSize=30;fontStyle=5;fontColor=#000000;spacingTop=0;spacingLeft=5;spacingRight=5;spacing=5;" parent="1" vertex="1">
          <mxGeometry x="2283" y="903" width="165" height="50" as="geometry" />
        </mxCell>
        <mxCell id="d8810RLYs8ym3tOuzAX7-1" value="" style="orthogonalLoop=1;jettySize=auto;html=1;rounded=0;sketch=0;hachureGap=4;jiggle=2;fontFamily=Architects Daughter;fontSource=https%3A%2F%2Ffonts.googleapis.com%2Fcss%3Ffamily%3DArchitects%2BDaughter;fontSize=16;endArrow=none;sourcePerimeterSpacing=8;targetPerimeterSpacing=8;strokeWidth=6;shadow=0;elbow=vertical;endFill=0;" parent="1" edge="1">
          <mxGeometry width="120" relative="1" as="geometry">
            <mxPoint x="50" y="50" as="sourcePoint" />
            <mxPoint x="3250" y="50" as="targetPoint" />
          </mxGeometry>
        </mxCell>
        <mxCell id="d8810RLYs8ym3tOuzAX7-2" value="" style="orthogonalLoop=1;jettySize=auto;html=1;rounded=0;sketch=0;hachureGap=4;jiggle=2;fontFamily=Architects Daughter;fontSource=https%3A%2F%2Ffonts.googleapis.com%2Fcss%3Ffamily%3DArchitects%2BDaughter;fontSize=16;endArrow=none;sourcePerimeterSpacing=8;targetPerimeterSpacing=8;strokeWidth=6;shadow=0;elbow=vertical;endFill=0;" parent="1" edge="1">
          <mxGeometry width="120" relative="1" as="geometry">
            <mxPoint x="50" y="2250" as="sourcePoint" />
            <mxPoint x="3250" y="2250" as="targetPoint" />
          </mxGeometry>
        </mxCell>
        <mxCell id="d8810RLYs8ym3tOuzAX7-3" value="" style="orthogonalLoop=1;jettySize=auto;html=1;rounded=0;sketch=0;hachureGap=4;jiggle=2;fontFamily=Architects Daughter;fontSource=https%3A%2F%2Ffonts.googleapis.com%2Fcss%3Ffamily%3DArchitects%2BDaughter;fontSize=16;endArrow=none;sourcePerimeterSpacing=8;targetPerimeterSpacing=8;strokeWidth=6;shadow=0;elbow=vertical;endFill=0;" parent="1" edge="1">
          <mxGeometry width="120" relative="1" as="geometry">
            <mxPoint x="50" y="50" as="sourcePoint" />
            <mxPoint x="50" y="2250" as="targetPoint" />
          </mxGeometry>
        </mxCell>
        <mxCell id="d8810RLYs8ym3tOuzAX7-4" value="" style="orthogonalLoop=1;jettySize=auto;html=1;rounded=0;sketch=0;hachureGap=4;jiggle=2;fontFamily=Architects Daughter;fontSource=https%3A%2F%2Ffonts.googleapis.com%2Fcss%3Ffamily%3DArchitects%2BDaughter;fontSize=16;endArrow=none;sourcePerimeterSpacing=8;targetPerimeterSpacing=8;strokeWidth=6;shadow=0;elbow=vertical;endFill=0;" parent="1" edge="1">
          <mxGeometry width="120" relative="1" as="geometry">
            <mxPoint x="3250" y="50" as="sourcePoint" />
            <mxPoint x="3250" y="2250" as="targetPoint" />
          </mxGeometry>
        </mxCell>
        <mxCell id="d8810RLYs8ym3tOuzAX7-5" value="" style="orthogonalLoop=1;jettySize=auto;html=1;rounded=0;sketch=0;hachureGap=4;jiggle=2;fontFamily=Architects Daughter;fontSource=https%3A%2F%2Ffonts.googleapis.com%2Fcss%3Ffamily%3DArchitects%2BDaughter;fontSize=16;endArrow=none;sourcePerimeterSpacing=8;targetPerimeterSpacing=8;strokeWidth=6;shadow=0;elbow=vertical;endFill=0;" parent="1" edge="1">
          <mxGeometry width="120" relative="1" as="geometry">
            <mxPoint x="50" y="250" as="sourcePoint" />
            <mxPoint x="3250" y="250" as="targetPoint" />
          </mxGeometry>
        </mxCell>
        <mxCell id="d8810RLYs8ym3tOuzAX7-6" value="" style="orthogonalLoop=1;jettySize=auto;html=1;rounded=0;sketch=0;hachureGap=4;jiggle=2;fontFamily=Architects Daughter;fontSource=https%3A%2F%2Ffonts.googleapis.com%2Fcss%3Ffamily%3DArchitects%2BDaughter;fontSize=16;endArrow=none;sourcePerimeterSpacing=8;targetPerimeterSpacing=8;strokeWidth=6;shadow=0;elbow=vertical;endFill=0;" parent="1" edge="1">
          <mxGeometry width="120" relative="1" as="geometry">
            <mxPoint x="1650" y="1200" as="sourcePoint" />
            <mxPoint x="1650" y="2250" as="targetPoint" />
          </mxGeometry>
        </mxCell>
        <mxCell id="d8810RLYs8ym3tOuzAX7-7" value="" style="orthogonalLoop=1;jettySize=auto;html=1;rounded=0;sketch=0;hachureGap=4;jiggle=2;fontFamily=Architects Daughter;fontSource=https%3A%2F%2Ffonts.googleapis.com%2Fcss%3Ffamily%3DArchitects%2BDaughter;fontSize=16;endArrow=none;sourcePerimeterSpacing=8;targetPerimeterSpacing=8;strokeWidth=6;shadow=0;elbow=vertical;endFill=0;" parent="1" edge="1">
          <mxGeometry width="120" relative="1" as="geometry">
            <mxPoint x="2450" y="900" as="sourcePoint" />
            <mxPoint x="2450" y="2250" as="targetPoint" />
          </mxGeometry>
        </mxCell>
        <mxCell id="d8810RLYs8ym3tOuzAX7-8" value="" style="orthogonalLoop=1;jettySize=auto;html=1;rounded=0;sketch=0;hachureGap=4;jiggle=2;fontFamily=Architects Daughter;fontSource=https%3A%2F%2Ffonts.googleapis.com%2Fcss%3Ffamily%3DArchitects%2BDaughter;fontSize=16;endArrow=none;sourcePerimeterSpacing=8;targetPerimeterSpacing=8;strokeWidth=6;shadow=0;elbow=vertical;endFill=0;" parent="1" edge="1">
          <mxGeometry width="120" relative="1" as="geometry">
            <mxPoint x="850" y="900" as="sourcePoint" />
            <mxPoint x="850" y="2250" as="targetPoint" />
          </mxGeometry>
        </mxCell>
        <mxCell id="d8810RLYs8ym3tOuzAX7-9" value="" style="orthogonalLoop=1;jettySize=auto;html=1;rounded=0;sketch=0;hachureGap=4;jiggle=2;fontFamily=Architects Daughter;fontSource=https%3A%2F%2Ffonts.googleapis.com%2Fcss%3Ffamily%3DArchitects%2BDaughter;fontSize=16;endArrow=none;sourcePerimeterSpacing=8;targetPerimeterSpacing=8;strokeWidth=6;shadow=0;elbow=vertical;endFill=0;" parent="1" edge="1">
          <mxGeometry width="120" relative="1" as="geometry">
            <mxPoint x="2450" y="1200" as="sourcePoint" />
            <mxPoint x="850" y="1200" as="targetPoint" />
          </mxGeometry>
        </mxCell>
        <mxCell id="d8810RLYs8ym3tOuzAX7-10" value="" style="orthogonalLoop=1;jettySize=auto;html=1;rounded=0;sketch=0;hachureGap=4;jiggle=2;fontFamily=Architects Daughter;fontSource=https%3A%2F%2Ffonts.googleapis.com%2Fcss%3Ffamily%3DArchitects%2BDaughter;fontSize=16;endArrow=none;sourcePerimeterSpacing=8;targetPerimeterSpacing=8;strokeWidth=6;shadow=0;elbow=vertical;endFill=0;dashed=1;" parent="1" edge="1">
          <mxGeometry width="120" relative="1" as="geometry">
            <mxPoint x="2450" y="900.0000000000005" as="sourcePoint" />
            <mxPoint x="850" y="900.0000000000005" as="targetPoint" />
          </mxGeometry>
        </mxCell>
        <mxCell id="d8810RLYs8ym3tOuzAX7-11" value="" style="orthogonalLoop=1;jettySize=auto;html=1;rounded=0;sketch=0;hachureGap=4;jiggle=2;fontFamily=Architects Daughter;fontSource=https%3A%2F%2Ffonts.googleapis.com%2Fcss%3Ffamily%3DArchitects%2BDaughter;fontSize=16;endArrow=none;sourcePerimeterSpacing=8;targetPerimeterSpacing=8;strokeWidth=6;shadow=0;elbow=vertical;endFill=0;" parent="1" edge="1">
          <mxGeometry width="120" relative="1" as="geometry">
            <mxPoint x="850" y="1000" as="sourcePoint" />
            <mxPoint x="50" y="1000.0000000000005" as="targetPoint" />
          </mxGeometry>
        </mxCell>
        <mxCell id="d8810RLYs8ym3tOuzAX7-12" value="" style="orthogonalLoop=1;jettySize=auto;html=1;rounded=0;sketch=0;hachureGap=4;jiggle=2;fontFamily=Architects Daughter;fontSource=https%3A%2F%2Ffonts.googleapis.com%2Fcss%3Ffamily%3DArchitects%2BDaughter;fontSize=16;endArrow=none;sourcePerimeterSpacing=8;targetPerimeterSpacing=8;strokeWidth=6;shadow=0;elbow=vertical;endFill=0;" parent="1" edge="1">
          <mxGeometry width="120" relative="1" as="geometry">
            <mxPoint x="3250" y="1000" as="sourcePoint" />
            <mxPoint x="2450" y="1000" as="targetPoint" />
          </mxGeometry>
        </mxCell>
        <mxCell id="d8810RLYs8ym3tOuzAX7-13" value="" style="orthogonalLoop=1;jettySize=auto;html=1;rounded=0;sketch=0;hachureGap=4;jiggle=2;fontFamily=Architects Daughter;fontSource=https%3A%2F%2Ffonts.googleapis.com%2Fcss%3Ffamily%3DArchitects%2BDaughter;fontSize=16;endArrow=none;sourcePerimeterSpacing=8;targetPerimeterSpacing=8;strokeWidth=6;shadow=0;elbow=vertical;endFill=0;" parent="1" edge="1">
          <mxGeometry width="120" relative="1" as="geometry">
            <mxPoint x="1100" y="600" as="sourcePoint" />
            <mxPoint x="850" y="900" as="targetPoint" />
          </mxGeometry>
        </mxCell>
        <mxCell id="d8810RLYs8ym3tOuzAX7-14" value="" style="orthogonalLoop=1;jettySize=auto;html=1;rounded=0;sketch=0;hachureGap=4;jiggle=2;fontFamily=Architects Daughter;fontSource=https%3A%2F%2Ffonts.googleapis.com%2Fcss%3Ffamily%3DArchitects%2BDaughter;fontSize=16;endArrow=none;sourcePerimeterSpacing=8;targetPerimeterSpacing=8;strokeWidth=6;shadow=0;elbow=vertical;endFill=0;" parent="1" edge="1">
          <mxGeometry width="120" relative="1" as="geometry">
            <mxPoint x="1100" y="250" as="sourcePoint" />
            <mxPoint x="1100" y="600" as="targetPoint" />
          </mxGeometry>
        </mxCell>
        <mxCell id="d8810RLYs8ym3tOuzAX7-15" value="" style="orthogonalLoop=1;jettySize=auto;html=1;rounded=0;sketch=0;hachureGap=4;jiggle=2;fontFamily=Architects Daughter;fontSource=https%3A%2F%2Ffonts.googleapis.com%2Fcss%3Ffamily%3DArchitects%2BDaughter;fontSize=16;endArrow=none;sourcePerimeterSpacing=8;targetPerimeterSpacing=8;strokeWidth=6;shadow=0;elbow=vertical;endFill=0;" parent="1" edge="1">
          <mxGeometry width="120" relative="1" as="geometry">
            <mxPoint x="2450" y="900" as="sourcePoint" />
            <mxPoint x="2200" y="600" as="targetPoint" />
          </mxGeometry>
        </mxCell>
        <mxCell id="d8810RLYs8ym3tOuzAX7-16" value="" style="orthogonalLoop=1;jettySize=auto;html=1;rounded=0;sketch=0;hachureGap=4;jiggle=2;fontFamily=Architects Daughter;fontSource=https%3A%2F%2Ffonts.googleapis.com%2Fcss%3Ffamily%3DArchitects%2BDaughter;fontSize=16;endArrow=none;sourcePerimeterSpacing=8;targetPerimeterSpacing=8;strokeWidth=6;shadow=0;elbow=vertical;endFill=0;" parent="1" edge="1">
          <mxGeometry width="120" relative="1" as="geometry">
            <mxPoint x="2200" y="249.99999999999977" as="sourcePoint" />
            <mxPoint x="2200" y="599.9999999999998" as="targetPoint" />
          </mxGeometry>
        </mxCell>
        <mxCell id="d8810RLYs8ym3tOuzAX7-17" value="" style="orthogonalLoop=1;jettySize=auto;html=1;rounded=0;sketch=0;hachureGap=4;jiggle=2;fontFamily=Architects Daughter;fontSource=https%3A%2F%2Ffonts.googleapis.com%2Fcss%3Ffamily%3DArchitects%2BDaughter;fontSize=16;endArrow=none;sourcePerimeterSpacing=8;targetPerimeterSpacing=8;strokeWidth=6;shadow=0;elbow=vertical;endFill=0;dashed=1;" parent="1" edge="1">
          <mxGeometry width="120" relative="1" as="geometry">
            <mxPoint x="2200" y="600.0000000000005" as="sourcePoint" />
            <mxPoint x="1100" y="600" as="targetPoint" />
          </mxGeometry>
        </mxCell>
        <mxCell id="d8810RLYs8ym3tOuzAX7-18" value="" style="orthogonalLoop=1;jettySize=auto;html=1;rounded=0;sketch=0;hachureGap=4;jiggle=2;fontFamily=Architects Daughter;fontSource=https%3A%2F%2Ffonts.googleapis.com%2Fcss%3Ffamily%3DArchitects%2BDaughter;fontSize=16;endArrow=none;sourcePerimeterSpacing=8;targetPerimeterSpacing=8;strokeWidth=6;shadow=0;elbow=vertical;endFill=0;" parent="1" edge="1">
          <mxGeometry width="120" relative="1" as="geometry">
            <mxPoint x="1600" y="50" as="sourcePoint" />
            <mxPoint x="1600" y="250" as="targetPoint" />
          </mxGeometry>
        </mxCell>
        <mxCell id="d8810RLYs8ym3tOuzAX7-19" value="" style="orthogonalLoop=1;jettySize=auto;html=1;rounded=0;sketch=0;hachureGap=4;jiggle=2;fontFamily=Architects Daughter;fontSource=https%3A%2F%2Ffonts.googleapis.com%2Fcss%3Ffamily%3DArchitects%2BDaughter;fontSize=16;endArrow=none;sourcePerimeterSpacing=8;targetPerimeterSpacing=8;strokeWidth=6;shadow=0;elbow=vertical;endFill=0;" parent="1" edge="1">
          <mxGeometry width="120" relative="1" as="geometry">
            <mxPoint x="2450.75" y="47" as="sourcePoint" />
            <mxPoint x="2450.75" y="247" as="targetPoint" />
          </mxGeometry>
        </mxCell>
        <mxCell id="d8810RLYs8ym3tOuzAX7-21" value="Organizational Design &amp;amp; Validation Canvas, A. Kempkens´&lt;br style=&quot;font-size: 12px;&quot;&gt;based on VSM by Stadford Beer &amp;amp; inspired by grado.group&lt;br style=&quot;font-size: 12px;&quot;&gt;Creative Commons 4.0, Attribution-NonCommercial-ShareAlike" style="text;strokeColor=none;fillColor=none;html=1;align=right;verticalAlign=top;whiteSpace=wrap;rounded=0;sketch=1;hachureGap=4;jiggle=2;fontFamily=Architects Daughter;fontSource=https%3A%2F%2Ffonts.googleapis.com%2Fcss%3Ffamily%3DArchitects%2BDaughter;fontSize=12;textOpacity=80;spacingTop=2;" parent="1" vertex="1">
          <mxGeometry x="2801" y="2254" width="450" height="54" as="geometry" />
        </mxCell>
        <mxCell id="d8810RLYs8ym3tOuzAX7-22" value="&lt;a href=&quot;https://grado.group/article/the-viable-system-model/&quot; style=&quot;font-size: 10px;&quot;&gt;The Viable System Model - Grado Group Site&lt;/a&gt;" style="text;strokeColor=none;fillColor=none;html=1;align=right;verticalAlign=top;whiteSpace=wrap;rounded=0;sketch=1;hachureGap=4;jiggle=2;fontFamily=Architects Daughter;fontSource=https%3A%2F%2Ffonts.googleapis.com%2Fcss%3Ffamily%3DArchitects%2BDaughter;fontSize=10;textOpacity=80;spacingTop=2;" parent="1" vertex="1">
          <mxGeometry x="2996" y="2306" width="255" height="31" as="geometry" />
        </mxCell>
        <mxCell id="d8810RLYs8ym3tOuzAX7-30" value="System I" style="text;strokeColor=default;fillColor=none;html=1;align=center;verticalAlign=top;whiteSpace=wrap;rounded=0;sketch=0;hachureGap=4;jiggle=2;fontFamily=Architects Daughter;fontSource=https%3A%2F%2Ffonts.googleapis.com%2Fcss%3Ffamily%3DArchitects%2BDaughter;fontSize=30;fontStyle=5;fontColor=#000000;spacingTop=0;spacingLeft=5;spacingRight=5;spacing=5;" parent="1" vertex="1">
          <mxGeometry x="2284" y="1202" width="165" height="50" as="geometry" />
        </mxCell>
        <mxCell id="d8810RLYs8ym3tOuzAX7-31" value="System II" style="text;strokeColor=default;fillColor=none;html=1;align=center;verticalAlign=top;whiteSpace=wrap;rounded=0;sketch=0;hachureGap=4;jiggle=2;fontFamily=Architects Daughter;fontSource=https%3A%2F%2Ffonts.googleapis.com%2Fcss%3Ffamily%3DArchitects%2BDaughter;fontSize=30;fontStyle=5;fontColor=#000000;spacingTop=0;spacingLeft=5;spacingRight=5;spacing=5;" parent="1" vertex="1">
          <mxGeometry x="3083" y="1003" width="165" height="50" as="geometry" />
        </mxCell>
        <mxCell id="d8810RLYs8ym3tOuzAX7-33" value="System IV" style="text;strokeColor=default;fillColor=none;html=1;align=center;verticalAlign=top;whiteSpace=wrap;rounded=0;sketch=0;hachureGap=4;jiggle=2;fontFamily=Architects Daughter;fontSource=https%3A%2F%2Ffonts.googleapis.com%2Fcss%3Ffamily%3DArchitects%2BDaughter;fontSize=30;fontStyle=5;fontColor=#000000;spacingTop=0;spacingLeft=5;spacingRight=5;spacing=5;" parent="1" vertex="1">
          <mxGeometry x="2034" y="603" width="165" height="50" as="geometry" />
        </mxCell>
        <mxCell id="d8810RLYs8ym3tOuzAX7-34" value="System V" style="text;strokeColor=default;fillColor=none;html=1;align=center;verticalAlign=top;whiteSpace=wrap;rounded=0;sketch=0;hachureGap=4;jiggle=2;fontFamily=Architects Daughter;fontSource=https%3A%2F%2Ffonts.googleapis.com%2Fcss%3Ffamily%3DArchitects%2BDaughter;fontSize=30;fontStyle=5;fontColor=#000000;spacingTop=0;spacingLeft=5;spacingRight=5;spacing=5;" parent="1" vertex="1">
          <mxGeometry x="2033" y="253" width="165" height="50" as="geometry" />
        </mxCell>
        <mxCell id="d8810RLYs8ym3tOuzAX7-36" value="System III*" style="text;strokeColor=default;fillColor=none;html=1;align=center;verticalAlign=top;whiteSpace=wrap;rounded=0;sketch=0;hachureGap=4;jiggle=2;fontFamily=Architects Daughter;fontSource=https%3A%2F%2Ffonts.googleapis.com%2Fcss%3Ffamily%3DArchitects%2BDaughter;fontSize=30;fontStyle=5;fontColor=#000000;spacingTop=0;spacingLeft=5;spacingRight=5;spacing=5;" parent="1" vertex="1">
          <mxGeometry x="683" y="1002" width="165" height="50" as="geometry" />
        </mxCell>
        <mxCell id="Gsu-Bd-0J3uquh8QWEgn-1" value="&lt;a href=&quot;https://www.thinknetwork.com/alex-kempkens/&quot;&gt;Alexander Kempkens&lt;/a&gt;&amp;nbsp;@ THINKNETWORK.com, 2024-2025" style="text;html=1;align=center;verticalAlign=middle;resizable=0;points=[];autosize=1;strokeColor=none;fillColor=none;sketch=1;hachureGap=4;jiggle=2;fontFamily=Architects Daughter;fontSource=https%3A%2F%2Ffonts.googleapis.com%2Fcss%3Ffamily%3DArchitects%2BDaughter;fontSize=10;" parent="1" vertex="1">
          <mxGeometry x="2740" y="2306" width="290" height="30" as="geometry" />
        </mxCell>
        <UserObject label="" link="https://www.thinknetwork.com" linkTarget="_blank" id="nTdxFwAnXL4plcgfxrZz-1">
          <mxCell style="shape=image;aspect=fixed;image=data:image/png,iVBORw0KGgoAAAANSUhEUgAABLAAAAC0CAYAAACE/9XKAAAAAXNSR0IArs4c6QAAIABJREFUeF7snQl8XUXZ/59n5tyb3KTpnia5uVkKBbSoKBWKvC7gAoILoBZFoHSBVkRWxcp+WUVEZEfWFnClKghq2XzhdeH1FYF/BSqtaZvkLkm6t1nvvefM8/88556b3qZN7jl3SdMy8/mwJJlzzsx35syZ+c3zPIOgkyagCWgCmoAmoAloApqAJqAJaAKagCagCWgCmoAmMIYJ4Bgumy6aJqAJaAKagCagCWgCmoAmoAloApqAJqAJaAKagCYAWsDSnUAT0AQ0AU1AE9AENAFNQBPQBDQBTUAT0AQ0AU1gTBPQAtaYbh5dOE1AE9AENAFNQBPQBDQBTUAT0AQ0AU1AE9AENAEtYOk+oAloApqAJqAJaAKagCagCWgCmoAmoAloApqAJjCmCWgBa0w3jy6cJqAJaAKagCagCWgCmoAmoAloApqAJqAJaAKagBawdB/QBDQBTUAT0AQ0AU1AE9AENAFNQBPQBDQBTUATGNMEtIA1pptHF04T0AQ0AU1AE9AENAFNQBPQBDQBTUAT0AQ0AU1AC1i6D2gCmoAmoAloApqAJqAJaAKagCagCWgCmoAmoAmMaQJawBrTzaMLpwloApqAJqAJaAKagCagCWgCmoAmoAloApqAJqAFLN0HNAFNQBPQBDQBTUAT0AQ0AU1AE9AENAFNQBPQBMY0AS1gjenm0YXTBDQBTUAT0AQ0AU1AE9AENAFNQBPQBDQBTUAT0AKW7gOagCagCWgCmoAmoAloApqAJqAJaAKagCagCWgCY5qAFrDGdPPowmkCmoAmoAloApqAJqAJaAKagCagCWgCmoAmoAloAUv3AU1AE9AENAFNQBPQBDQBTUAT0AQ0AU1AE9AENIExTUALWGO6eXThNAFNQBPQBDQBTUAT0AQ0AU1AE9AENAFNQBPQBLSApfuAJqAJaAKagCagCWgCmoAmoAloApqAJqAJaAKawJgmoAWsMd08unCagCagCWgCmoAmoAloApqAJqAJaAKagCagCWgCWsDSfUAT0AQ0AU1AE9AENAFNQBPQBDQBTUAT0AQ0AU1gTBPQAtaYbh5dOE1AE9AENAFNQBPQBDQBTUAT0AQ0AU1AE9AENAEtYOk+oAloApqAJqAJaAKagCagCWgCmoAmoAloApqAJjCmCWgBa0w3zz5TOO5HBGEQc94GhDnpci9fZf9O7TO10AXVBDQBTUAT0AQ0AU1AE9AENAFNQBPQBDSBMUlAC1hjsln2jUKFwyC4pPE6kJMmTaoIdCcqQZjjrZRfkkyZhsBEd5mvR/aXJSoim/oBQF1zDRAi0L5RQ11KTUAT0AQ0AU1AE9AENAFNQBPQBDQBTUATGAsEtIA1FlphHyzDnCdAHtoLVRaUvx9AfBaIPkAA9UBQQQASESxANJFoBxF0gaJ/GmXiOejvWwUdMBAO2yKWFrL2wbbXRdYENAFNQBPQBDQBTUAT0AQ0AU1AE9AERpuAFrBGm/g+/jy2uto+E8qqdlQerUDNQwEfUwC1AsBnK1IEJHZaWCEhCCBQgJBEghgB/YkUPrIj2L/yrn9ASrsY7uMdQhdfE9AENAFNQBPQBDQBTUAT0AQ0AU1AExgFAlrAGgXI+8sj2OpqRn/VRDRT3xSA3wWEcYBASKAUgMK0RZUJgCmwdSzwKwKBCIAA0jG54h83AmDYUMavwgt3bOV77C+MdD00AU1AE9AENAFNQBPQBDQBTUAT0AQ0AU2g+AS0gFV8pvvlHcNhMKx632EgjSVE8DlCCGBatEoRQRsgvEYEbwqAdSTEDiAyALAagQ4AoEMJ4HAAqAMWsmxRC7cBqV8bIMLhBX0dWsTaL7uNrpQmoAloApqAJqAJaAKagCagCWgCmoAmUBQCWsAqCsb9+yZ2vKvt/kNNKe9GgCMIwM9WV4SwngBWCIJfmoaxZvNA944HFkNqkAYB3rkC/Fu6KicpMN+vQH4VFB0HCPXpYwshgQArFMBFN87vj2oRa//uR7p2moAmoAloApqAJqAJaAKagCagCWgCmkC+BLSAlS+5d8t1BBh+fFy1mbTuBISvAtrxrAgB/m6lxPXbUhV/m7Zx40C8jr0Ed09bXwS1/In0NeEnqsep7p7jCeEGADgIAJAAEAl+nDTLr/vB4q3b3y1YdT01AU1AE9AENAFNQBPQBDQBTUAT0AQ0AU3APQEtYLlnZeckArz2WsC3384SbOYAwPLdb3TooUDha4D2Zcui8EtgpNYFvoMIVwJCBddSAPwlaamF5QcmWhPrx00S0pqeqb1QSBZgiiiVlAITxo7Expe3QN8x14AKA1B4Ofisvor3k0X3IsDhhCCBcAPf/51xfUuXnwqWxybR2TUBTUAT0AQ0AU1AE9AENAFNQBPQBDQBTWA/J6AFrD03cDqsOALZ7nOrwLd9PCCEAMwk+KaIKn9fr1kuDDLKCQT4SJgmIFsnGYQWSFTJhEiolJEsl9sT4ycBRaIAvZVgPrAIOCdBGATsA+LWZQ9UHSyl9RQgvSft9Qd/J8ILb1zY908+kTDVGJiDAD/gOO1OJHa2zkoRcSB3SCJCKxH9xUR6snz+QGuYLbgA4MpHKj4PBLcg0iF2EyD8rySaG14wsN55zn7+6unqaQKagCagCWgCmoAmoAloApqAJqAJaAKagFsCWsBi+ygnha8FDIdBLboffEF/5ZREyhxv+LAGFEwHxGmIMM1SWC2AJpKAiUAQ4KDkAGAIAFZm7KDmgGAC0XYi3EEAGwhoC5LYiAhRJbBdgbWt3Dew5ZrToZuP5AuHAW1LrbSQM2ZO5Dv/j1A2oSPwMCDMAQQfEG4XAPOuW9D3Oy4qW6Nd/UjlWYTqIbvk6X/ZApVdCWaLIJDAAoS/pJRadPPZiRb+0/33gy9qVCwkpHuQcxH0AsFVUvT/JDwfBtx2YJ1PE9AENAFNQBPQBDQBTUAT0AQ0AU1AE9AE9n8C70oBi4WXTNPaAtJPoQoGyqYpnzwILHoPIR0MJGYQwTREmkIA4wDAx/8gn6LnWBuNBA9tfccWcTj+kwksbJFtkbSVADYBQRQR30Gl1ggh3k5aGPNP6N0aPhVSg4LWXhazLrvf/x5pGH9BQVOAwCIF9wyk5E23ntuzYTcBC0EAQQ8CrEnXGwUATUYBdUBgpHnjDV2pvhsygd6veDRQLy14ggCOIiZF8E9l4ik3LerrHEtC3v4/DOgaagKagCagCWgCmoAmoAloApqAJqAJaAJjm8C7S8DigOTXAsInQMDa8eMtkToICD8EyCfr0fsRoAEBxhNAObFVkGNWxEoUC12ZlPYuTFsZZX6dnWfo3+2fbYUmfR9b2Ur73LG1Vi8o2AyI/waANwjhDSJ6zZfq33zNIujneFtsFTba3YjdA1Vz+WnKwsdA2HLSRiQ4WR7Q/2r4WFuQG2qBxb96FVDNBYmmkSRpgaghATcDwEfStmX4PCEtypw4yPG1zPXlxwDgUwB2fK0+VHC8jPb/796o82gz1s/TBDQBTUAT2IVA5tM6EhY3eUqN1evcyatl9eDUwqnInuo8XJ7svMOxGvp7N0zzuSafdsj3OUPbZCjzodO2fMrm9pp82jvXNW7ayG35Cs03XH/MVYdCnzvc9fn2mVKVZ6RyDl1KDM27txi6ZZtZGtnLgCHj00jjjVfWe5sDO9Z4GTO4vJl/vNbVbX4uT+Yft9fsqX+N+poy38Lq6zQBN4Pp/kspLVzJzZNBTqgqaxSEHwXAswjgCEAIDI7ABMTClT1iKUBbbMoSqYb76gwKUlmi1rCiV5YYRiwLKdvRjoektGBGoAigFQU8CSn8ZXJCX0ugGnrhf0CNpqhz2xMQ2NoduJUQvsEQEOFv0h/4fPiMLTsGOWS5ECLbTyH8bVtP//GdtWmB69BVQFZT+fWk4AIAZIHqLwBqsRFJ/MeuC7fLzyZXmYn+fwLCDNtuS+I5183tW4p72fos62XYm5NGN5OyXHn2ZvlLOabkmkAPXdyVsizFurebtsrV3sUqi5v75FPefO7r5jlu7luqPGO9fKWqd7HuywuFQlKpFw1Dy8btzVbFQwUTO9+MGTPs37e0tNhTC/65paWFY0J6WTQUukgphGe+17pth2xue2Q4TAH2lHe464fLu6cpXeZxu10zY8YMbsfsqd9uRWtubhatra2Di+3m5macN29eMhwOu2nvfPq+m/vm24ZDr8ss4rPHOLfCwmiV0+u7kslvz1NHIQ32q2OOOUa+/PLLmTbPvC/8d/4d/8zMsg8ycsu6VNUYie1w7/HQ92i4fDvFrxk8/Qd7EeD3+2nVqlXMgP/ZK/O45ubm8kAg0CCE8CEiSSktTqZpWslkUiUSCcW/x4EB6gcgIYQaGBhI7dixo9v2tild8tXU1EyyLMv2agkEAtDf3z/4tCE/23y5nFw+px5KSqna29v5Ih2qpXTtpO88CgS8TB5GoThFfEQ6/hJdfBsEKieVhQQaR5JSJyLC0URQRwB+xxjKlo4wy61wT4IUl8xxCUwrXI7A4vzOftYuI216aLZ/Nfj7jOVVVjUz97Svz7LOYmkLAbYTwr+QxApAeimZLFsza9LWnlNPtT9yJf2wLXli0gR/T/8vCPAE/pAg0FLZPrA4W0TLxMACVA85hXnVkuosSWAZEtAy5SRS6joA/DQgSAG4bID6LrxlIfAgbye29DIbKlYg0qeJP+IEP+zd3n/Njy+GgVF2I8Tm5uYy0zT333cCAKLRaNqddYQ0Y8aMsoGBAU8T62g0mhwy8Sriy7zbrTy3lWEY1NraymX0OqkWoVCozGtlPPLwh0IhjqXnOSmlMB6PJ0aRfaaMvmAw6BNCjDgO1dTUYFdXF40fP95atWoV88+ZQqEQxxb0lGpqaszXXnutlBNHnDFjht/re5GpBLcT/388Huf3zxUHTwD20cxTpkypL/f7rwKiiXYVhABQyv6vyDZ7FmwGnE7274mI86AQcSnlzS0tLRtHC8HUqVOryv3+84ioZthnZuqRrhO/Iz+JxWJrXJVx1ixffTx+PhAdOWL+7Ge4uvEImdzca0geIQQobqv0ZAQNv//19vb2H440xh522GEH9/X1Xa1M06eIgJTaOSDzz7yJlb0RuNPcwF7sK/47Ir9MnC/7dxkxwC4QEme1B3velkwv5HZaR6THLOL9w8H7pOEo3j/kYKbpM2kEEVr8/+l67mmsUyilUqbJW558seLYCdLnW9He3v63kZqlubl5dmpg4GIvTYdC7FAA18fj8YiX6/LJy/OARH//AsX9kIhDZ3APEMTbvEKgw2Tw1ln9AVGI7T4h7l4fjb5ZyrnqzJkzeUw+LjEwcDo4Y+wu48jOiqen2ogWAlhCiJWRWOxOgPRmawmSvUpobm72m6ZZIYSoVclkNUrJJ3aHUIgppFSASElEwWXoB6W2KKKIBdDm9/s3qm3bOozJk/taW1v5+z5c/ytB0dO35HGuqrJyCSAeRJaVUdUy71L6fUK0nD6vKP3OETO225zIfk+V83s7v1LE7xa/9xlrJURMkVIJQEwiIn8b+0CIDqVUJxFt6enp2TBhwoS+aDTKHNyK5AVxaWxsPBSJHiZuq/RYYfH7zXGOif+fxxSyBxb+LxeK/75dKXVlZ2fnSwU9fPiLsSkUOs1U6hIgqsz1DMfpZydnImX3f8TNiuh7HR0d/8x1D/13TWAsE9gvF+v2yYEAAau3cjqi+jQpcQqA9UFA5Jd+Z52J5zlD3AOH/Gw3HotV9jCVThx0PCNypf+S1cQshqUnTijSM7FB3cvxIBz8Etl/dq7NzNUHyzNogYT8BUgKgDYC+H1qQDzXtgZW/uKO3s3OorUkQtblD1bWSKl+RwCzASCBgDddv6DvuuzOPCSIu0DE7UDEExauN8/apwJyAHzwIeF2UjD/hrP72F0wO+FVSyseIaLTAcEABT83E/7zbz53+7bRFLB4IRUoKzuHiMZnF84Jzr9X3uGhz95TWXLlyf47T9aFUn+IdXX993AVYvFAEJ2qEJuEEChYoSDiiSsHNUNC/k/aZpB/z/0ciSyL6PFIJPLWaICqr6+fgkS8gEwvep2UXdeM+jaoVgmx1TTNn3V1da3zUEasrq6e4TeMsxwX19yXKgXS7x+YOGnSo//61794wZrr/fSF6uq+SgCHu+lru7U3txHA022xWKkmTXusc2Mw+AWQ8pMoRFq4dwawQdWTBQh77c6atN1H/l41ceJvc4lMxxxzzLhoNHpBb3f3VL6WkxsuZX7/3xqnT//dyy+/XJIFSVNTU51pml8HgLqscjnbFEjMwam7PTV3FtD2pF4pxZNGMk3TBCH+HovF/rwXBMfcfXcv5Giqq3uvSfQiINa5fvygsGXvUm1BKc+PRCK/cH19YRlx+rRp01JSvkAA7xvuVmy+7egmIKVMWESfi8Viw4672feZAVDWX1f3UwD40nBWXoVVoThXI3dqp5L8jvt9vmeaDzjgSyO9g+95z3s+0tfbu8IyzZ3f2ezJT+6iZVsC5c69M4ezfZhzPN5lTpzdjkOiRmTuzIv4nY3tjIVl5eWXrlu37raRCtjY2PhRZVkvkFKuN0iEEDsMIb6wPhJhcczrZowXXsDfWQHwG6XUx7OqOKxFTHZ/YAFLIJ7fHo3+soQiERwydWrVQGXlPVYq9XWej+SoYLrsiGAI8UhbNHqus5mX6xvthRs/QwaDwYloWTNIyo9iepzgfxoBoAqI/CNYFvEmzHbe60CAtwDxVWWa/9zR19fS09OzpZRz/qGVDAaDUxHgd0B01NBxKLutR4AzHNfsPrTzfU6Lxvwucb9mQWsbEXUA4moA+BcAvN7f37+mrq6uc9WqVfydL5mYVV9d/UE0jN8qouZBQ4TsDZVMpQetDuzCdAPi3Hg8zodcFbNP2b22qamp2TLNXyqljnCWmbujzyrP0D/amwOICRTijkQiccPGjRt7vHRsnVcTGGsE9i8BKwxizkzAQ7dVHagMax4BzeH3HpCMjKVUdoWzLa24YWzxSOwMvu7s2PEKDUHZVitJADSRl/SKFy2UAIIU8Sl7O1dZ/H9+EOhH3qkClADEAeD9bIXEwdDTH1GQg+KVI6qlR+/s/UcecYgy8bPSYhhuTvXDn1MJcU9P9/j/2zoznlh+6i4mx0XpY99bWt7sI/E0xwbj4OwEcNWNC/tvz775LgJWOoi7vSszaFXG9RG22JdAgLvHUf91S7Ksr/hetgVWU/kDCHgmcbB3gj9WoFxw+fyeTaMoYIn6+voPAKmngaB+F4AjfBCKAnqkmwx99p7KkitP9t8RUwLgykg8futwj+VJqwR4ylLq6N047OmidGsPEOLXnQ93ybE0NTVNN1Op/waipl0mCrvWNV2O9O4YW220WUTzOjo6WDxwm7C2tvYYiciL42o3F/GzpJRbxk+YcPLbb7/9Sq6JTAgggMHgfRbR6ei8QyM+Z0h780QSEZ+JxGInuSlfsfIEp027BaW8lHcld0r7w96dh7CHhJQXRqPRnfbue8h+9NFHT9u4ceOfe3bsOCgjFO0MHLjn+/OwU1Zefi8Rfae1tbUkZvENDQ3nkWneQAATBkux64R29wnr4JaHvVPN69wdEvHstmj0yVz9oljtNNbv01hbO9MCeAEQg3mVFTElAZ7wV1QsbGlpyVgq5HUrlxfhgQceWD3Q3/88EX3AzQSKFw2EeGLMpchsC1i1tY8D4peLEO/EZbUKy8Y6luHzPTP7qKNOWb58ebYL1C43fu+MGUf1Dgw8a5rmeB64Cnuq66uLvZgc+cGIyuf381i0y3xpyEU4ffr0RjOZfMNSaqIDYkQezgI0CUqdGevs/E2JBSxxUFPTIX2p1G+J6D0eG4oXyklCvD4Wi7FFXsksTmfMmFHd39//Cih1gLPXkatT2IKjkPJbkUjkviIzlNXV1QG/3/8JAPgaEB0DRCzMjySsjSjIsmUPInYR0T8U0cOJROKvW7duZeGh5F4YLGAB0VOYiWE7jMv0CMCL9d6lhSrELUj0DgH8dCCZ/MPmzZv5MKmMkJWr3T39PVhd/SH0+Z4EIhYdXXV/BNih0gLW00X+vrP1d1UykbjWNM1v8RRzWAFr+FrasxGB+ILh93+1tbWVRdJitY8ntjqzJlAsAq5ezGI9rFT3YSFl+XIQr/eUNxkkTgeAUxHpAAQsJ7QjTe1Wz0HxKuMKmHbZS1tMof3B7QOAtXxSIBGsI8CIIOokg7ZBCgc4UDkpMwkSTEMhmSy9cOonAYbfMHzks0j5KKkmGAZOtgiCQGyNhAcB0SEEwBN2H28GOaKPcHbyssam9OJ70FIrXQueK5oCoIsAX2AzVzm+/1VYBWYxY2SxgGWQeBpYwALoR4Lrrl/YzwHZB1O2gMWLbzYlRqI+tiF24of5AMGPtmhHL1kpcdZNi/s6hk7krlha8QiqtAUWAvza7DPO/f553VtGXcBSij88IbcfrFL155LdFzEhEK+IxGI/Gu4Z9VVVU0RV1ZOK6GPD7DgPvZS76AACnB7t6OCFeclTTU3NdEMItmbg3bFcyX4vhRBtEnF+azT6cq4Lsv6eLWBNc9Mv+OVEITYEKipOaGlpeT3XszIClqnU6QLROa0z11W7/J3ftk5fWdlH1q9f3+bpygIyB2trf4iI33HRR2wzewR4EKW8OJeA9aEPfah665Ytf0kmEge7XODa+w5lhnEPSVkKAQtDodCBpNQvieiDfAptHtjsd0RK+ZDh91+1bt06njzqxCYJaQHLmwXWruQ4tse6csM4uaW9nQ9CKalVCo8BjoD1ggcBiwV+bxZYaQHrK27GnLHQkdwKWDNmzDgqOfoC1mgjUmVlZZesa229Y6QHz6yuHtdbVvZn07IO8yBUEkr5vZqamh/nsmYtsNKisbHxU5ZpPg5Err59Q57H5XykvLz8kpaWlsG4qQWWaejleMABBxyUTCRWKssqc/u9YJc1lPKLkUjkhSKNFzgDwN8XDH4ciL6JAP+FiBOI7I3rYqyx+PvBovBmBPhfC+AnHR0df3FiGJVsvLMtsIjYmihjgVWMuhTSBZgDu+r2AAtZiGwduKyzs5O9UYpqjVU3derh0u9/iohcrwdYwELEuZESCFgNDQ1fI8viTTreQPPcDmnxmzoIxFnxeJznziXrN4U0sL5WE/BCwPOL4OXmo5AXwy+BHIhPqPINJL6AKC4khPcRkM+2ZLItoHZP9q85uIETMJEUDgDSVuDg6QBvAtD/gVBvmMq/oSzV0wsHQzJ8DPs4F6BYh0GEZ4KxuXNy+fhx/RMQ6CAkcRQhzRKIM4hs4aQcgPzEVlsclIuHHF4QZ21U2hb7jiTnBHzfIpB+opAe3b4jEb3rAlt8K1hZD983bppZZj2JAGyJYwLBvdcv7L8o+95DBSwgWKsULRQCE0hUASg+RUDfIgB2F1Co4BPXn92/W1yIq5YGniQFX+TTDhHgPtnXvyT8TegtiLe3zpe2wNICFgwRsNxQtBfnQDQ31tn5azcXFJrHo4DFj2MXr3YJsKDNpRuPU8Z8BayuynHjjl+zZs3KXHVlAYvq6n6iiL6ep4DF40MKES8jxHtzCUS5yuP273U1NbcJITh+S0ZjH/ZS214V0ZWAxTvqA/39f1FKHeL248QF8BnGPb6ysm8X2wrnwJqaaaZhLDGJvklEZXnsfNpxfSTiX42ysjnr16/vcsv43ZCvsbb2UMcCy70LYRYYxyqlTyBePZBMPjAKbhFsOTMtmUh4scDSApbTZu8WAcvn813c2t7OMZaGSzhz5kxfX2/v7WYqtdCt2GFb+CI+krSsC7q6unpLOEYY9fX1C0ApFuHYxdHtcGwXyR7zhPiTApgfi8WiJSonNtXXH2sRPacUx5LKbdHH5RJCbPYjfnLu2We/7TLQ/rDFnzVrlq+jo6MOiRYD4llAlG1J6onZCIyy5/O8INgKRPebSj3c1dXFsdBKEvtxDApYTtcaJJUExOcI4AfxePw1x9Kv4LUP372urm6WFOIpUoo9Mly1o22BZRhz45FIUS2wDgiFDkoQ/RKUOjyf9yhjuYkAP3bi57Fxhk6awD5PwNWLOSZrSYDnrwD/xK7yIwHwQiD8HCClYwnY4dDTY90uqys7UoHtkMfWViYhdCDASiJ8Fizx54GynvZbz4S+QeEkY7lViHC1J3hOgHn+0/33g69NVE42fPRhIvo0EX4MiA4GRBaz0h/lXSzIssZnrs/OIf01IrrdVzbwDJwOPWF2eiwgfeexmsqAteMBADiNY50yo76qvjk/PhUGXYB2s8BS+HbKLPvoDxZvtS0MvvswVJVh4AVCONLeN0E85/oFfQ9lFyu8FMpNCryCAB9yqnLJ6nH9d5bCLXIEHFrAcuDkKWAlSKl58a6uXxXQ5VxfmqeAFRUA89tjsT+5fhAA1tfUHAtCcByPqW4mMhwTRiB2VVRVfda1gFVf/4CyrNMEsrtxXokFordQyi9FIpG1ed3B40XB2to7EfF8DwLWQyjlRbkEtoyARUod4rZI9qLOMO4pK76AJRsbG79smSbH6KvIV7wSiJuFYXytvb2ddz6LMsF2y2as56upqXm/gficpxhYQyrlLEr/DIhnR6PRwSPjSlR3LWDtAay2wNoFijL8/gvb2truztEHxQHNzV9NJBIPE1G5GwGGxw+B+Irq7j4p1t3NliclSdXV1ePKy8tvtkzzG7bnkctFfFZheNNoLQpxSiljYzbU189Tih5xhlU36xn+Vr7jM81Prt+wodDNBCM4bdqRaBjXA9Ens8Z2N+UopN3S3xDEVwDxqlgs9tdSuNLNqK2t7ucYWIgcB5frVOp6eWXiRF3BViD6vqkUxzhlcabgb2xdXd2HpRBPk1K1butdIgHLCIVCt5NlncP7dG7Lkg3ScUP9h5DyzNGaH3ptSJ1fE8iHwFgbkNzVIQzipulVk/qs1CIEcSYBHGzHj+E0KPbsMoalT8ewB33YgAT/JIQ/IeArEvz/geZtPeFjbSujNI/heqyQAAAgAElEQVRiC1a5akWA4WsBew6AwDirvNqy8CgS9HEE8QlAmAFku62wSdmefekzQeYRtwqA35LCe96p6n1r+RyWjfIbzBfdD75qI3AeAvyIA3MRwHoljRPK1ne3ZFwVh5xCyDG+Vxno/2h4/rZtXN7wE+CzegLLieCLjEAgfv+6+X1XDJ7gSICXP1Z1kKHMV4hgUlpUxFOun9e3wpbtRi9pActhnaeAlSSlFsS7un4+Gk2Wt4Al5YL29vYXPZSRBaxPghAcA8uVgMUSuS1gjR9//OrVqznwaK4UCNXXP2AVJmCxG2EPCPGNaDQ6Km0QrK29GxHPK7qAxZNmIf7Cbta5wGX+XiIBi10H2X36NmVZxzoLOE/fS+cUIMuQ8oZx48d/3+0pjG7rvT/kC02b9gEl5XMIwAuFfBN3gT6Ucm40GuVDQgravMlRiLSANTDAQdzf76ZDIKK2wHKgvlsssAzDuKAtErknV4eePn36B5KJxAtAxDEW3XQnHuujPoDPrI/H3RwSkqsIe/w7W99IgCctoqPzGfvS28jYbUh5amsk8lxehchxER84g0SXW8q6HO0zZnImtl5KSSGe6RsYmL9p06bB07BzXrl7hrLG2tqTLCGWABG7gGae76YN83jcbpfY7nSIuB6IlkQ7OlY4LoVFmzez9fEA4tOAmDkNdbTq5oWP7TqIiFuJ6La+gYF7tm7dyi6rBXGora09wkB8mgD4pFlX9bZdCA1jbqR4FlgsXn0ULOunTsgZV+XIhudYX8UEwLci8fgfSnmggpdG03k1gWIQ8PxCFOOhBdzDFkVSPYEPI8AFAOJERBqXNljmQSZTnUG7K/5DJqZVBwK+CAi/Exa8ETf7Nj6wGFL2daMrluSsPgc2h6aJ41MqOQNRHQ8gPo9A7wPAAB9lnK5oenwerKktYtmRp9ic+J9AcLsc6P9jIa54VywNHIUEvOAPAEICFF6ahL7HbnECsQ9aYIF6CJD1KVwlYVDAstvkyqUV9yHQfOKTCAF+JaHs3PC8bbaFVvhnk6tSif7vC4RFfCg6IkSlUp8Kn50o9S760DbQApZDJE8BK2VZ1jmdGzY8lrNzFyFDPgKWQIwZhrFgfXs7x71wmzBYU/MpTAtYU1xOZHgy1eUvLz9u3bp16RM5R04VoWDwAUuprxVggcVPsISUj/b29V28ZcuWUsUcGaxJfW3tPYD4zVyVs8eotAuhOwusPAWsYrsQzpoFvq7O+ruJiN1Csk+NclPldLXTx7X/TRGdGY/H2Y2moEm12wfvS/nqp007jNICFi8U8k6OFdadiWTyyhK7EdoCVsoRsNwUWAtYOynNaG4+KmGaz/IphC4tjtwgHmt5FJ/AF4nH781VsINDofp+ohWWUu9zY+XEh2ELIbcj0VmRePyZUo0poVBoBlkWh3vIHF7ida1gB3KXQnynLRrNZYmWC9Me/15TUzPNbxh3msr6soDc8SOdDYVev5S3GuXlNxfgbm40BINfVkQcEzYT5Nsrn7zqPOSijAUSBza/JR6P/6yYpyo6AtYzgHiE89y9UUc3nDLf1U0gxNU+n29ZoYe51NbWHilZvANwHf+tyAIWHlBff1AS4PtKqZM56I0bEHvoHzwH+UHVhAnX6Q20PAjqS8Y0gbE6IO0OjUWda4CuXlZ+BgBeSYQH28KTLVwNCcOSPtRYOb6EvMvyoFTyURjfsyZ8aulORClFS9tiVkNFrUL8DJG6HJDjRYIiJMlhsnY+k//XiY9l/xK7AeFOSf4fQdu2HZ4DvLNV2HKoNHsCL7N7H98ZCdaCYZ56/dzU/7MPuyXAqx+pPItQsVugQMBVcqcFli1gXfFIYAkCXIoIEwHgNZC4WK7vW8nlufrR8mOVhc/aprHpkxzvT6r+yzICWSl4DnNPLWA5YOyjsxGfVJbFQdzdJJ5TmxbAos7OzmVuLig0T54CVtwwjPleBayamppPGTstsNwUPR8B60FLqa8WImA5O22rDZ/v9La2tpzB491UZKQ89bW19wIiH0OeM3kRsGpra6slIgeo9WKBRY6A9Z0CFiW71KOxsfHzyjIfV4omuFlYDoVgCyoA60HK86LR6PMltgrK2QZjNQMfV06GwQIWLxTyTnyAiBTibZTytPb29lWlWtjzh9UWsJLJF0gpttDLmbSAtRPRu1DAciZme+4mU6dOrQqUl/9aWdZxOTtSOgNbEXHsHz7h70aX13jO1tjY+BkrleIFfLnni3eWUwmA+yPxOFvqFj2FQqGDQKmfK6LDXS7weVNho5Dy3GgBJ8EGg8GTBMBPiMi1dU7RK7/zhmnHEj6pEPF7sVgss4lY8GbJgQceOK2/r+8PCDDLedyYXi9mrI1QCA5VwAcK5W2Ju7cFLLYuFABLLKWW5B17k4iF9NeMsrLjWltb2StGJ01gvyIwpgekQdJhEFc0BuqR4Gso7JOvqm3larfTBe3qsHBlAUEXCnrOUrhsSlX/a5fMgYGxZmnlpSexkGU2l01HZXyZgL6KQO/lE/5s0+VB67Nd42MBYb8ieMIi68a/RxOtL4ftI2fdpzCIK5sqj0NSSwnTO+RE9DBZ8sobz+7dcO21gKqx8kwF6sG0JRu+Y6D/Y44LYVrAWhb4iiC4mQAaAHAHAX7b1977ONRXvs+SdAvH/WLrLQBYhwrOktH+//Ustrmv0XA5tYDlkMlXwCKAxfHOzqWFN0XuO+QtYEm5YH0kwmKC24TBadM+jVJmLLDcXGcLWGWBwGfWrl37losL2ALrIUupUwsRsOznIA4YiFe2xWK3lXABbz+pPhi8B4jGhIDFdfX5fHcZfv93iyBgYXNz8yFmKrVMWeqIQdd0Fw2ZyeJMpAcE4m1653NkcHzaE/p8KwoVsNLdH1NCiEvbo9ERT3/z0JR7yqoFrD1QcRsDq7m5+Sjr3WWBNaKABQD+hvr625VSixw3tFxz8vQB2kL8LBaLnVXIIn2k96ChoeE8UurHpBTH3ck3sdj24jmLFn02HA7brl753mhP1zU3Nx9jJpOPE5GrQNuOlebbQsp57e3tvMnjtTxGYzB4jAK4h4gOcsqUq72KWeXh7pWJibWZAM6OF8lVbPr06TWJgYHfI8CHR6MSRXqG7VZpKnVSZ2dn3hsZodraI8mjBRYgdvuknNsaifDJjV77Vnb1sTkUOj6lFIukjXluoCnB4XKkMS9SIhfeIrWXvo0mkDeBsTD4jlx4ArzqUf9MVOJSIvwyCKzk0wXTX/Es52S2D0of0bcdgF4iwKW92/r+9ONLdgYdz5vSWLjQcXUMh8Gwgv5D0JDslvclPr1QAEp2LXTM0dKlZR5soKbs0xP/muyX1735Ts8rK+6ChJfqhJ8Av9VTfg8B8mTJsGONENwvyXfj2+N3bD+4O/ARFDiPxUQE6BCpvpvCi2HwlIsrl44/CMk8Q4F9yiIIUC8pwP9BgB8CwCmAtvUV5/+JUT3p6vAX4nvjhAwtYDmdYj8WsDqklAs8xuNgAeszKCXHlWIXQjcpLWBJ+Zm1kYgrAas+GHxYKTWnYAErHeD3T9Lvn1PiHbexKGDdUTFu3JJCzeRnzJgxfmBg4CKyrCsKCJrKp2+8CFKeq4OmjvzKOALWs7jTVcnNOzZcHl68/DVlWSeW8IQ2R8AaeIEUaAsspyVcC1j19UdZiPu9CyEI8a1YLHaf43Y+0mLW19DQcIGyrOvtQO4u4u1kDi1ImebnStTPsSEUulNZFltO5b1GyAhGff39/7Vlyxb2hChkUb/bO9/Q0DCfLOtWIprsZtDgh/P3sSwQ+PratWs3uLkmO08oFDoSlHqAiMN52JuuebPx+mwX+e0VESKuRKILIh0dHNg9bwskfl5zc3NtMpFgAStjgeWiGHs9S8atcmmgouKilpaWvMIp5C1g+f1zW1tbCxGweANtgpVKPaGU+pTt+eKxnzmusj2GlDcpgDtyHZyz11tMF0ATyJPAWBqAd68Cu7EtK2+ySNxLQMchomDxijPu4jSYPl2QLa9aQcGDhl8uDc/t2TAW41vl2U47L3OErPPvhLIJVRUnIMC5QPBJdpe0LZkGrdJ42OMz0QblrDW93fjtSLBvhacT/jjQ+tKKD0kAPonrMPsJBAOIcIdMwn3hRf2ROctB5LgnhsPA/6grH/O/F1KSF4dzQNjiFZ8L+T8mWt/6/oIk75jsjaQFrCwBSyI+aXl0IdwHLLA6JNGC1o4OLwFlsa6u7ngBwLElXE2S7aFJiE4hxHEuT1+qqA8GH1FKfaVQAcux/NlkIJ7UFov9g+Nilehlwvr6+ntBKT6hKmcaFRdCv//HlZWVlxUoYGFTKPQlUyk+Veo9+SxQ2JVNCJHwSXmSR3fVnBz3xwx8XLkA4ADEmVg7eVfTXjAjbkGAsyPxOLs/FbSAG6YgOgbWHsC4FbDq6+uPElrAyiYoGhoavqAs61EiGu9msWqPMYhrFMDH4vH4prxfmD1fiDU1NRVlhvGkqdSnXLrmDVeEtDs9wOx18Xik2AJWKBi8FgAuJaKASwY8Nj8eicX4RDeOFes6jR8/fvL4qqo7SKnT8/kuuH5QYRl5us9942kFsKjQvlHd3FzrSyT+mDkhvLCijd7VzndgOyEujsViy/Ppd6FQaDZZFgtRrmNg2RZYBQpYM2bMKEslEueblnUdELH7ruc1ujMHedbw+Ra2trZ2jh55/SRNYHQJeH45RqV4zql8Vn3Fh0Cy+xnxaXyG7f2/SwFs62w+ac8kBcsR4B4p+t8Iz4eBUSnnXn7IE0+AXNkfqEUL5yHQuYQQdNS9QUxZlmqKCP5DCq7t6+5/yotl2pwnwH/IjooTAekngDDVDthO0EeALwmgnyYH/M/fvGH79rDDI3yNLaPZBmF8uuLbMwEP2l45VQj6PCKdSQRHg7DbUxFAm1Iwtyza/39hry6OxeOvBSyHJVtgScTfWpb1cZd42RzSRCG+EYnHH3F5TUHZ8nQh7HQELI655jZhqLb2s4T4U08CFmKnkNK1gNUQDC6ziL6EYJ82WmiypM/3I8Mwblq3bp19WEIJ0lgTsJTPMG6bOm3a5a+99pqnhUkWG67TZEH0CwXwCSdwu1d0vF3Qg1LeU1NTc3UBZfH63H02f0Nt7REK8Y/OKZ8F14OITCnlb6TP943W1lbu/0W1+tAxsPbcRJ4ELIBnLcvar4O4A8B5sY6On7jp0I2NjbOUZf1cKXWwywk59+lNKOWnotEoW/kWtY/X19eHkOiv7L6UzwI6q85croQwDP4WckD4ognKc+bMkX9/5ZVHLKVOd/PddMyTEoaUN7ZFIhw7zEtZjFAwyJs1N7DIWCATN12ikDwsGu5AxDsHkslbCjnQwhGw2L37g4UUaG9c62zm/b6vv//MrVu3ep4H2QKWUr8DIvcCFkC3r6ysEAssnoMcA0QsZofciNl7YMur5DgKcU40GuW5blHHhr3RlvqZmsBwBFx+L0cX4JwnQB7UU3GYRLiZiD6ZDhDOIa+yXQZtgUQBYJQIlvWbfXf/aBFs3pfjXOVLmd38zJ7AFwXgEgJ6PwCWMZxMsmU+FpSULSzF0aLL5ISBJ7wEtOdnqO7KOQroCgA60Hb942N8AbcT0MuA+CwS/SuZgg4pRMJfhpQiywcmTBcIhwPBFwlgNiBUOJ3OJICVqODivRT3Khu3FrAcGvkIWPYJeIiLx7SABdAliBa0dXaytYfblLeAJQ3jM+3t7W+7eFBlQzC4tIgCFqEQ7QRwUiwW+1eJJjDYUF9/n1JqsYv6eTqFMM8g7srv8906pbr6ynxFI+dI9kuUUpcR2GOUp2+jY7bPO/xP+vz+b61fv55dVPTkMUcHcVw1+HjvqW76kos8vIDrUACfj8fjb7jI7zVLJgbWi6QUuxLlTO+CIO5s6o2Gz/fM7KOOOmX58uXDWn7aFljvAgELlVoc7eriw21ypubm5mbLsh6wTPMzLgcd3pfsxrSb4i+9WhPlKlBjY+N/KdN8iYg4ZITLIg1zV6KU8PmWSCnvK/RkuOwnTJo0aUJFRcWvSalj3QhY6SkwdBuG8Y3WSISZuR2bsba2dqaB+EsFMLNAi7RMFUZ6dmG8009gEYPjYZ0Wj8f/5KGuuzTi1KamOn8yyQLWYbn6zFj8OwJ0cmy5eFfX770y2BsC1vRp02pSPt/dSlkno4tTNffA3D5QCQ3jdsMwri7m+zYW21eXSRMoxmBZPIqOxY7ZUHYQolgKCEeSAjnE7Io/qY54RS0IYsl18/vYXSD9+3dvwiseKm8UEm8HwBOdyQcLf+kvmuNMbZ8eqGCDADj3ugX9T3lldvX95ceaIMPCp44CAsOZ3gj7PgpMQNiOAL32EZAAbNo9GcgWu7h92Fou7YII8JxlWdfedE6SF9l7O71bBKwBAXBVJB6/dTjg+QhYiMiHA5wbjccfHo2GzMsCKz8BS9TX1JwIQvDJPpNc1o0nj51eBKxQff0ypdQpLifiuYrBz0dpGJe1t7fzMd+lSNjY0HCfsqzFGR/lkR7iuBA+iFJenCseQwEC1i1TqqvztXpCZ9H2e6VUXpYhTryX9QRwRiwW+99SQN8f7xmqqZlNQrCA5TbGXC4MLGCZiLgkEovdBeDx4JJcdwfgGCU1Vir1ghpjApYTMGDQTn3o5K6kkyMi9Pt8zxxx1FFfyiFgfQQBViilxu1JHBmcr7gIHpWeUuyS+Ecvc1qeFhUdC3L8UaXOjrk8lfeASZMmJCsqbqF0IHc3ifs4xzJ9GIS4NNeY6uaG2XmaGhq+aZomvzsc56nQZAkhfit9vkXFjMtoW4mBWkEKZrosJzNrl4intbkfnzEYDAYkwJ0W0QKnv3npX4PsnH6WiVPF86Uk7uriz9bXPqWUH5DDoQx6m+T1PPvBQvw+kUh8fdOmTT1eBRy+fGpDQ9CfSq1AxA946QRKsWOFHZDL9WXp8MV8DhRHQrGT+4v38BSHN2+sPtY3MHDxli1bPMXCcgSsp4GIXdvdlqXb8PvPamtreyoP3rK+vv4CILoKiNzONYf2Lz6J95+Bysovr1mzJuYavs6oCeyjBNy+mKNTPQ7Y/kjlBwjV3QLgKEVgZMbAQeurtEjVBwT/BxKulOv7X92Lrmejw8XDUy6/v6LO8NESQpoPhOP4bEDKOq3RbvC0iNRGhBdGRd/zy7y4XBLgN66d2PSflfKcWZ/p/1xZOR1ACOPYuiurreyvkP1N2mkKxhPrbgD6NyL82jLwFzed0dfpVUDzgMJL1rSARfQ0EQWzL7St17zcafe8jMXrRLBUE+ukUOqqSGdnUQUstsAypDy3LRp1teNcGE6APAWsDY4FFrsruU2ipqbmRKP0AtajSqmTiyRgcX9lK6xX/H7/l9evX9/ltrIe8mFjKPQTixdcTpC9ka4dBQHL8vt8tzQfcMDVL7/8sreTVgHgwAMPbEgMDNyrlHUiT6E9TFgz1eYhol8YxjVEdE+xF5Qe2mWfy1oCAYsZ8GL1d4ZSF7d2drYWGcpYFLDsT5QQYrMQomuXQAvp99MWtRyxedfPGdkfaN5sSp/6kokvmv69nTLfwKHfwl1+Vgp9fv/LTdOnXzLSOzht2rQPlPn9dymlJnDEadvSEVESkZCs/CDyQp6/l7z5xgfTcBaeTWReS67I0LLxHw1lWRynkE9mdpt4nNxORD0jWFzuYQqwiy9A9g8ZZIKUuijW2cnxd3KmmTNn+ru7uy9QpvkDp5I55+XEVs8AfxM+38nt7e1bcz7EQ4ZQMPggASzMxJv1cOmesnLfewcQj4vFYtEC75W5XDY0NByuOEYRUa2b8ZobRgrxDx/RHC/xuBqCwZMUEZ9CnE88ItaUeSxiBgNSiKiUsoUQ/wMA6wFgeyqVovLyclHu90+0lKq3LOvgVDI53bKsBsuyxgGi7X3ipo7ZbB0Xun4U4sJoNMobi56nsfkIWE59+0kpU9hv986unBG07N8IZ0qsFFhEaCoFPin5T4ZSypcJXp4eIvJLzri2GpU6NdrV9aaXu7CABUo9Q0RsGey2DN3lFRVnrV271quAJRvr6j6oEB+jdOzNfNYLfEBBi7+8/PR169b9M5/29sJH59UExgIBty/maJQVw4/632+Z8iZA+Cyfqpe1C5GZSXHA714C/C0J67ob5iXW6Rd196YJPwSTLaxcBKjOJwD+wNuWWJmZlvMl4/+0CMRvi7a+FV5FwObm5vLZJ+z44EGz+j+BAj9NQE18khQRBHiubE+E0w/sRsCNhLSGLHyBQPzZf2DPO+Fji74zXkgfFbW1te+VUj489DSsQgUsBBJKUQPPnzwUUKEQmxBgILOocI68GVxkZO7lfOgHJyeZnzMBHrJm/9woFljWjyKdnfcOV5Z8LLBYwJI+3zfb29tZwPI8UfLAxc66/wlYdY8qBWyB5XXiskd0HMQTEbdBOojpr73ydZGfBaz7LcviYLg502gIWGV+/80fPvLIa0ay/himoHwK2HeVZX0PiCo9TFYHb4eIKUR80SL6Rjweb88JRGcYJFAqAUsgtiHid9vTQXyLmcakgEVEVqCi4qfjqqruTK+ZkSCV2j1SdTJpn1A8GCgulWKrByLDQLOvzx67k44KxP/NmVI7Q84ZiDvaurp4YT5sYlddpVSTaZp+H4tmhiF8Ph9KKYVMJ/6vUErZopYtbEmJpjmCLm2aYFpWTSKZvAoADvHwDlsTJky4Z/PWrU9LRyWThgFW1rOG/rx7xQyQBux6jZQCk8m32jZt6sjJL53BaGpqOslKpX5KRGVuys9jqpBynTSM49ra2kZk7rIMmWz+UDD4AhG5jYGZ+/aIG6VhnNDe3v5a7sy5c3Cg62QyeZJlmvcT0QS37t4oxG8Mn+8Ml65V9mlwZir1M1LqBDdtMrTkTkD1Xp/P97bP53u23Od7Tkm5Xim1ddWqVUNjNeLMOXOMaRs3jt+8eXNTMpk8MjUw8IWkac5WljXRPsDKW7Kn30KIf5QHAl9paWnxLB7mI2Dx8DFlypT7Jk6e/KpKpaTtS2xZkFI7Q45ZlmX/jpOUEvyBgJg8ebJv27ZtVVs2bQqmUqmDUsnkoSnLCpJSfqfuea1VCaAHlDon3tX1hJe4Z44F1jPgUcCqrKo6a82aNZ4ELLY69xnG7XyQDxCxt4qnujpiZa+QMnzggQfekc8mnreupXNrAmODgKcXpWRFZtfBRyrqLAH3ANHniF3OsuxIs3YCTUK4z1B4c3hhX7xk5dkPbpyOi1WxEIHCBDA1szge3GLlOqIdw2qlpcy5Ny1Mvp2HNRTOeQLEgZsmjDd8Vq2QqUYC2QBI40FxfDLaBgjrU4pi5YlEJ2yEvsEA72OMMQtyPT09TYZhcNyHoiWh1ASQ8hlMu6C5ed/4JC3THwh8p1zK/+k3zcEvP0/0eccuu3A+Il49D/5ujz9nXdNnmp2dnZ0bh6tgKBSajIhPKtN0O4HlZ1s+n++81vb2B8eqgAUAG410DCx2V3KbRscCq67uUQXFE7CcypkgxE9jsdh8t5X1kI9d7h6wUqmz3VxT6lMIuf/5/f6bPnzkkdd6FLDEjKamDw6kUr9QRDPyEBC577MVx3pJNLctHmfXwZILuG6Y7yt5SiRgsdlxCqRcGo3Fvlnk0zjHYgwsO/ZJoKLiRy3r1l2WZ9u72asZ0QjL5XPdPsfl7dLZmpqams1kkmMbHeH2O4uI1pTq6otXrlx5j6eHucvsZRzApqamD1nJ5EsEUOW2/EKILaDUZyMdHWxxUYzEQaTrBdHzllKH5CGa7KkMzKFHIM6NxOO8sC84VVdXj/P7/ecD0dXgTvCzFV1EvCESi7HI6So1NDR8kUzzcQ9tMnhfxTE8DGPLhKqqH1RUVf26oqIi4lFYEIceeuhEK5k8vW9g4FIzlapDRE9zU8ctr1caRjgSidzu1Z26oaEhqFKpFeDBhVAIMWD4/XPXr1/vaeOARfdrr70WX375ZdHf318RCAQa+7u7v7ppy5Z5fb299ULa+79u5s+7tK39EiLeMnHixKu8nFCcJWB5OR23Ow8Bi08h/SpZ1jLKQ7zi6tnWhVI+5S8rW7x27VqOvamTJvCuIOB5QCg6FQK8bOm4qQaoGwDoDEIIsMFt9nM4ADkS7iCAp5SFS246p1cHyHXREOGlUG6pinmEFHasozhWlZ3sWWQ6bpWFAM9YJp5306LCXPrC4bTpf7wu/ZRgB9A119j331fikxX9faipqamWiG8holtTZBJCmBWBwJzVLS0stgwbENdFFxhuQjnspXkLWGVl32ptbX1gNBbw+VhgsYAFSi2MpQN6uk35ClgdvDPuKoh7TU1lSIhSCFjstrDa8PlObGtrYzcqLwuqXHywoaHhQWWaC3NltCdYRGwR9hBKeVEu97p8YmDxxNzn8910xOzZ13kRsJqamuqUZXEw+s86CyE31RnMw+4SQoiUFOLKyvHj7/AyQfb0oP04s3NceTFjYNm07JhkAG9TInFCbMsWjgdSrP5vW2CZyeSLRHSom6YZhSDuGQHrtpZ1677npkz7WR4W1KdbqRS7enkSsCZNmXLxm2++yRbJXk6lKzq+YDDYIAH+pIgOcGmtbcd6E4hfao/F2C2+KOV3DlV4BgC8xP4ZkQciJoloSayjg0WUgpP9jRDiFiCa69bdij3RhGGc2t7e7kpYqampqTSEWAYAX/YqnLDlld/nWzth0qQlhmH8/rXXXmPzwbzGH3YvRcQj+/r6bkv2938QENPxZN0le4OF5wFCyi9EIpG17i5L57IFLMtaAUSuY2AJxIGysrK5LR4FrD2UC+fMmeOLt7cfvnnbtmu2bd36KSnZ1tGbiOV4naygnp658e7uTW7rz4dNABFbYHFsRrfrAs8ClnMC6TJlWYfm4S6Z3kBDjKKUZ0Yikb8Waxxwy0nn0wT2JgG3L2bJyvidx6Cy3Kw4A4FuA4QAD7e7RBiw4zXZsZMeUxJuvvGsfh2czkNrnP9HKBsfr1iISFcCQg0Q2H784PIAACAASURBVCLW4DZoOh5WEhAesEhe//0FPcNa53h4rM7qEKipqZkmEd9GRLcfwmwBi8WWYgtYI7ZNAQLWBa2trXxseF4TNS8dJi8BC3ETWdbCeFcXT87dptILWACVofp6joFVNBfCrMr1+BAvqJg48WdFFlewuaHhoZRp2oFtc6VRErBuPGL27OvdCljBYLBCCHEaKHVfnqdt2ZNHIcQTKcu6YCSrxlx83s1/L5WA5SzceqUQ51bX1Pwq39Mp97SwcgSsPxERB5DOmbSAlRNRoRlYUD9AmebPvQpYEydPvuCtt966f28v/Jqbmycq0/ytpdRHHTeiXExsy2eU8hIAeCjXxkCumzl/N0Kh0NfIsphHhctrcmZjF2tAvLc8EFjS0tLCwecLSXZbA1mPWBZ9zKX7IC/ykyDEkdFo1M2hQdhYX/9Ji2gpETV4XCQpwzDeqRg37tJ///vffOJxMeZD4uOzZx8Y3bDh4WQicZRjqeOaoe3iDvCNSDz+qJf5pGOB9Swgvt/tw3isK6+omNvS0uJKKMx133A4LF79y1+aW9ra7uvp6TnWo4CXCZvyH1Op47tyuDdnl6W+vv4jHBPXq4A1qarqrLfcuRBiKBTiuGoPKsv6qhP/1FNXc1wHtwnEW6XPd5tL19hcyPXfNYF9hoCnF6botSLAqx+p+CwA3U4CDmLxKvsZCMDHWShCeriCjKsu1+JKXk0w5wmQB3cHzhcINwBCRSaoe8Yyyv7CKuhHwG/LSN8D4XBxdvPyKux+dtG0adNqDCFYwOIAs27et70uYAnEJy0PLoQsUJSVlV24vq2Nd7KLMWEbsRfkJWABbCKl8hGwPmcIwRM/tyfD8I4nW2B9pr29fZWL7lxKAUuhlE8i4gWRSKSYLtfY3NT0cCqZdOWeOEoC1g1HzJ59g1sBq6Gh4cOk1MN8kpzXILmZE6WEEHED4AutsdjK0ej3LvrSPpelORSanVLqD85CoWjlH2wjxGdAiAXRaJQDXRdjbErHwEom2VpGC1hFa7GCbpSXgMWWzuPGjTv336tXL93bAtasWbN8G7u67rUs6wwAcBUHi8UIIcRd0ue7thgn/LHVkd8wLieibzuxuApqlMzFBGBKKf/Q09t71tatW7cXetPGurpZisMcEIXcClgcL0xI+bG2trbOXOOAw+EGRXQuEfldPoN3gpWURmzi+PGL/YHAi0UUzRkZfvCDH/zE9q1b70okk4e6LZPDmlDKp0zTXOxloyVtgZVaAeT+FEIWsCorKuauLpKAlekrx33ykx9fu27dg/2JxEGe6464XQF8Lu7Bxb+pvv4jFhEHcXd9Oi4idk+cPHneW2+99WSuPubEcTvOMs2lpGgSGwh6fS94bSwRn7YAzonH466ty7w+R+fXBMYqATcL6pKV/bJHxlUbaLHZ9zG2KbAtYGV83OyjZjjQ4R+kAReF5/br4LgFtMTN98OEXn/Fd4noEkyfqGKntI+4bYXFaR0ALbph/sBLecTDKqB0+++lLGD5pGQhw30MrJ0uhHvFAstAfDLlUcAKBAIXtaxbd48dPLjEKU8BazMptSAPCyzvAhZRh/T7XQlYNQCVvhJZYDk7dBEUYnE0Gn22iM2CzY2Nj6RSqXlu7jkaApb0+a5vb2+/0c0Os7NAudtS6sx8Tn50TjfaYkgZRsN4SO98uukFe87TXF9/VIro98UWsJxvG1tebCGAk+Lx+Cu5FhUua5EtYL3XzaaEtsBySTb/bPkKWKlxlZVn/3vNmp/tbQGL+1FTU9M3rVTqBg5M7qZfOVaGzwDiecU44Y9d8wwpf0JKnezWNc9lk/GmzhsEcEoRDrkQTaHQZy2lfkNEg/PYkcrB47WU8gUCODkajQ7kGgfq6ureKxB/TkSHeRBLuI69gYqKGydMmPCjIotXdvWOOeaY8g0bNpzWvWPHLcqy3Fr0p4dCxLgEmN8ej7/gss3SLoSmyfMGTxZYlVVVc1evXl0UC6xMWS+++OLA/7z00nWxePxCQ0rXbpTOHGhAAMyPxONcJleutk3B4NEWAAtYvPHsKqEQ3RMnTXIlYDU1NR1umeY9Sqkj8p2DCCFYlJ3X3t7O3zZX9XJVEZ1JE9hHCOw1Aeu7D0+tKoPeMCGchwj+3cUr+8C1v5FhLb5hbvKdXB+dfYT3Xi1m+OGKoIXERzV/BRDK2BJr0JUw7bfJYbGelcp/Rnjhjq1axCq8uQoQsL5SohhYI1aKXQg9Clgc48gKlJdfcua8eXeHw+GSf0jzEbAQYDMqtTDS1fW0h1ZlF8J9VsByxkxLSnmbAggXyc2E8Y05Acvw+69ta2u7ycVEjt1k5pFSP/RyglWmzzgTYhMBnlAAF+mdTw9v0x6yllLAckQsDnB7a1l5+ZVFcF9K9/2dFlhawCqs+Yt1dd4Clr+y8qy1a9Z4OqGsWIUech/uV7PNZPI3SikO2J1zbm4LM4ivC6JFbR0drxdarsba2pkk5eNKqQ+5FNBcPdKeWiK2GT7f19va2nixXUjyN9TXL1BK3e02VhggJlGIu6LR6KUuHoyhYPA0InqIAMrdClg8B/KXlT0/YeLEc1auXFmyMCcf+9jHqru6un7Y2919mnNYqIsq2RvVFscNi8Ri1wDsfjjpnm6Sl4AlxEDluHFFF7C4fMd/6lPHrlq9erllWVNyvhxOhZzNJg7DcWmso+MOt+vIfAWsKZMmzVuZwwIrGAxOlYiXW5Z1PiJydHq31RmchqAQJgpxUSQSYXffUQ0z4qrD6UyawCgQ8PriFKVI7NL23u7AyYSwDBAqd7oODkYY53GnFRWeJyJ9z2mXtqJgt28SfjAQsgz4ORB8LDPBt2fl6X+xJVa/AvyBL9V3a3gx9BXvye/OOzkC1r8BYKLLD5UdGLqEQdxHbAhHwPptyjQ/4bbFeHJUEQh854y5c+8cwwLWFkfA+p3bevEudGNNzecsry6EXiywamoqfYbxmFLq5DxOwXNTFT4l718EcGosFlvj5gIXeVjAWpZKpTiIbs7kWGA9iFJenEtEyyeIux3jQ8rrIpFILgELZzQ2vnfAsp4jpYL5WBnYJ/4g/hsBzmmPx/+Ws/I6w4gEmpubj0olk5njyotOywm0v0YYxpfa29t5HC7UQpQtZWpVKvWiIvIiYJ0Yi8VeclPBGQBl/bW1jwPiV9x+M5xTCN+1Qdw5LhKZ5s/JQxB3IUSyLBDgeD2/diF8u2m6gvLMnDlz3PatW18FgPe4uZF9UAFiHIRYFI1GOZB7QamxsfEzyrKWKqWCboUbNw90BKwtKMQF0WiUrd3yTqFQKABKXU1E33UzfvP7j0JsFFKyGz0LlSO+/3watZlM3klE53goJFt69vMJdKtXr+a+VMqEH//4x9/T3tq6IplMNroROp3CEAjxT8uyPufWjTAUCtWDZa0gDxZYHMS9qqpqLgtNxYYwZ86cyatXr35u44YNs4QLgXew3umX+/sdHR1XuC1TXgIW4o4p1dXzV65cOaILYSgU+jopdRsQTXM5vmcXm80OWLx6vry8/OstLS3dufq02zrrfJrAvkZg9AUsAgw/PO5QU1h3IcInMuIVew/uFFFoB4Ja0plKPP6AFlGK26cI8MqHy45HIe4HhIaMFVbmIfbJhATrQIlv3bCw9zlthVUY/urq6lq/lO8A4niXH6t9VcD67hlz594eDofTJ9+UMOVjgQUAW8iyzo5v2ODlKG/RGAx+zgJ4DIhYgHST+EQw9y6EJRawnEVOtxB0dXu0484itQ1bCyxLJRJjScC6NhKJfH+EhagtPJBlLTEt61uOWOjp++fs5qaklN/yl5c/ViSLHjd9ar/N09TU9BEzlcqc9lSKetquPVKIG9uj0VuKIFRkBCyOgcVCQ84+5LgQagGrFK2bvqdtgeVVwEIhkuV+/xkt69f/tgj9ohi1Ew3B4B8V0XFu+lW65jggiS5s7+h4sNCxvSEYXKAA7nFOZM3Zr71UGBETiHhDJBa7wct1Q/PaG4I+3x2k1KkuRTb7FL6y8vIvrlu3riUHIw6sHaS0aJOJjZizuByLqKKi4umq8eMXvfHGG6U/BIkI33PIIT/s7u6+yBHxcraVYzm8xUCc0xaLveymr+QjYKEQA5MmTJj75qpVRRew2IWyr6/vqlgkwuIln0joJnH7oxTirvZo9AI3F3CeAxsb/ythmk97ciFE3DGtunr+6yMIWIccckiwt7v7l4rov/LZsHTa8f8pokUdaavLkns8uGWm82kCo00g58BX7AKdfyeUTRpXcRUBXUAI49A+dTAjXtlxrxIA+HNTyu9+/6zuzcV+vr4fwKL7wVfjD5yvFNyMAgy7AZxkC1gKLED4jQXyfH0qYWE9hgUsn5SrMS1guUn7pIAVKC9fcuZZZ/14rApYCLAVLWthZAwKWH7HAsvNjrKbDjQkTzrMHeLz0Xj8xCJNeHgR/6iZTJ7ppjyjY4GF10YiMbbAGk48FY2Njeco07xaEdW5XPwMVs+ZOKaEECxcnBmLxfS3yU3j58gzGgIWLzCFlC+mUqkvd3V19RZY7LSAZZp/Ukq5F7CUOjHW2aktsAqEP8zl2QLWh12Oo2yRkiwzjNPXtbWxxcRYWAhiQ339vUqpxW4FLLtvI94SjcfDADx3zjv5Gurrr7GUutzr2OjmibYLm5SPVkWj564CSLq5Zg95sL6+/gMIcJ+yrNmI6CbwNbfznxDxi7msf5l5fX39J1Gp3yqAKpccSEjZPXnKlFNPOeWUF0bDAp3LOXv27MM3dHX9NDEwcLBLDoyTD3W5vqam5sbXXnvNzCVi5SNgCSEGJk6ePPfNN98suoA1Z84c2d7efnwsGn2SlPK77ENsHcfxaJbF4vGFbt/zAxobP5pMC1huD+8BgbijurZ6/uuv79ECC2dWV1f2lJVdYSl1ARAF3L7jWfXkuuwAIa6MRqN84je3oU6awLuWwKgKWGztc8WyysOkUr8kAQenhZNMEdLrDgR83bTwxJvO6e1617ZKiSvO7XDBz6BqQjLwOAKcCAhylxMg7VhYsJ2UuPj6hb3LSlyc/fr2TVOn1qUM4539XsCqqLjs8MMPv2358uW8EBhzFlhjXsCyrJPB3YQ8n/eFdyE3lQtx9NpodG0R2ocX8Y+ZySSfmJUzjYqAhXhtJDasgIXTp08/2EwkHraIjna5MNmlXtyhBeIq6fN9vq2trbUIDHNyezdkmNHU9JGBVMr1aU/O6YK5AwRlz/oBeOIfM3y+r7a1tf3d7SJmOLGEBSzTNP8blDrEzSLEtsDSAlYpu3NGwPoFAcxyI2DZgrTAZJnh+/q6tja2yh0LAhYHzr6ELOtmImILEzfzcxawlvcnk+ds2rSJ3YnyStXV1eP8fv9DoNSpLp+bjpqa/ta7KicK8dKO7u5Td+zYsSWvQgKwhdQJQPSAHSeMD37KnVhgujcSjV7sJvZTKBhcQkQ3u60XEUFZefmrBx188LHPP/88h9wo6dwnU91wOCx+8bOf/bi7u5vjKLnhzwUjKcQbFtHx8XicN2BGLKsjYD3L1mi5MadzsIA1ZfLkuf+vBAIW3//ET3/6/f9atervSqmA23ozHgXwy3g8zhturkSfvAQsKXfUTps2/9XXX9+jC2FTKHSipdSvFFFlnnMQjnn3hN+yLljb1cWWfqPS19y2vc6nCYw2AVcDX7EKFf7p5PGpxMAdiPR1RPCl3dcGv4EKkLqQ4GLR3r9cx70qFvVh7kOAVy2rfB+SeowQDttFwOJLeMwneHWbP3DcXWds2VHi0uyvt8epU6fWlhnGv/d3F8LyQOCKWbNm3bq/CVgNweDnFcCjJXchtKyT3e6kKiKOfZJ+S90lnujwDvgjHHjcxU50rruKpsbGx8xU6vRcGfnvoyFgEWI4FouxC+Fuk7qpU6dWVZSX32YpdTqkT65yy82unmN9tckQ4rK2aPQRPXF00+ru8hzY1HR0IpXine6cx5U7p4klpJSpZCIxzlm3uWlLnmkkEOCBRCp1xcaNG3vclW6PuWwLLNM0XwKlDnbTl1jAAqVOiHZ2sutOzqRjYOVENDQDNkybdgBJ6VrA4ncYEZNlPt9pa9vaOC7iWBCwsCkUOsFS6mGlVI3LBTqPd//wmWUnt25s7fRMLn2BfTCBmUj8zmUMMY4rxSJUwokl6Oax/A7+R1rWCe1dXevzHUMb6uu/QUQco8qNwGeHM0ApL4xG/z971wFdR3G1753d19RswLKkV1Rs2ZQQUkgjjZ4QahKw6QabFhIgBEJCR4ApAYc/EAKBgIHQawgEEkKKgVBSSKimCVl6TXLBTZZe25n7n7tvZSRZ0pt9kmzZfnMOx9hvdnbmzuyUb7773fivdN4ZDgYZTD9A57t2FmBVUVl59bvvv6+tr6RjLJ08O++884FrV69+WFqWjynWGs9wH0gTYPeOfFTWEVPRAFZ19ZzXXnttzBlYXNnvfe97jU888cT/QKlJmt+HbRpS6oFEV5c2gNUUiXwtJ+XvXTGwGMCqq5v773//ezCAhcFgcCYCXENKHaRb7/6dw3soIUQcDePQWCz2n0J9V/q9ZIGtwQI6k97Y2IEBk9sDXwYBfwCESQOiDubPHJIAbkybqQsWHAu9Je2lsTH7SKWwmP7MnrKTBNG1AFDBeftOfzznE7tzEp5hit67W+YChx8uJXcW2GoArLJA4KLP7LrrNRMawEI8IZZMutLA2hgAljcf+ekQXQaWx+PpyeVyDMTwDbTuHM6Mg7gl1X5dXV2jFbMWDZHI3ZZlHaXzOWwkAOuSRCLRd3Pev1qiMRI52JLybiIqd2EvuwyH8cM317egYVwQjUZX6xyEdOxSygPgFsDyejwdAb//9bXd3fsRgFf3JptdrQwhFgvTnN3R0cHjv9hkA1jSsv5ObgAsIb4Vj8dLAFaxVh/5ueIBLCGO/DAenygAlmiONDelVeoxJeUndQ66tsYhwBIS4tBEIvFakebFhmDw0xbAY0TUUOib4neahrGIEKMk5XEslF5oXnXm0eVewze7Pd7+j2Ijp0VCoQVKqbM128lA2xoD4JiORIJF7kdkrNgBRIT4LxGFCtnAeT8ZprmmvKJi9jvvvPOsZp3GKhvuvPPO01K9vb9N9fbupjNWHNAWieiCRGcnu9uPmIoFsKZWV895dfwArNATTzzxBii1jcs2/zbR2TlPd9w5ABZfrOhqn3K027V1tbXz/vmf/7Cm3vqxxoEHEOEyJdVJRFSlObbW942jvbnSNIyWjpLrYKFhW/p9K7KA7uFn1CZpuQP8CgLXKILTuTBH9QoA7cWP70kWg4JjjXjv62PMvsKWFsCWS4BaLs3/WQLHPu7O828pqzM8cBcB7dN/Ys1HjrFBrCRIue/8k7Kj2fSPevxspgXYAJY370JYWWiT17cp2hyjEAb8/ks++7nPXb3FAViRyEFKqTtBKd2NjHsRdwfA0mFg8XdZU1v79MoVK3bKWVajiwmcJ9oMR2OKx+O3j5JxwADWPZZlcSjvgskBsG5FwzirEPur2CiEhDgUgIW1jY0NZjZ7lyL6mtuNo70sAUiB2GYizm5PJF4vdAgqaIxShgEWcANgse0Nw2j1+/3Xp9Lps6SU09yMf44UJhBPjSYS9+u4Ew3TVX0MrEUOA6tgj7KwMSDuF4/HnyuYGQBKDCwdKw3IUyyAlTEN48j2WOyJUc6Hris83APNzc2+dCr1GLuc6hTaJ85tIB4fTSSeKnZ+CoVCB5JSHCGwQsM1jxnAdyLiK4roFhcAVo9hmmf4fL77ig2AEQ4GHyeAg4FY5WLk5NjmPdPjOaqjo4Pn7pFYdhgJBg9RAPZFh85awe0O+P2vlFdVHf3GG28wq2yjpj122qmiy7Iu6O7uPofYw13nMitP1Hqitq7usEI6WKFQKIwAfySlXLkQjieANW/evOAzzzzzJknpCsBCIX4Vi8dP0+2gpkjk6w4DS2vfxwclwzTXBkOhea+88spjedktOxn19fV7Ssu6jYjqtfqoXyX7XaDdHZs06WRYvLhY/TjdppfylSyw2Vig4CIwJi0hwIvv9O1DIG4BgMaP2VfEUy4B4VoEurTXTN26YA6MVmQ1X2UCnPUwiNrstuXlud5tkVSZz0ALej2r15WX9yxoW5qClglBGx8TExdbSEsLCBkJHAYCfk0AkwcIuucLzSHCxUZHakFLi57/eLF12QKfYwCrzu/1Luabl80FwDIQH7Usaw/d/uBDfsDvvzTS0HDVokWLZLGbaN33FROF0NbAKoaBtREALK/Hc7eyLD0GFiJM2W67/1u7dm1FJps90c2GiFkoCPA7w+M5KRqNrtK19xD5JhSABYg5GALA2nXXXT0rurqulkQ/ICIWfXW13jkRHLsMw5jv8fluL/bQNQo7b/GPTp8+/cuZVErLhZDnFWEYH5RXVJySTqVOymazR2gcttfb0GFh3a0Azh6FCD/rLdUpKf8OROxCWDCVAKyCJhptBtZGmq6kvB8BPqujgeWwUSYcgMV1j4RC1yqis8C52y1gHD4oZxHgp/HOzht1GSaDywyHwz8kKa9z5shC86Q0TfNSUOovllIvOmUVeoazSSHEz9LZ7FXFuPHyfN7V2fkKEHEf6yR2mftrJps9bsWKFckCD4hIXd0CBfYFu6GzVvC+p6ysbGHY5ztr0eLFo3FL1mnLBnnYHul0er+1q1bdI5Wq1GEkOaL/70iiAzo7OztGenHRAFZt7ZxXX311fFwI58wJPfnXv77hBsDKx7DBq+PJ5Hm6hg6Hw7uDUuxCOEnnGQawTNNcG66vn/fSSy/1MbDYdTAihFhISn2d3V7d7Nf4vQ4I+18UYm48Hn9rvPfWOm0t5SlZYKJYQGfRGXVdf/QQBMq7A7cAwhGIYLL6wHrtRyRCwpcl0BFXzEvFRv0yAGDXuE+kAyGZE3uRUHsBwY4AyO4jFij6CAW8JQmf9vp6X3z799Dz8MPAh+6tNrXcAZMtCPwaCL6LAJ5BfHC+tfonmXT0/DnpjX7LtJl3CkamTKmjIgAsXyAwq7W1lW9UN+rYDIfD2xYDYPl9vsvrGxuvmKgAFgCsEkUAWOFw+BAiWjieDCyvx3OPsqyDdV0It5k06cpUOv1GJptdSERlut+ILUQuRBsgnqDrzjRM2aIhErrXstQROu9mBhYh3mpsXAaW0RAOHyKlvJYAmnQOJBu0hSgnPJ57K9Pp0xePTjdJx0xbZZ7p06d/JZNK8UGhoAZWH4AVKCubncvlPpnNZG4DF8CkDUgK0UYAHEWSxdyLEcG1ASySchERzdDptBKApWOlUeXZkgAsbssJpNRvNAEsGxhCw7hTKXVGMplMuRzXtghtOBS6hZQ6SWOetPUUhWkeK6V8EQFehfy3qyWobhjGo8I0T29vb+cgTa6+v+nTpzdn0ulnlJRNmmANf++/6ent/cmqVavWjDTCGhsbJ8ts9mGp1N46ZXNZzOisqqw8d2pd3U2LFi3SEgcf1Sjf8GH85Cc/2bRm9eo/W5bFbFSd8xyDemsI4MBkMtkHPg5ZreZQKJwm+hMRfUK33iziXhcKzfnXv/41LgDWj3/846b777//fyRllWY/8Rjj/ce5yWRygW47xgjA8taHw6dKpX7mZp3qq6PjOthrCPH9aG3t/fDqqznd+pfylSywNVhAZ8IbtR1a7irfRUr1JCBEPgavnGIR1xKpq+fPS7MA7+gTa23dHfgCWfALAPicHWFvULgU52KrVwD9Nmd4LvIt6V41xm6Lo2/HRi7hojv8XwPCBwhgfYh5tpMDNXYTwPlXzEvxDV8p6VuAN6NBkHIxAWi7EKIQOf8mBLBMxEdzLhlYfp9vfn1j4/wSgMWMUuo0vN59o9Ho4kJDpaamptwGsKQ8WPMQAJMqKy9VQtyZWrfuMUvKXdxoYRFAyhDiuukzZrSMYtPNLIF7ldIHsECIW4QQZ4+TC2EWhLgkHo//zDkUcTh01jF5Eog+QUSeQv0w+HciYtH7/3gN4wcfRqP/dXvYcvu+rTW/WwALhfgAhTjU7/f3Znp7/2pJGUFEe43XSHx4ywrDuC4Wi11SpBthCcDSMPRGzlIUgMXC/sIwjojFYk9OFBdCthsfnknKv+gygbjuQojXFMA3EokEi6u7Aob4naFQ6EVQ6ssF+s0uFxFXgxDfEkK8T0r+UVryC7pgghDiLUI8NB6Pt7qtJ7v4EcDtRLStBtDGVWUB959WVVVdv7iA61UoFJopEB+TlrWjjis/Fy4MY9W222135Ouvv/7MRh7v61938MEHV775+uuPZbPZvXT3D4iYUwDfSyaTd4zUB9ODwUiGXQhdAljhUGjOy+MDYOF3vvnNXf7z1lsvSyn9OmOO3TztIBpCnJI46aR7oaVFK1hDuLZ2dxLweyDUZ2AZRnfDtGnzXnjhBWZgQWNj4+dzudzDoFRYc7wOHkYWCvGEPxCY29rayhFGXX/Xm2pclt5bssDGsMC4A1gtD4FXrgtcDgCnAWIg7z64XiqcXVpeERJPbTmp543RNrjl72DKJf6vAIpfOpMuB+tidufAdrLbYn5GyQHhXw20zmo5Pvve1qyNdfwd4I9A2c1ANIdYoMyOEMkRxOxeUSjwz0Z5+ayW2aOK4DTaLt7cnt8sASy+JbWyWVcuhD6v98ptp0y5vJCuwlh04MZ0IWwIh78tiW6ncdTAcgtgVVZWXprOZq8GUOflstbZjmaHrmn5y345Z1nfXbZs2bIiN0UMYN2nlDpc56W2BhaLoI8/gHUNz1U77bRTRU9Pz5lWNnsJARiaN9Prm+LQ9lPCMI6aaIdbHXtvTnlmzpz51d516x7XZWAh4vvCNA/1er2tUsprspnMqaAXkazPLKzf86oEODSZTEaLsFWfC+FzQNSs8zwzsFCIb8Zised18pc0sHSsNCDPlgRg8fj6BCn5DCmq0zz48py+ThF9spBb2BCW5QiEk6xs9m2ikd/XT4/nNUI8oqqqqmPt6tV3D855yQAAIABJREFUEhEzcfXOEojrUKm9411d/3LZy0Y4HD6HpGTg2af1PsSMKcSRHfE4R4UbMQWDwa8iwCNANFWrbBay93gWV5WVHfnmu+++Waj88fqd8ZnpTU03ZzKZEx3AU+dVEhEXxJPJc0fK7ABYzMDaSadQziMMIx0OBscFwJo1a5YR7+jYJ55IPKGU4kspnTHHYmndJMR3EonE33X3O6Ha2j0B4HeA7gCsadOmzVv0wguPTZkypTzg9z8oLWtf54JFp67r1yjb1VOIfxtEZ3ckky/r1lu3n0r5ShbYEizg5qMqqr0td/gbFeHvFMAuCCj6XAcJgRy9pYuW5np/duspMGp65EV3eD9JZPwaAL5kq8Q7wNWQjXRALFJ2rvtMb+oHLcfA2qIauSU8xDpld/n3IiUeIaBJfOhbL8EguK9wKQB924imXi1pYWl3+FYDYHm83qunTJly6RYHYDU0fFvmcnzrqyXmaW80xpmBFSgvv7S1tfXy5sbGz6dzOY5gOF0XpHHAmY8M05xbUVHx50I308OMdAaw7ldKzdb5EjYygAWNkci+llI3klJaAMMGbciLfd+RymTOXbFiBWublG4+dTq6iDzFAljRaPTt5ubmz2RSqaekUrW649/pyx5DiNOiicTdRTBv+gCs54Fouk6TbQBLqW/GOjtLAJaOwdznKRbAYjbe7Fgs9ocixoH7Wmo+0dDQUGflck8R0ad1xrXjagSGx/O1aDQ6olvYUADWtEhk14yUfyNSFZi/txwu8ZaQDIGPKsBTme0VCoUuBKXO1waVGHUwDGZg2SwVzYTbb799Re+6dddLpY5FAFPjOWbeLAUhvh2Px/9ZKH8kGDxCEd0GAOySX+hcxOsBeX2+Zyurqk5844034oXKH8/fZ0yffk46k7lQSck6qzqJAc9HEsnkMayfNtwDRQNYkcicl19+ecxdCDnAQUVZ2dkrVqxoYT0pjX7ipnFbEwSwbzKZfFfHOJzHLYCliMBjGN3TZsyY193d/fSyZcuOI8u62oXnxfqqOXu05aYQ53fE478tkims29RSvpIFNlsLFJqoR9WwWbPA2PFbZQcqovtQ9LGvnCLz4u3rwKDdL5/T+9po2U+nPw2+SV2BKwDgh7zADRXY9+PG2i/v1zbqJmWcfsWJPXeNqsGb88ME+LOFUyrWQc9dgPCd/vqhKJDNJQlhfkW57xfnzh5ZT2BzNsMY1300ANZhra2tHPp542tguWNg8VCRPtO8ZtupU1smKoBVrAZWQ0PDdxwAS4tKXhSA5fXeKy3rIF1Bap/P19LW3n7ZTtXV5ev8/tstyzpM99n8jg4sYRi8wTwtHo+zy4nbJEKh0P3gDsD6NQrx43FyIcw5UQh/1tzcXJHNZO62LOvAfCDVgoeRAW13bj7/BYjHOm4ubm1Tyu/CAjNnzvxaT3f375iBhSOene1C+TDyvmGahzKA1djY6FdK3mXlrFku+5kZgf/yBwLfbG1tdX1pxeHlSSlmYLkBsL4R6+x8Qcc0JQaWjpUG5OF1tllJeR8AfFZzLmSAI+sxjNlLJhiAVV1dXRHweu9QRKy/WPCg3gdggRDHJxIJPvC6SqFQ6DhQ6naNSHa2zQjx2kAgML+1tTUXCoUOBaKb2a1P8xtkXaofxxIJFozXTgzqSSnvV9L6KoKWyzAzbxZLABYrZ6blSJcQIhwMMpP5UgAIFKpUHxPN5/cvbGho+NGiRYs2uoB7/zp+YocdDu1et+4GS8qgzoHO1sJEfIEQj0okEsOCb8UAWIYQ6fqmpjn/+Mc/xhzA2uPTn568tLf392vWrv2qrpuno+f7D0upQ5cuXcqMc63EABYCPE6IuqAgGEJ0N2+//QkdH36YyORyDygi7g9d9/a+etkgsWkYvzK93ova2tpG1G7TakwpU8kCW6gFdOa7opvecg9UyUzgUkA8I8+I6gt9a9Of+GB+TyWVnf7TeSvWjRbAuvA3FTuiIf9MCKH17m/9tK/6GpFvcB7Asl3k8j8wD+sPaU/qqDGLgli01Tbpg3jBbf5jUODtQOBhA/XZyzHZGxZYR101L1tQ22eTtmLivHyrAbBMw1hQXVNz8RYGYHEI5O+ofAjkCQdg8TBvamo6NptO38Ri7jqaEPwMU8QEijVoGN+IxWL/KYJhxADWA6DULJ1PjRlYQoibQYhzxhXAmjTp502p1E+zmcxPdEOh96+/E3UwiQAXx5JJvszYqOCxji23tDwzZsz4eu+6dY/pAli2C6FSh0a7ut7mc9i0aQ1HZlLZW1yNfyI+RKcMj2ffjo6Ol9za1AawpGQ21TSdZ5mBJZX6RmcJwNIxVzF5igKwHA2swycaA4uZJtl0+jxFdKZSqkoDGOoDZ65MdHa22MGKNFM4HA4g0XxF9CNHL2LYM4HDDFkNiD9MJBL38/zYFArtklXqcQBo0GTEsIbWr+LJ5BluWG91dXU7CsSngUjrPazzBIjP+lOpI1tXriwEUotwKHQdEH1fUy/R1lXyeDxXbDtlyjWvbmJx7ZkzZ34hnUrdKS1rex0dLAfAWpyT8oSlS5dyMIsh0/Tp0yPZTOZPSkptF0Ke66Y3Nc15bhwArN122+0LyUTiCSuX03XztM93AvE3OSl/tHTpUu0I9zaAhfg4AWgBWPwejkIYDIXOjUWjXySiox3wytUZm7U3hRAfKoBDksnke0XszTS//FK2kgU2fwu4+rjcNrfljsodJMmFgPClPHjlvI7xIwUfoQHHX3Zc79OjBa+4Xhcu9J0CJG4EAUZ/18H1alvrK9/X5Pwv/SLufWigPHBr18K68BbfdDDFU4AwMy+C1YdhIWuJKQF09GVzUw+NRZ+5HU+bYf7NE8BCfNTSF3FnnUxpCrGguq5uiwOwmurrv2NJeRsfJDQ36O5dCL3e+6RlHajJHACPx3NJezTKuoK0/fbbB3u6u/+slPqEBoOl7xOyXSAMIc6OJhIcmEH7wOMUIELB0ANEipkvhVNeA2s8AaysYRiXmV7v37Pp9B+klJN0b2gHVB4xJwxjQSaTuX7ZsmUcJauUxtkCO86Y8fW1xQNYDOA2WLncw9KyPu92/COPGdP8WXt7e9pNM0sAlhtrbZS8WxSAxVpG9aHQoQrgF6RUrca6Y8/nQohHhGme2dHR0aV58LWDXRiIt0kpv1HoPfZeGTHBQRTi8ThrWFFjdXVtzuN5FIh2K/R830gwDONpf1nZce+///4K3dHREArtJYkecVz5dZadXiHEr32BwPmtra2ZAu/xhoLBu4HoMB0AiMsSQqzx+v1nfPjhh8z6c7t+6jZbK9/OO+88vbu7+zdWNvt1TR0sBuC6JNEPOjs7h9UHswEsjvqo1I5aFeEBME4A1qxZs7zvv/vuT5evWHEB5jXQ9BIzBgHOSiaTN7sBTEM1NXuREL9DXQCLCAzD6K2sqnpu1cqVXxJCsOSEzjjt3w7+xJYZQpwYTSTY+0JLcF7PEKVcJQtseRZw+4HpW4AAL1gY+LZAvBOQKtcDITatx45v95IB3gNb5q5erV/o8DkvWhi4nghOsxegQa3qx7SyiWB9vKt+4BUXnESiY96pTD//8Oyt9+a95RYok6Ytun9GHgzs59dh65bhDV25nnPGQrNsLPp9gpexWQJYLqMQ2gCWEGJBzUQGsBBXCcM4IRaL8W2xbjKam5q+m8lmfzOeAJbPAbB0N8+Gx3NJ1AGw+Jn6+vpzZC53tW6jnHwKEV9By5oTW7bsQ5fPilBd3YOAcJiWOlQewLoJhPjJeDCwgCgXqKi4NZvJRKxc7mBEHDS1F24dM4INxPfBMA6KxWJu7VH4BaUcQ1qgubl591RPz6NuGFjsDtKVZ2BxpCe/UupHlmVd4Yg2au1p2FUUEf+JQsxx6yoaCoXCpNTzCNCk060oREoRfSOZTP5DJ3/JhVDHSgPybGkAFjQ0NHxWWta9pBSzagqOaXsNNoz/SqW+19nZ+T9NAIujD34aAH4PSkUKvceJ6PY/EOKQPtez7adMqezxem9WecZJwcRsXMMw3lMARyYSCQ7cpKUvGAqF5gCpm4FsF79Cr2JX4zWmEOd0xOO3F3pHKBTaDokeIiKO5FcwOaye5QGf7+gPliz52yZm6uKXd9mletnatf/Xm07PRkQ9fTCAboV4UTKZvMmp/wb9UCyANbO5ec7fnntuTF0IDzjggF3ffeedO9Kp1Cd090lORy5Fgw6Px7uYMas11vi5mpqavY08gMXRw7WSw+AmpXhpsYdooXG6vlyH3cgXaMymP7/QPkmrQqVMJQts4RbQ/sDc2uGWW8AT9wTmA8BZwGGuB0YCzBHAgvcqei8aK7Dootv9NxPiKTY81q+y/cErnk/yDR5yHusiFHPfK+95dqzq5NZmEyF/SwsIq75sfwS4BRDq+votfyIkO2qkx6RjLjo23V5iYRXssa0CwOINEAIsqOnsvPjV/G2k9kahoAWHyFBUFELEVVgEgNXU1HSolc3eOqEALMO4JBqP2wwsNk8kEtmZLOtFBVCp4W7ysUURewXiD2KJxJ0u+4FdCB8CpQ7VfE4R4k1inAAsPhT5ywJL06k0s+TKXNkgb0SOTNdFiCclamv/DJvYJUTTpltEttECWHyYaQgGvyQBHlVENbp97xxCPxKIZ0Vd6gY5ANYLCNCo0wklAEvHSqPKUzyABXB4LJmcUCLubAkeYwLxHiUls2p09umEQnQJgJOjiQS3RyuFw+HvgFL3ElFh7ScGn4R4qiedPmblx255ZiQUapFKna/57fHpfp1APNpFPY1QKHQuKXWZJkuZ39EBQsyNx+PPFTLEjBkzpqV6ex8gpT5fKG/f6UEI0ekPBA5obW19fVMzZXbdddey1R99dGVvOn2a4LNW4cTTHzPUbpBE85PJZO9Qj0ybNq0+xy6ELhlYYwlgceRBn8839bX//e//Vq1c+W0nWEDhFuZzKBDieSKak0wmY7oPcT4HwHocASrcPFdsXhvYFeJlw+s9rb29ncfUuO6hi61n6bmSBSaSBXQWxqLq+9OHYJJ3XeAxAtgzT7pymDx5+alOIjh1/gm9TxRV+BAPXXB74CpEOIf9ju0v3/n8+a0fX8f3wVn5Pwdd08cVwZHvV6Ze3poBLDZdy28D9VLCXQC4ex7AWj+XKgCxDpGOuWxu75Nj1XdbcDlbD4CFOKEZWDhBAaxgMFhmGsYD7EKodVBBZLHQAQBWTU1Nucc0HySib4CG6G+/7403+r+vqas73KWOBzOwHgIALQCL2S4wngDWoAnEzaLG/p6IIiMQfz19xoxzFi1atEndQbbguXDIpjU3N++R6ulh1yAtEXfWwOrPwOJCmUEhEBlkPoCIvJoHaVuHUwhxXzqT+cGKFSu6dW1fJIDFUbC0IsQVzcCqqLiutbX1PN12jHG+TXngKhrAMgBmR5PJpzY1CDG4L5hZKHO5O5RSh2utC/kCegTiT2J5Vo1Wqg+Hz1VEl5FSnkIP2Lq1iDcnk8kz+7OOwnV1JxLiL4HIX6iMvp25GyH3xsbGycwwVkqdolE+f9cMBvwHLevI6NKlbYWeaWxs/DSz3XS1nnjNMIToKKuo3Ou9995bUqj88f69BUDc3dR0fm8q1aINYCFy9MH7e1OpM1etGjooU7EA1o7bbz/n2b/9rVgGVt/yjSeffLIRj8c/1ZlInLFi+fJDpVIBXZ1Px+Y9IMSViUTi5wBQyI10QDfV1NTs4zCwNgaAxYzBFV7TPC0QjT6+eITIkOM9lkrllyywOVnAzV5fv10EeOFtFTugKZ8iwsb8htKBi1jKXdELINSJ8+dmPtAvdOSc598emC0Q7kEATx+ANRC8Gvh8f/Aq///4joFq/5a56faxqtPmWg67EVqewHwBeDohOW6E/fqP6Jr581Lnbq7t24j13iwBLMOlBtaWzMBqbmo6NDOODCwGsAwHwNI5ePM9gDkIwGIWSlN9/QHZXG4hAWynU47zDTCwFCcAdm9iwVDdVAyA9SshxE8LUeNra2urDUSO1sauM+OebPaVEH9jV7JYLJYc9xeWXjDAAg6AxS6E22poWLF2ywYAluNGe7TM5a4FADcCv1zeB4B4eCKR0L71ZgALlGIwql6nO20GVi63T3LZMi3B+GIALCKy/GVlC9ra2s7XqdMQeQaS1YcuZHAenWeKrI6rx7Y4AItbHw6Hrwalfkh6wBDrU2UQ4JexZPIcTeuJUDC4EIiO1XHLQkRm6pwXTyZv6F9+JBL5ppLyt0RUrbn2kGEYt0Xj8ZN16llTUzPNY5o3KKXYM6DQmcXe/gvExysnTz5i8eLFDNSMmOqDwa8QwD2KSItR6bh7vefxevdsb29nvbFNnhobG0/OZrO/RCKvRmXYRqyv9AwIMSeRSHw01DOsL5jLZv9ESu2gUaadhTWwdtxppznPPvtssQAWEBEeeeSRdYlE4vAVy5adsnrVqhnCMLjfC/X9+mo6em3vyry7ueugU8Gamn0g70I4rgCW45abFkLckc5mf7p8+fJNGtFSt59L+UoWmAgW0J4QXFYWL1hYdrAAugcQy/u7D/ItDhLcYgjvBWOlf8V1u2BhIIJATwMgR8wQA6XaN5z5BrGvLCC8p7qn93tnnOEOqXdpl80lO150R/mRHB4ZbBHDwZIy9Nxlc1N7oh1MspRGsMBWA2AJIa6dWlt7CUchZLX/QYfR9bdqQ9lq1qxZ8PDDg/Y7s2bBUCHuOF9DTU29JQRrT2htOPnWt1gG1vTp0w/LpFK3KiJd97y8iDt49412RQtunNwCWDAEA4ttOn369KmZdPo+pdTeLid1diW4OGtZv3YRpceVC6HDwLpRCHHuRAKwnIPIchNxXkci8cymFuPdCmdSnD59+h7p3l5mYI0GwGI32iAo9aBU6isah9w+U9uuNCzm7vf7r9cQe7afCwaDEQR4EYhYN6hgclwI90kmk+MJYCmfz/eKLxD4KygFSil7bbZVgJUi/lPwvwPY/28nxfh1XnGB/02p9b+QXUa/lonBFCXOK0RfGWtyUj7oJkx9QaO5y7BFAliRSORUkvJSBoZ0zOHMZw8nksmjdHSZ+LLANIyHlJS76zBbEPEjNIyjY7EYz5XrE7uwq1zud4A4XRNk4PX4hXgyuYeGqxT37edBKY40+qlC5duMWrAvea7qSCQu0LFbKBTaG5W6hwBYML9gYjt7PJ7/VVRW7vv222+vLPjARsgwc+bMw3vXrVvouILqbQEQX0lnMod99NFHiaGqWBSAhZhpamq6LJ3NLjIMA8k0kal9ppmX5uI/+d/5/8vKygT/3ev1mvxfd3d3+dtvv12by2Y/o6T8ai6Xa5RS+nTGZv/6c/8wTQKEuCmZTJ4NADm3XTB16tR9PYbBAvflbp/VzW/Xky/QAP6T9fsPXrZkSSlwjK7xSvlKFii0GBRrodNvAN82FYErCOCHACwq6Cgo5XWUOLztGe+W9y58eDYUvB3RrUPL38GU7YEzgOByIiiz2VcsFT/AhTBf2gA4hhlhBHGB6oTL5mae1X3flp7votvKPgOCHgTAGQPaagu5Q4cl8UtXntRTmnBHHghbA4DFFpAEsNAAuBVMEw3DEIZhGEopwyAShs/H5x8UShl8u8ZR7Pkhyw7nwNFJAaSUeUtKaUdQYCEH/tOy8h5dvNHp+38DYAogXsNSBZrf4SYAsGDfqMbNHwNYQogHlZQHaB28hwGw2ESRUIhDr18A+VtYvU0si1kDvIimOdeFeLkrAIvPvoQ40QAsXgZ6DMP4ldfvv7K1tbVQqHXNoVbK5sICDGDtme7tZQFlLRdCQHzfuVW3Rdz7Jayvr79K5nLs3qQdpYrBVSHEPwlgdiKR4INcwUuZCQhgfWyGfjFXdPrBEb4v3OihCuvbZAFELaUOXLp06Zs67xyHPEUDWNzvyQnoQsg2agiH95dK3UBE03Tmc0fX7XnD4zmio6Ojs5Cdw+HwLqDU/UqpHXSitiLAEjCMb8bj8QGeE9XV1bU+j4e/4a8Veqez/2bWa6vX5/t8W1sbz7sjfXPct98lpa5zAOMR17U+AMtjmke3x2L369QnFAodAER3AtEUnfwMPHi93n9WVlXt/+abb67SeWa888ycOXP/3nXrHiAiZgxprf0EsBiF+E4ikXh/qPoxgCWz2WdkPpCAVrL1KAOBXkMIi8cUM8Z5X2PTpwbPTc5v/JOUUkilPJlMxiSl7EOZc/Go1Zb+lbNZTUJECeAo3UuDwY3bWACWQEwYQvy0Ix7nsVpw7dHqhFKmkgW2Egu4nhx07NJyx+TJFmX+ioCf4mjtffNpntYJq1CqWZedmP6rTllu8lxwVyAkJPySAFhPhiH/9aEg1s8MfegVAzE8YxBYCHSVEU1f2tJSClvaZ++r7p20TSqTe5CA9s3/W5/8vX3DtQoEHXz5camXSkLuI47QrQXA4pV3LbLOAKLBOgzE0UCdgeNsjnkA2f/mBFqwB1QfgGVvWPKblr6nBv69n5mdT1gn2k7fUzaAZRrGCe0uoxBOnz59ViaVusU9A0sPwLL1qzyeB3QBLGcTeEk8mVwv4t5nsYZgcDeZd4VocjOxI+IaEOKEeDz+mOYmigGsh0Gp72rNzxyF0DB+CYjnTRAGlu1CIRBf9Cl1WGtXF4dzL20etTpzTDPhzGnT9upJpVi/bbQAFjTV1++bk3IhKRXUcYnq1xJler0Hd3R0sBZSweQAWC8BUbhg5rxbTYoA9k4kEi/r5C/ChXD9PKdT/hjn4ammw1LqoE0NYIGU9ymAz2oKfTNNODORASyOEIhENygiZhX2racjdR8f3N9GKefFurr+XaifbeBGqTuAL4QKgx4cSfYFsW7dd6Jr1gwAbaZMmVLp93pvJiJmfhVcehzQeCkK8Y1YLMZA9IgAViQUOosvZohossYlD6/1a4Vp7h2NRl8tZAP+PVhTczgg/gYRdSPOkc/vf6lq0qQDX3vttTGJoq5Tz5HyfPoTn/jKyjVr/iClnKTZBwwiLslks4ctX778taH6wGFgPeNEwtSuIoOI+X3e+qHQ52rct+cbPF99nNFhhOq0YZgKsagll/ezZDLJ7tT9iaTabZg6deo3TCEeQ/YgGofksK8ATXN+7dSpl7vUIB2HGpWKLFlg87NAwcWmmCZd+Ft/E1q4GBB87LzDZTgrFING7xpofbdlbvbdYsoe6RmOoJcJVjYLw7oaBeyHCnw2nzg/m+ZTviJ58ArgIwS6xch5rm85pZsPMaXkWKDlDvArCrQQwDm8BR9kmAwgfN9o7P1ty5521LlSGtoCmyeABfCoJSXT+92kwZvQcZlb3FSoX17e06w2hDihIx5nWrhuMqZNm3Z4Np3mMOEuXQj1ASyfx/OAlPIAnU3bCAAW1NfXb6Ms60bnIKHbRs4nEfEmS6nLu7q6lms8WBSAZXo857a3t6dHKn9jaGDxLTEiRg2P56fRaJR9V0vglUanj0MWnDFt2t69qRQzB0YNYLHYs2VZt5GUfcCq1hzEN/aGYdyZtazTddxog8FgPQIwgBXSsQkDWCbAXu2JxCs6+UcBYOkUPx55SgDW2FsVI5FIHSh1lZTyGB2GlD2PIXYZiGdGE4lC8xrvTU5TUl7FblKFPhSH3XVbVTL5gyFEpjlKYAsodaGmGWz2KxIdHu/q+mMhACscDLLm1skcoKFQ+QyOoRAv8RqYTCbjOnN7XV3dMQhwswu9I6qoqnp+l112OeThhx9eU6hOG+P35ubmz2ZSqWeVUtvo7COcyLsJAXBkNB9cYoM1sLGxsdHK5RjAmrkx2jAW77DBUcR3TK/3wPb29g6d/h/qveMMYPF3ygy11wzTPLyjo4N1l0t7kLEYAKUytioLFFq3ijLGxbf79yQUf2MHIQawPnYgZDQc/2r4jaNajho/wOiCG/0NIiBOBqSjiUVdCTx8g+XMEBYg5ADhbUTxKyMz6ZGWU4YOI1tU47eQhxgMVPWBwwnhXkeDv78zpoVIPxee1JUtx0DJ9Wb4Pt+aAKyJPPJ5w7DadA9gmdOmTZu9EQCsB6WU++tsPEcCsPj5UCh0DBLdSkTsRqU7vzPA9zoI8aN4PL5IoyNdAVhEJIVh3DhBAKw8+0qIK32BwBW6ukcaNillcW+BMQWweLxHIpHZSsr7bCkczfHPgKYQIi5M86hoNMo6VSMeJooCsDyevdrb20sAlvsxovOE7UK4pTGwdtppJ+/a1avZLfwSDeYR28lmHxmGca3H51tQYG4T9cHg/0mlTiVE3h+PlJxrXzon0dXFEd02SMFgcK4A+DURseRR4XWHKGeY5jnCNG8Z4VIDa2pqyrymeZ9U6uDCheapP8IwfpnL5c5funQpi84XBAbq6uqOdQAsPbYNIk2eNOkvX9xtt0MXLlyoHb1UZyAXm+dTn/rUzDUrV/4jm8tN0dGMsvXSAJYbiEdHk8m/DPXezQ3AssFLxBgKcVY8Hn+8WPYV28IBsH6HiGXF9skIz/VJWlxRWVl5o06ggXGow+ZUpC1BMkSF7b3cODakbw8x+N3j/d7+TRrc9v7z2Xi0fSRb87sLzqfj2B8bFK2xJrivzsUL/XMJxELbvYxsGAscGCuDSLeJ3tS5LT+A8Y220ALi+2XlUydtQwcYgvYDhAYgyBDgYgPhaYG9z7XMhdW2wHxJjHzITm65K/AFKfG5PJOO17v1w0UCwuOGgjNaTugtRe7awgAsBHhUuWdguZ8oNt4TRQFYe+yxhxmPRg9Pp9M3jRcDq7q6usLn87ELoU6EpT4diaFcCG1rOu5NfwGiZhduVLwo5RDxingyeZlGt4hgMPgIEn1HIy+7iUrDMH5peDznTQAGFrNtXpFE2ppHOm0s5SnKAjhjxox9HO0WLRH3ETSwuAI4LRiMWIiPSaU+q3WQ7qs2IgnDmB+LxS4ptEljAEsAMMtDn4FVArCKGiCaD22RABa3PRQKHUtK3eG4EBbar9tukQLxoZ5U6vSVK1cOe7nYCODPBYMgzE6xAAAgAElEQVSsW3VQoUJtoWkhMgpgViKR+MNQfRIKhfZCItsVWOe7IwDLI8StFsDFw0XB43IaGxtrrGz2SUW0qwaIZ9+VE+IJyWRyoebYgdra2jkG4k26gt0c+GDS5Ml/2n2PPWbfdNNN43uO0WzEDjvs0Nizbt1LSkoWotfoUhvA6kbT5Oi7v9/cASzHJS+NQpyfSCRuHG1AlvEGsGzWuxAvKqLDkskkR4GcUMCA5rAbz2w8hlkK12hsbAxY3d3l0uu1ZUMCiJTNZKQoL++NRqMpR6SfwZyxtKE3GAyalmVVmqbpY6kTO+BJOk2WaWZN0+yePHmytXjxYvZAGg8giZvqmV5Ts43l9xtCCL5ko1QqxX8qv99vtba28twzlu/GmTNn8vy9XkM0lUrxflmZpikty+outH8fzwExVNk6E53rOl20sOxCALrclmy3Z9P146oHBJxfPTV1yxnfguxGAI6wpQWwHcDr9W/jm1y9SpXF7CiDVknvqnC3XniHbwaSwTfS2w44DOeByX8Zyjym5cS1rYVL2mpz2AwsVGoxAyDaGwshcv5A4LDW1tandaIJjaV1w+HwtiUAK2/RPgArlU6zvkeFxgaaH3OiEOq5EDKAFfD5mIH1LZ3xUYCBBXxr37127XVKynm81rsYG3z4+Zsl5SEablTFAFg3EOIFE0ADi3ViXvb56YgPP9RzMXFhw1JWdxbA5qamfVPp9P26UQgLAFj58b9mzWlENJ+I/DrflFNlPqS/RIgHx+PxESOLuQawEFOm17tne3v7P3XMU3Ih1LHSgDxbLIAViUS+piyLgwvpBuaQgPhyzrIOW7Zs2XBBdjAYDIYF4qNKqc/rHALYBd8E2K09mRxS+iMSiUwnpdjdTEtw3gbFEP9sEZ3S2dnJrl5Dnk9qa2t3MoT4o6M3N2JVnSiMyjDN/aLRKGvsah1oQ7W1xwHir9wAWJMnTfrjfgccMHvBggU9rkfrODwQCoW4P59XUnJkZp0u5fW+B4U4ztG+3KBWDQ0NTdKyuE8HBnIah/qPpkg7yjFHGszrmLWMAIhqv6Zu6tRvYl4DazwYWHY9EDErEE+KJhL3bux9vrYhNn5GG7gKBoN1BsBnAXF3RbQzAGznBCdiw0kgYtmLFYT4DlnW34XH8594PM7z3WgkbXhf6yeiHRHxy0D0RcxHVi1jlQHkccbvBkghQLsk4vX8RaXUO7psTzfmnBYOf1IKcZVSiqPQKmaK2/IXeTfphEepc9uSyaibMkfKGwqFtvMIcRMhNjtBFOzzDF9AA1GOEG+Kx+MPTqSxqjPRubLPybeAp8Yb+AUQfP9jcpOjOAW4lgCONqO9f2ppGdVAc1WnUubiLHDewopqE9S/AaHeZtI5dLV8afgBSDry8pN6tYQyi6vBZv8Uu3SFBNHbmw2AVRXeVlTRI1KqPTd763/cgOIZWB0dR6QymZvGE8Dy+XwchfBbOgBZIQCLm1xfX/8VJeVdSqlpOmXaq1T+QLFUmOYx0Wj0bwU2/5s1gAWIOVOIC8urqq4v0fc36Vc+5gAWL0z19fU7KikfV0o1uxn/iLhMGMaZsViMN2nDHn5LANYGY6akgTVOnxGDCFYu9y/QZzaRENhmmJ6DOjo63hmmWgz4fZ6UYgYW67mNdA7IC3IjLs5Mnvyl5YsXD8k4mrbNNpOygcBjRLS7w5woZBGmNLyDhnF8LBb7zzDfm9kQDh8ilbqNiHTEyW0GmlRq1y6NCMB9FQyFQseDUsza0XIhZCbG5EmTnt7vgAMOnygA1s5NTTU9RH/OZDKf1Jzz2FYpQDw+kddL2yBtDgAWH+gBcSUiPiQM44pYLDYmHiEbA8CyvyshXkYhTtYIZlDoe9oSfhc1NTUBjxDfBsQjCOCLQMSabsMFbGLnLokAqwDxn4DI4/ipIgBMnv/Murq6XRDxMCT6NgBwgBaeD4abG20dPwLoEIhPKYAHkskkR+FlgEsLOC/UYZFI5BvEgUmImFQwsB6IKa9pHr4kGmVG7Ji8j6PSkpQvceCCfgDW+moKIa4jxAsLXUIXatdY/j62ABYB/vjumrKAtfZWADyCz0TrK5tn7aw0AL/RMq/3f2Nl9LE0RqmsfhYgwJY7wSeh7B9I8Bllq/EPiIMbRxJzLjth3d9LdhvWAsUDWF7vYa1LlmwCBlbVtgIqt0wAy+M5oaOjQ1vE3WZgdXQcmcpkfjXOANZDSsr9dDaeOgAWsyUjodBCpdQczdtYG8ByIvPdmZPyhwVulNwDWB7P9URUcPHbKCLuHBoX8V00zZOj0eg/SvPXJrMATm9s/GY6k7l3rBhY3BJmMGWDwdulZlQ0p/V8oM6hYfze4/Gc1NbWNqw4czEAlsfn22PJkiX/0rF0iYGlY6UBebZUBhbvH/jw8iQp9UUdl3DnImI1KXVooquL9QyHOtyYkWDwUEV0W4FD2vp1wRDi7lgicdJwDIfm5mZfJpO5WlnW9x22WMFORBacF+I0J7DKBq4wTpmXKCnPZDalxvrIzITWbC739RHYZxvUqxgAa9KkSU9/awIBWM3NzdXSsp7KZDKf07AT26AvCue8ZDJ5/+YIYDE1xOv1rgSiC3vS6XuWL18+Zu6cddXV+6FhMAPLDYu94Jjvn8FhDFqGEHdE4/FTx9gdzFVdJkBmZl2xS/6FQHQ4AvR5rOSduDZMg+c1FEKs9vh8Z7e1td3pwpZctj9UV3cYAvyEiLYHRNbx619+//dvMJ862mtMUljQ2dl5n/PuUYNKkUjkCGVZdxKAt/837ezVyfR4eI9/xlgBSuFw+BhS6u4B0eDzdudPjQzTfACFOC0ajXLk1VG3byzG3JgDWOf9tnJbU8o7CYgZBezD2pdYwD1BUu0+/6T0krGofKmM8bVAy9/BlG1lDwDSwYBo2gSsvkSwggScNH9uL4slltLQFtgsASyAykdoS2RgFQFgxTo6jkpnMhzZb9xcCH1e70NKKW0ASwFckkwmLx9hEcFIMHgQAbBrFm/AdOd53tR+BIj7JhIJDq09XCoKwDIM44JCPvQbA8CyG4WYRoDHqiZPnltiYW2y6XtcACxuTSQSmaukvJqIqjUPdH0sxKQwzUOi0eiwzOISgLXBeCkxsMbnE2Jgzo9EC5RS39MBsJw1gcHYY+N5YGKDg0ZNTU25z+P5iVTqXBZd12BgSTSM78Xj8TtGOBhiJBQ6Til1Mx8IdcyBPAcjnh9LJK4fqtxgMFgmiB4jgH2cthdyIbQMw3hoXU/P91etWsX6X1qHrGIArInmQjgzGJySNYwnc5bFQKfOes9rfY4A5iaTST50b5Dq6+unKSnZhZD1NCdcklJCWXn5vwhgzpIlS1jKhNkvY5I2BoDlVJS/1S5hmsdGo1EmA4ylptGY2GIjFCJqa2s/ZwhxFQJ8jYj6GFc643h99VCInNfnO7etrY3nE52xgNXV1eUej+cHDF45bC97d+iyzX3i5isA4Bcen+/m9vZ2vgDTmn+GeJftshaJRM5SlrVgiPrY5bLHBAnxuXg8nnBZ38HZbbfNUCh0PSjFFxAbJGY6Gqb5vI/o2NZEgt9XbNtGWdWBj7vtqJFfzqydX1dUS7+N4u01iPrHH2ZbRsKe15yU4vC2pTTBLbBHC5hfawhcC4Tfywu5f/xhc7QbifL7VxyfZv/tUhraApsngEWVj5DaslwIWcPDKALASsZiR/WmUjeq8QSwPJ6HFdE3dQ7azMDSAbAaGhpqpWXdy2L8OlGJ+jZTHG+D3aji8fgvR9hMFQNg/cIwjAsnCoBlMxWE6PIaxsn+ioo/l0CsTTKFY0NDw35WNssMrG0cduFIFeFD1/tSqUO7urreHiljfW3tTkqIGxTRXjrfFZflXPXyYZ2jWLGo85B6GsUAWF6/f/e2trZ/61i5xMDSsdKAPFsqA8s+TNWHwydKdnHTjfCHyIebC32BwJCRCFnrBAFuIaU4CAefAUY8ByDiKlBqv3hX14gMwmAw+GUkYkFwXSH3voiB5w2lu1hTUzPVY5ovabvCI6YF4gWVkya5iuzmFsDiiFSTJ09+Zvc99pg1UUTcg8HgFFOIJ6SUXyrUn31rPQNYimheZ2fnkHv4iQ5gMSvEEUNfRACXJpNJ1iTKuZ49hnhgIwJYfJmWEwL+TiDmjQEYMRbN35hlGDU1NfWmEBx04es689FwlXMLYDU2Nvqz6fQJAvFK+pjxVWzb+wCdFCG2IOLCIlwZ+96dB7BCIb64OHuYCvFeSJlCHNQRj/+x2Eo7z3H05mmk1D1Kyi8g4seecx8XzBE+P/AAHLIkmXx/iwWwzr+/fKqRVnzzw4PRYWDZ/aE4AqBpir1b5qxbNkqDlx7fCBZoaQFT1pefCUCXAEL5AAYWUJoIz5h/Qu9vNkJVNtdXFA1gebzew5ZsChfCqqptobIEYPGAYxfCZCx2tANglWsehF2LuPvGHsDi6pvhcPhHSsprXN5SsBbWk8Lj+V5HR0fXMAtVMQDW/xmGcdFEAbCcCUUJw/iHMIzjOzo62ifKory5TnZF1HvcACxmb5hCnCGlvEKTubK++oj4OCGenkgkhrxomxYM1mfdRCFkvYoSgFXE8NB+ZEsGsCAcDu9OSj1MRFM01yBAw7i9t7f3rCEiEbJGHItzPwpEn+o7wAxnaT6VCcS3cx7PQUtHniOxvqamSRnGH23tuaEPQQNew5cIhmE8YZjm99rb23mt6Z947zQDWSRZyu0KXcI47lgrTCGO74jH/+SGyRKqrZ0DLqIQEgJNmjT5r7vtttt3Fy5c2K09SscxIwNYAuAJInIFYI3AwLLHyURmYDnmzAMHQryPaB0Xjy9lkHXU7JC6ujpmxD+G7gLhFNvDzMJKCcSzhMdzV6E9UrEvmYjPTZkypc7n8bQA4lzIM69cblc/bpVLAIvnl8OAiKUtap2XFv3uvlo47n1LBcBF8c5OBuWKYdTZ9YiEQvcrpQ4ftt8QOSDRpfF4/NLR9m0kEjlYSXkPEFUM57JpX2QIsX88HtcKRjPaOuk8P+oOG7QiYcvCsjol6H4i+MpgAAsA37QMY++rjuvmsKGlNMEtMOshMHZYVzYXEX5uI9TrGVgsZwYZJDzz8hN6fz3Bm7Epq4fTg8FwFuAttyLumwrAqqqq2rZqCwSw2D9emKZrDSwGsHpSKXYh3NwALD74fIGU+gMQTXGxMeCbnZiB+OPoMOKuvF0MB4OPEBHf4BdMBCQN06MFYDXX1lanEF8AgO0LFjzKDM6hJ20gnh9NJHgeS4+yyNLj7izAANb+Mpf7LWtgaTyqzcDishoaGnazcrnfuxn/zpiICsP4YSwWe3KoDWgJwNqgpzZPF0KADCHOTiaTTxV50NAYsqPP0tTU1JDNZv5EirbXBLD4QLzI8HiOHuISQtTX139ZWdb9iiik4T7I2NEzptd7RHt7O2ufDJdw2223rQz4/U8T0Zc1D4R8WfI/CXB0cojohsGGhi+LXO7v7OZYaP1yvtv3vULMXhKPs5iyNohRV1d3rABgxiUf3nQSlVdUvFDf0HDwX/7yl2G18nQKGqs8NoCF+AQppQ9gAWQJkV0Ih9LAwkhk6jRSJo+7CelC2M92RPZAxqdRiFPi8TgLuWv3/1B9sJEBrDz7F/G/wjBOicVi7L4+qvqP1bga53J84WDwFEXEchiVI81Ftlj/QHCL57gB7FE3AFZ1dfVnvB4PM79nDpI6GtBk5738b+uxEg7iMBJTzNHEep1BuUQi8UaRfYnhYPA5IvrqCHOf4gitps939EianTp9WB8Ot0gpLx5xnkXkvfKx0UTiEZ0yN0aeMQewLvhtIGhIeIAAdhsUjYQpaG8Iae7dcuLaEcNUb4yGl96hYYEWEBdHAocQ4kJAmJQHsJx5lcAChLMvn5e6QaOkrTULTp8+PZxNpTYbAKuysnK7baqqHpZbmguhEKuNIgCsRCx2TG8q9ctxBrAYDPpGoU26vYrquRDa31tjY+NkK5u9g4gOHCGSy4bfZl4f6u54MsnCokNpCWwRABY33NlsvCcMY44TDWtrnas2RbvHE8BiVs42CMButKyhM1wko4Eb1vwCJw0hfmN4PGcNdRvOgEIuk3mJiII6RuPbda/f//W2tjaOtlYwlVwIC5pocIbiGFgMYCk1O7l06YQGsHbaaSfvmjVrngGl9tCxDLtWoRDvmR7PUR0dHa8PAucwGAwejkS3EUCZBoDFi87NgbKys1pbWzMF3s9l341ER2q6AnE948Iw5g4R+ZaBtmNlLseCzMMJOfevDh9o/+ELBA778MMPXXl41NXVHSMAWLtLG8Dy+HwvT548+YDXXnttJFBPp7vGJE9RLoQAaQfA4qirG35T1dXTyeP5I9CEB7Bs/UJEzCDAxfFkkjWQsqMxbDEAln0y4m9Pwxd+cN3y9YecQHETIZ4/VsLco7HBOD+L4dra3UmInxPRZ4aZh2zxcD50omGsRcR1JKUlhBCKIwQSVSmlzD4gSxfAqq6urvCa5rUEcDICDOUu52wN7Xmnh+VyiChnCMGd5CWlKlgTlz1Yh2OackAYAHjE6/ef2tbWpq3H59gcd9mlpmzFCuNVZFH5kRJiOwpxSDweZ6Cs2GSEgsHfQf6cMDwmhJg1hLgoGo9f4+Tb5CDrmANYzMCygB5EHALAAnxDqBKAVewo2+jPEeCFd5axGP89ADA5P5f04ckokfDcy0/o+TlwhMlSGsoCJQBrYowL1jtyzcDaddddPWtWrTo2lU4zzXhcGFgsqOsxjEd1ASwOBEqFRdz7rC7C4fAJpNRVdpQ3fXo2HyzeJoBDE4nEB0PcILkGsEyP9zohxMWF6PHFMLD6Tje2Job73SM/roRpPhiLxY4fKw2NiTHsJ3wt2E3lAGVZd40HA4uZgnwItnK5X2L+cKq133EiuS32+v37t7W1RQdb0QawstkXSSmOmlQwbSwAy3FfKFifDU6qrp8Y8ADbdGIwsBSHHIfPjnAo6V9x/u43CwDLiSp7m1LqOB13WEffj4NxnByPxznITv/9mWiIRM63LOuyQt+DAwpkAfHc2traX7366qsF9YUiodAFSqlLiZhcNSBq9QajzKnnakD8STweH+Bu0xfVUFrWDwuxuZxxz6DzfVnL+v5QelojDfFgMHgkEN3iRD7T+RrI4/W+UllVdcCbb765SueB8c4zc+bMKdlM5slcNqsv4g7QC0IwS+ThIeqHkalTpynT/NN4AVh9g1JrUtYwoDMOFptEs6NdXe8UyXyx31RbW/stgcguhFoBCRx32Jzf5/uop6en1hn6rprG2hMCRRch8r7rldHUX8NcmzoLhoLBB4Fo1jAAtQ1eeT2ehK+s7Gmv1/unQCDw+urVq7tramo8q1at2j6dTh+Uy2QOzFnWNGZRoRCW1+f7aVtbG5MqhhNxx9ra2j0EIrMOpw61J3YuNXsNw3gZlLpXArxcXl6+srGxUcTj8ep0Ov1pmcsdLZX6slKKmWNDgWA2kGkIcUBHPM7R5N0kbGpqqs9lMy8pqepGmkcRgIG9M2PJJAfYKCbh9HB4ekap3yuldhzxXYgSBN4ejydOKeZF4/GMqw+sYAUI8Pxby2oNL90HBF8bzMBiF0IjZ+zTcko3q/WX0kS3AIvy31n2LekAWECELJvoTM6SiH46f17quhKANWxHFg1g+b3ew1o3gQYWM7AmVVU97FbE3d7sDrPi9v/3vgln8OZlMAKq8YybucsGsLymecKHHR2/0/3sNiKA9RgR7VvoQMH15ms6RLw4kUjM19ngBINBdju5HYi+7LRbx268+PLCeKkvkbipFWDwzbtrAMvj8V6HOgBWc3N1qrf3BSh089SvEy3L4pDCuVw2a5imWfDgNET/8/D7yPR6j2tqavrzokWLhhTv1h03pXzaFsD6UOgARTReABYEg8GIQPyDkvKThQ7UfbW2b30R1xkez8XRaJQ3wwN0LBjAsrLZF5ULAMsXCHztww8/HDayYX+LFcHAyl/+A2Q5spu29ftPCIw12JrII6TBefjvSvGEFLOUmt3V1bXY7bvHKH+egaXUfYpoSwSwWA/lfKUUu9oUFF23hwKixcBQIpH4xSAbm/Xh8J2WZR2l8z0QwFpAPEbXzTISiRyiLItdTFj/ttBaw99ZjqMsxjo7L+r/nTU3N1elUqnfQZ4JPmI5DtBmGUJcUV1Tc6UO0NbfJsGamoPRMO4APTdmflR5vN7X6oLBfV9++eUJ4U3S3NxcTUo9nert3VWnX529wzoEmBvv7Hx0iO8Qw3kGFgNY0918pw6Q9HGf5e+V1qOopBQoKddPqh7T5AzOFGa/qQ/5LDR+BlfLBqWR6IZ4V9eFo7mMcgtgsT2FEKsqKip+0b1u3VFKKV133wFtIAAphHg+m8sduWzZsqVu7L4Z5cVgdfWnwTT/CEBTeQEZVHdGv9eapvlMoKLiqoaGhnf++Mc/bsD+5P15b29vY7q395xcLncEAHhNr/cn7e3tNw7nEh7cddcy0dl5jSI6dSjgiYik4fG0B3y+60CIh95///0hsYpp06ZNUrnc/lKpM6RSn3PcEIdqxyMK8ayEu8h9vJ59Hoj+pJSaPKJrJYCFQtxaW1t7ptt5r8/mkUjkSGlZ1yNAIakRnq+fiSeT++ucPTbGeHQ7QYxcJwY87q6olpa6F4B44XFE3O3HFIB4V0rY68oTe1xRfMfcECXGkJZJW1pAWA1lByPBHYDkuBDmvQgJIQdIZ8+fm+JoZaU0tAWKA7AQcwG//9AP2to4uoROONgxsz8DWFVVVQ87G0ftcoknUkboNdJI4FTf4wUALFSOLobmBFY8gLVy5ZxUJvOL8WRgmYbBG/V9+pDhEU3Ia70LAIvdT7rXrLlYEf2YL7R0WVj2RgrxJSObPbxjxYrOQXVyDWB5Pd6fm17vxYXcUHgj7gbAYtJVTkrZUF//fHt7e53P62XKteaw+LhV3F4D8X9omodHo9ElE2WB1vicNucsWB8MHqgA7hwnBpZ9GAqHwz8DpX7I41/XWHwLKxBfByH2icfjAw6peQAr96JSUpuBNe4AFpEkxCe9Ph+LfQ/nFjF086XWtL3hs4YBwAdRxJ7u7u5Fq1ev3lTuVFs+gBUMHklEv9aNlmWLrxvGjfF4/PT+HecwfhcR0a6a82QbIR6WTCb/p/PtRGpqdlZCPM+Mfc3y+VB0fzyZZHbZ+osDOwJeLvcsATRplMPNXQdC/CCRSLC3gCuPgGAwuI8AuJvFnHXayNtf0zTfNUxzzyVLlkwIkGHnnXeuSff2/qW3t/cTLgGs4+KdnUNd6uUBLNN8BgCm6djFyaNQiFcNxOWEaGuXoe3RKgCFQPs/vh8wDDA9HsEgQiqVMqWUJklZplivE7GKlPIxrqG7X+mrnwNmfuDJ5XZvX76c+8bVWOgrpxgACwV+VO4PHJuRcrdcNnuudtTQfsZ1XOakYRg/qEgk7lw8SldIF/220bKyC5/P47lOkZqLgAOAbof9nPZ4vXeXV1Rc/NZbbxX8vr74xS9WLV+69PxsNnuiyYGCYrFbhgGwMFJXt6tC5G99KICRDNPsqJo06TSl1LMakanN6fX1X8xaFkc73mUImQIee8uEEOfGEom73IzF+vr6g6RlMUONGYDD7mcde72AhnFkLBZj7TdXiZmu6XT6Z0pKdqcMjPSw7ekgxH8rKir2eO+99yZE8ArXG/0RrUOA591RMcUEdTcAse5EPwAL+RaznaQ4sLzM6MqkHHc0V+YefeZe9OauOWHFhDD+6FszviXMmgXGDvuX8cbi/wCokljFzLmoRQT2N//hZfN6ebIopaEtsB7Akkw11fONt28lvX7/oW2bCMCaVFnJhyAGoHWTIoD/CoD/6j5QdD4hwDTNilwudxDlbapT1GgArOMcAKuQXsjHeyiiTgNg36gGI4EPFG4ALPsm0wWAxZVqikS+npXyHiIKu9gQ8gS9zhDi2x2JxHODgNRxA7A4dLppGM+7YWARkTV58uQre1KpZblMhhkz/KlpDYz+e0dmLQjDOK+np+c3Q0Tv0hlnpTzuLMDRLA8SAAtdAFjvSaUO6+rqelv3VcFgkDU2fkekIghDhojeoKg+VoeJuF9HIvG3/hn6GFhSypDOMGMXwo0AYFkk4OpksouFWItJwxFo+5c1OI/OM8XUxe0zWz6AFYl8nYhuUlLuqOsiyQK/0UTigP7GrK+v30lJ+RdSisGaQswmzvE8gM3Aiml0CvdDEIieUkruMgSzYqgimG3xQkyI/SAeZ/agfU4KBoN7C4D7lFJTCs3lzsGqAxGPi8fjvFa5SnV1dV8TiPcCUUTnQb40MUyzddLkyXu99dZbOnbRKXZUeZqbm8O5dPpFS0puQ8G1zzn4rkWAObFk8okhXl4UgMUMUCXlvAaP5/E1VVWGlNKuy5QpU6Cxqgph2205uAwGAgGcMmWKsWLFCuPZZ581V65c6elZtaocfb4GU4g9s7ncUVJKHqMMchVsz+D6E+I3k8nkn4s1ajEAFiCu8AcC3yGi5VY2+6gl5Q6oqb3Yv56Oa+1bHoBjlyQSrGG3RaWpU6fu4jFNls2YPlTfer3eRVWTJ5/y+uuvDyVfMaQtWO+VpPwxKfVeNJG4b5iLfzNUV3cJAJxNAP5B72aUdV15WdmF733wAZMytIBPjlQejUb3y2Qyt4BSdYO/Pb7YNxAfqpw8ea4GINbXNmamnyyVYl0+TiMCWIiYFHkAi4MfuUqhUGg7BHhCKfXFkcTsuVAWtBeG0YpC7B+Lxdp0beSqQi4zu54YRiyfGVi3V20jRe4uAmDtJAfAylOeECiNCG8AQbb/8Ojj59vXhs6WSDl/rr9KZLY6behsOvhZztOXeObr/3dAEEDw6vwTUme4tNNWmf2hh8B4fV3gRwLgEkIoR+LLkzy/lwBSguD0y07ovX2rNI5eo3HatGmRbDr9llKqotBGzCkyD2CZ5qFt0egmYWBNqqx8iIj20muinUuCUi7ID2UAACAASURBVFcHcrlr1hiGEkJoTf4uyh+Qdaeddmr88IMPnrIsq0HnAOnQu4tzIVy5cmMAWI+DUnvrMLCKALDyYtZEC6SUxw2O3DJCH9iSUsI0rwWAlkGiosUAWAtMr/eSQgysYgAs/l7KKipaTNNc2NPd/VQul/u0i3auN0HfxtFAPLcjHudvb1zHcbHjfwt6zjWAhYjvWS4BrGnbbDMpV1b2M6XUSToaQv3tawpxMw4Sc99hhx0ae7q7X5RSBnXmHwaw/GVlX21tbdUC+ItyISQaLYC1OQ8rnBYON2e3XBdCBnRmCsSfk1LsvqGzb7d1DLfdbrsvvfHGGz19ndsYCh1nEXFQkoKacI624N2sK7V8+fJ1GgMEt58ypaLH62WXYK0ItXmvePzQ6/d/rn8krUgodKpSiteeskLtteuJ+KowjMNjsdiHGvUckKWhoeGz0rLuJaW02Ls2u02IZGVV1TffeecdBtI3+Tqxyy67NK1Zteply7KmFrKXfRjNSz4wS4rByWeHsBkDWM3EGlguGFgMYJFScxJdXUPpaul0jdhll10ClmV9ItXbuyCTyXBESz4G6oz5/mv5DcnOzjOL7ZuiACyA5abX++0pU6b8Z83Kld9OpdMc2Xgbt3V3XIAzQojbiUXpBzGAdYw4gfOIUF0dr8M/BxZiH5h4zspWlJUd9e4HH/zepfcJ62lO9vv9xjBuf/Y+mJT6Myn12UFnMT7Wksc0HxKmeaZbVmU4HA4YiDdaudyxgMjBYvqPVQboF4NhHK8bJGi3cDiQUOoSSfQTjbHDc0+vMM2WqVOnXu/WjTASiXxOWdYfaBg9sEH9wxSWpcI0Z0Wj0ZeK/bbGcmy6mhQKvpgAf7JwSoVP9NwKBLPzm0XHX8/2g+5fQt9faP3sv4EDab/e6xPq7V9Cn2RDX7nDiQKul3Zg8gLgXy6f18sRv0qpgAVaWsBU9YGrCeD7BGhTGT/uNVgjgE69bF5qqBC8JdvmLbDVAFiEeGUymWSNDnYDcLuh07nJ78uDe++9d9MH77//VyuXa9Q5QI4KwFqz5rhUKvULUmpcGFh2RBSPp8+FsOB3UwSAZZcZrqv7DgGwNgnbUXfe503uO2AYHOWktV/lWBz+EZJS85BC0uPxXmt6vS3jBWB5/f5L2trarpkxY8ae6Z6eexSR1kZ+CIPzIn2/v6zs+62trRw9ppTGzwIbBcBiJng4HD6YlGKWxYiU/AH7C/v6H9/zCjGrLR5/s+83G8Bat+5FaVkTDMASVyeTyWIZWOPXy+Nf8pYOYLGodLUpxIVExC6BOvM3A0MJ0+s9rL29/V99a3I4HL6RpPyeA+QWKsdCoiviXV2st6irC2iGg8EriejHmvXkXeVKnxB7tMXjbzn1FJG6umsJ8XQiGnwg3GA02aLLQjzW6/OduKqtbY3b4RYOh2cQ0f2gFLtVFky8uTEQl5ZXVX333XffZbHtARp5BQsYhwyf+tSnPrFm9ernspnMdjp7IueyptMjxJFLYjF2+RycsLq6utm78QGs9fXYcccdP9vb3X27JSW7Z7lyi0bEV8ze3m+1r17N48HtftS1iLvzDhvA6ujoeJlds7Lp9KNSyv0GSelo9b7DkIsbQpzXEY/zGWuTjzGtihfIFAwGeR99ExAdM4RdLI9p/tdfXr7/u++++9FYvK9fGXwJ8GkEeBnyUgLr5z5bsw1hqdfrO7W9vf1Jl8AZvwKbGxt3z2az90uimsEAFiKuEYiXRhMJ1uYqNI/+P3tXHh9nUf6fmXl3N5ukJ22T7JGkTUppi4BWoKioqByiyGW5y1VuROW+S7mh3Kjch1xyVBBEQFG0/kQFsSqopUJosnfSix459nhnnt/nefOmbLab7LybzUUzf3Bk553jmXnnnfnO9/k+rLqxcYonlbrbNE0bQ+nXEt1zm/PnGWOnOwQ7WZ3Pd7Jk7F5UquA6a182bAbOF0Wj0Xy6eSUessLFFfqAFS4hJ8ftzwW8G9rX3cuALdwKYPUJXtHM6ba/DniVDWL1qJZmg2J5QS4q/BNkawzAcjCiBGDJWu9TiOxQxsEgEfetI4WwFgFOuW5RZz76sYNaPtVZe6JJ/FvJ0cPAGj9u3HPglIEFcGMskaDIRsUAWI4mwZe//OXpLc3Nv3cKYLkM45TVodALupWRSOTGjRtPTCWTd6hBBLBcLpfFwNLZeNoA1pWxWOx6Bxszy7UDlfonIhJlWHczSCtnUghxaTgaJde8npW0KAALOL+6UBTCYhlYhmFc1RIO31RfX++RUt4rTfN4e7Fy9I2zXcfWuIQ4vSUSoc3Mp2LjqDvnhzgfAVjf4QAPO3AhXGW7EDoRDGc1NTW1gvNfKaXmOJz/HUyIK6LRKLkVWHNhDMAa4llSuLpPPYA1ZcqUcR6P5xRQ6lbNSwhiM2w0OL+2JRIhIXcLdwn6fK9JxH01F8UOgXhWuLWVdKV010Hm9/vPAKXoe6El5A6MdbkN4/TmcJhcf6geV9Dvf0JKeTjrZjQUOsGRgPvNwuW6rtD3JV9B9fX11WY6TaxzCjxVMNmMr/Vuj+fk5u5AO4UOpQXLHGiGOXPm7LFl0yZL9FkHOLS/c2Gp1BGJROIdxlguyMP8U6bMBLf7VSci7iVgYGWbgk2vrT0uI+VDqJS+fiEiAZoRBDhUV7st1/7FMrBcnB/c0h1BkCLg7oPS/KlUyq/pTpvbDLpMezvpch2+LhTK1SEd6JQZludrq6vnSs4fAsRe0TJtwG6Tx+O5/qPmZmJnOQYdC3SI1QUCF5hKLrVBh61cDGthFOJ1T1nZKU1NTdFiDEMX0ZXl5fel0umjs/cX9nuWYYz90ujoOLWlsE4kq6urq5dSPoVSko363av3RB7mnH8EjB0WzbpoK9QP6/Lc7SZ90LMK5bV/JxZSigtxWUNDw49GQrAjze+YZvcA4LT7wVXtKrsLgZ2Zw6SzC8nHvNr2b5S5v8blY1vlAlhb34CeH4iBhWMMLN3RXPIolJmq/I+MwefRjn/2ybMYARALrz253bHmgG79n4J8bPbs2bUdmzf/25TSkQshN4zDw8PkQji+ouJZYOzrDuxPKsA3xRKJq4cCwNpjjz2mt8ZivzeldMTAKgbA2rx+/Uld6fTtCnEwGVg9LoQFTW4DWFfEYrEbnHzkScy9Y9Omi0zEKwDRU7CirV8sUIKxNzzl5Qdlsad4MBD4uXLIwBpEACvNOb8qHI0upWYHp0//IqTT90sKC6zb0ax8lqC7EO94EBc0xWJFbWiKqHZ7fITX1NQcLBgjAItcLQol2kAVA2DBLlVVFRtdrguklBdDd2h03akhGeevGS7XwpaWFkukfLeddqrf0N7+Z9MZA+uLTU1NWkLYxbsQjjGwPq1RCC1QJxj8ljTNn2u6VBEDK82EeHH+/PnHLlu2TM6aNWtcR3v7m0qpz2jqCq0VjB0WjsffLPRiZv1OlyUHoFIv2GzHQo/S7lwKzn88tbr6InKBsVkarwPifA32ivW8IcSJxTJV7PqeAcRv664LVpQ0j+f85rq6n8IIiFq7yy67fP3jjz9+XpnmeM0+0Fr6gYF4aCiReD/PIHUDWC4XudJri7iXGsAiCQ6ZydyfMc39NecsdYXmBEVYPDGaSGhfWGbboBgACwHWMs4PjnUDWFBfX18mpbxCmubFfUSpK/xuMJbhAOdG4vEHBxJVsVBFQ/V7oKbmMGTsLkCkACi9vsGc8/cn7bDDfu+9916p91xUj/D7fK8BWtrc2YnegzRn7Brhct1eDABuF8br6+u/YwPhvdhMNoj1P8b5QTmeDHnNHghUfQaUeA0RfdtqahGLZNuojYwxkwGcEInHn9E9F9RXV9ebnD+Fn0Qoz20PXSb0BtAYpATj96ZM84q2trZO3boGa37pbuIc1X/lw94bgcElxMvrZuf1pCwHNEsULMsnLccS+RrWg0NZLoG5Cmw5ZfXUmJ0XxwAs/XFEYOc/MG6HMpd8hzGsI/2r7octQxOe9YEw4aglp3X8S7/Q7S5n0QDWcGpgja+spEUwd6Hvb/CGFMAivYeN69cPFYB1clc6fdugAlhCvAgApIFV8AWxACzEy2OJxI1OPx4z/P4dU4ivIuIMh5vBNcLl+lY4HCYNH0sCJBgM/lyZppYLIQJKw+W+hQ8eAysNnF8V7Qaw1Lx588rXr137/Uwmcx2St0dBq+buaCx9EBL+v0i4XD8ZwKbGYc3bXXYeqKk5BBh7aLABLHvOfk5J+XRf4rH5rN/DVGCcn9gjEL3bbrvVbVi3bgzAGjnT9VPPwCJTV1dX724I8WvsZtkUZNFSSHhDiH+5vd6vNTU1bZk+fXptOpUiF5qCAu60jnLO/4uMHR6NRklMWTtVVVV9xuD8dwAwVRdM4Zz/TrhcR7S0tGxqaGgIJLu63gDERo3nSS63XTH2zXg8TrosxSThq6m5jwGcpAGYWZtgxliKGF9TQqGlKwAyxVRaymd22mmnw7ds3vwYIBbUDMs6jf2tM5U6fMOGDfkAg5EAYFkgEAc4OpVOE+hRULfN7psFagLnF8diMWIf6rIHtw5JKQAsmrvBYHAuKvVzpdRMB8zfre2wXT3f40IeGw63Euu41MykUk7DQmVxv99/CSpFgN64XFc7IcTz4Wh0QaFCividNfr9/i7ENwGxdhvgjLFWZhjHh8NhWrOKtS+b4ffPTCO+SZE0s/fXPQETUKlDY62tywvVEQgEvopKvgYIdNG8dftK+mBCiLVmJrMNsGXLpNwbicV+oMkIZXV+/z6mUsR63UZug3RlhWG8a2YypAv4yXvHGLHJXkaA02KxWKndPB0PrdO9vVYFVz5ScQEA3gKAaqsqu/VkPvbVJ0XmcwHc+itFVEU6u3X/Jdd10C7eglZ6niGoxZosnwiPE4T12+sWde6v1ZHtORMCu+IxzwxQ4i3GYAfCIbe6e3bTjf8iUB2/5OQkRSMYS/ktYLkQynTaMQNrFAFY1maBA9wyLZG4asUQuBDuMmvW9I3t7UMFYC2yASyvJuhDq5R2FEKLxisECVZ+bbABLNoMmun0QwqRaM66Wlh0A5HhjD8iXK5zbTCH1wWDz5umeYjOi+8EwGpoaJiW7OpyFIWQmAbZABZ9Hiwatmm+qpRqLCoSULcbQtjldpMuAgnZjqXSW4AArEOBsQd1ASzG2PumUgtaNSJ85jaX3rUyt/sRhXiIHeJcp0fdtHnG7kmb5uK2trYOYoAmEok3ZSajrYHlraj4wocffqh12TPGwNIZll55tgcAizUEAg1pANLVmVsoYhRZhwAsLkTcU1b2xY8++iheHwx+w5TyWUTUYekQ8/B1hXh8PB5f52RE/H5/gCH+QiFamlKFvpsULUQYxvsIcEg0Gm2uq6vb28xkSK+Oonr1m0j/inMeM1yuL7e0tLQUyt/H78xfU0P6naTbpcNOpj0Pulyuh7pSqfNoTSiy3pI91tjYuKizvf0njLFe+j79VGAC578BgBP6OIhSlMAdPS4XuUgOFwPLmj4NDQ0N6WTyNalU3qh1ffSRAKy7YrHYJcUwl4oBsABgDXB+SA8Di9plMd87Ok7LpNPEmK8s9C7k9sUW2wfO2b2RWPzskk2Y4SnICPp8DyrEoxDAk2UL6+jPDWNxJBKh97DkKRAIfIUhviilHM/YJ5GICVBgnK/ylpfvW6z7YE9jKRKiNM3fSCk/n7O/tvqHDE+Ox1sfL6SxVR8MHpWR8glA3OqCbUc+bS3zeB7u7Ow8Lw+LnED1FcjYAbFYbEMhkIwuQAI1NecgY0sR0ZUnIuPmynHjfrhly5ZrQalsthx9F1Ywzg+NRCLxkg+UwwIHB8B6uOJEZEi+pqobaNrWua8vsCqfa2B2Cbnsq+z8+f67p+puJAsYU/DHa0/pInG0sVTAAkse8u4hBSPEuAwt/SvajFj/kshwmQH83CUndbSOGbJPCxQNYA2nC+G4ykpC5ffTXBwsAIsB3FqVSCweCgCLNGg6t2z5gwMXQooatNFlGIucamBt+vjjU5Kp1K1KqcEEsEhHbp/BBrAsMeuaGto83IsA4zTH1wqfyzj/wNaU+J8FEDkFsAzXUi7ENYXYTCUCsOiFNOrq6s4w0+kr8t0waa5ZJuf8ha5U6pR169Zt0XxmLJu+BciF8FDB2AO6GliMsZWmUkcUA2BZN+I+35kK4HpAnKDB7ujZetDmcDUTgjZt/7FcmBOJN+kmVFO3rmsMwNKfFEXk3B4ALKCQ5xzgEanUgZqgPM3bTsPt/pJhGO+nu7rOk0rReugtqNDR7ZJy7/iJEy90EP7dGrpJkyZNqPB671WIR9p3zYU+NaTXtYELcUg4HH7LX1OziAEspW9UoXYSgCU4X5FMp7+uGSkx3/RiQb//DNWtL0YMpn6TrTuDbpfr5fLKyjNWrlw5rHtg2pvPmjnzkvb29mt0NMO63WJYGgB+1tnVde7HH3+cT/h+pABYQK6vXR0dT5hSfktz3tNZT3HGno3G4ycCAPXVUSoWwGLdAW/ezq5s+vTpVWYq9YQC+KqDi5OtRRDAyzlvBc7PjkajxNYvliXkyAalzkwXqJlk8hVg7Ks5DFJrnWJCnBqJRAYlKFigpuY4BHg0jy4fCiF+7y4r+1ahAEOF7EGuyIZh3ChN8/Q8QvEElF1va9d29VdW0O8/TyHe0q053X3gtkB+IT5kQnxPZjIPIEBdL5YXouJCbEKAA7MB1L7qsdxbM5l7lVL0fuQmmm8fImMLEPFZUGrHrPGiRrW4hdh/tUNmbiH7FfN7oQ9LMWXCZQ9WVDGhGrgAVBIY/ZsK6vnv7L/lVtBXnv6e6SkjN49KAeMe+2U3KVQJMAVi440ntzsRgC3KBqP+oSXArwx6vwuMPd2tf9VDn7OmjAkISyuh/KaLF40d7PoZa7ZTfX1dZybz3mjSwCoKwGLs1qqamsUrVqwYdBH3eXPn1q7duPGPQwxgkQaWTnLEwLLEeQ2DGFhOAKzLbBdCnfb0yuP3+3dkiBTmnPRFdBOt3xSq95xIJELgZqa+ru75dDp9iI5NiIHlcrtuZkxcO4QAVs/G91FTSmon3WY5TbSxahWcLw5Fo48Vc5PrtMLtLD+vrq4+zOD8ficAlkRckMiv21LQfHV1dbNlJvO46g6lXdANyy6QDnymYOycPb/whYdCoVBtazz+phMNrPLKyr0++OCDdws2EADGGFg6VuqVZ7sAsKwDEsBiifh9G4QqZKhufSi3+wiXy/VGqrPzAYV4OIH7/T1oubwAEGB/fjSReMSpCxYFP2lNJK4EgIvtA3uhzwSts8QIOlEp9aJLiOtMKc8qpNXY7d4LKSGM+8KRyIWarjN5u24Fk0B8QgM0s56nug3D+LswjIXNzc10qTNs6aCDDipftXLlje0dHWdzxgp+52xWTydwfidj7PpoNJrvQM122GGHWWVu9yvDzMCCJUuW8Ecefvg6KeX5NjCgZ2vGfkuaVH30r98ySglg2YLuxykpr1JKTXfKwrLmG6JkQpC21lGx0anLyaqqqqYaQvwGEXfNsQGBL3EuxPGhUIg0lR27fBaYEJbrIijVE/goez2SwjCeCkciiwayflD9xLbram8/Km2aP851d7V0Nxj7meF2n92jpdlXmwM+3y0IcF42gEVTwBDibWYYR5uZzCNKqa/msqboAlxwfm44Gr2r0AtCwZLcQrxis2Rz12cCy16RiGcygBcUMco+uamjrqxxC/Gd5mj0neEGUwt9WArZYez3T6kFznkVPBNbyyls82W00d/KmLMcOSENqE5bNS751LIjgPSPxlJ+C7BZs2bVd7W3vztaAKwJEyZMqigvJ5DiAM3FoZuBNYQA1q677urfsH79n6RpTtdhQFiaFZxvFIZxSshhFMIsBtaIAbA44mXhbg0sxykQCHjpnUalLrW+qRpi1tbtAyIJm7+AjJ0bjUYT9fX1z6dTKQcAludml8t1TaFbrhIysCzb1NfX729mMg8rpXw6fc01KAm6c8b+rQCOisfjHwz3B9vxgI/sB4YcwKL5LxAvz3TrcBSMcJZtPibES8lkcuH06dOntiUSf9IGsDjvKne79/qguXkMwBqc+bhdAFhzANybA4EFqOTdgDBZw5QEvJJ73uWMsWelaT6jlNq90Dpo7fUYW8OF+FYkEllRxJpHB8bjGABF751UqD6bEURMqmtFOn2fdLvvl1J+qzDQhsgZ3yxcrqNDoRC5wxV98K2pqfm8YOwFhRjQaK9lenJddJeVHfHRRx8Vq72lMYQFs7Ddd9+9asO6dXd1dXUd5oCBtQkYuywWiz3Qh0uTBWB53O5XGcD0gq2wM5RYxH1rtcFg8EQl5e2gF+yj57l/SMQDWltb1+q2vydfiQEsaGxsHJ9MJq9TUn7P3ldrbq8/abm1FxHi0qqqqjsp2IHTPg1zfj516tQGt8vVo8G69fLIYhe5XP+tqKg4ZtWqVf8dyHvcRx9dgUDgNpSSXDBzRMlZxmUYt7eEw5eVoF7eWFe3Z1cm8xIgTsnV+GKMvSlcriND/UWURGQBn+9xBDgupy9ouFyvJidOPNK9fv3VSsrvA2OuXnkYKVWzV6OxGAWj6C9RoI0vo1LLMI9eF2ltGZwv7ejqusXrdr8gEb+e7e7JGNsMnB8TjUbJvXhYk+OXaFhbO1b5kFngkqcmTHKlUk8B8G/mVKqAwceg8KBrF3X9dcgaNDorGgOwBmHc5s2eXbNmy5Y3pWnO0ASwiL5LANaiIgCsU5Op1C1KqcEDsFwuciEkWnXBZPWX80uj0ehNBTPnz0Afr6+glMsAYAdNNyoqiT6OcWTs9Fgs9lrD9OkvJJPJg3Xa0M3A8tzkcrmuHQYAqwylvNKU8jJbQbGYb57JDeMaRLy1mNtcHRttp3kIwDrcZmBpRSEkYWlyISyWgUUb2Dqfb75k7DlUKp8Yat6hoE02Y+xjd1nZN2tqatZHI5E/mZlMjc76wzjvcrndezWPAViDNc0tACulFAn0f1ZTLJlwmhQqdUS8rY1YJkWDH4PVqTzl8nq/f5cM4sv5onj11Q7O+U8Nzh81lXpMKVWns+aTqy43jC+Fw+GPi+gfiVfvraQkUXGt+sj+gvOfGR7PtZlUaplSamcNoXp6J2PllZWf/eCDDxzpdOX2qaamps7g/AUp5W66zEzG2JbK8ePPWLVqFQW9Gbb5s8suu8zavHHjI+lMZk9dpjFjLGIqdWZrayvN/XyJ+XbYYRaMEACrzu//mon4iD2fCk5Jm/GyChmjqIB08eQolRrAsgXd51F0TiVlIIvRot0uu08rkbFFsViM3BRHkyuhqKmp2U2QAHhOEAlb3+mt8W73kf9dvZoCCpT6XXL7fT7yOjhym9hviKZhGFf0RLDWHoy+3hmfb0fO2K9QqYZtACyA95lhHBmJRMgDLG8fLaCzs/NZpdT+OawnZrhcT4bC4ROCPt8RCHBPHt1Qaz10eTxfam5uDvXTF4oifrNS6ns2y3XrntgWnG9zl5Wdsnr16tf9fv9ToBQJ63+i+sRYWnC+KByNPjlAew348WI28wOudKyAkW+Byx6s2EVwtQwZ27HXJCEGloIWk/E9bzypfZ0lrT+W+rLAqASwKsvLnyRfas3FYcgZWDvvvHPVxo8/flNJ2ahzgKTBKQGANSgaWJYLoXMA65JoNHpzsa9ddXX1VMMwngSl9iEBR51ybN0PolvfiYiLy1yup7ucAFiG6yaXxzPkAJYt6L6TNM2XlZLTGWi7jW01ix2JbhUX4oxIJEIh5Uu9wdIZgk9jHu6vrv4u4/w+XRH3EgBYlmtpsr39gYyUR+geVm0Ai6j1twZqax8oAsCa39zc/J7OII65EOpYqVceKwJUCvFnn3IAC8j1wyXE64hIAI+OuxgYQrwBnD9rZjK3s+6IUoUSMZZfGT9hwuFO9a96Cg4Ggw1KyucA8bM6gJkVRYuxvxgezzXpZJIORrkMhnxtpna+E43FvjhQ9x8rmIrb/QwodaBdUeHtD2Mpb3n5TW63+4Zi7VRoIHR+nzt37j5bNm9+yCRGuiajmnP+rkI8KR6P/7OPOkYUgNVYWzsnaZrEGJmtM59ssKdZMHZsKBZzfNFeNICl1MHRtrZeGlg99iUXs/bNm38opVxsa60VnmNZg2PvwQjofWBcOn3RyrVr23XmxwjJQwDWFzhjL9osuk9AE0QwXK7XqysqjvnbqlU6AuSOukQuzW3x+EsIcEAuqESXGIbbfU4oFHrIUaH5MzO/3+/nAC9JpegiJbuPtFaFQamTYq2tfblJsvrq6jpTiKeVlHtk7U0s8Ei4XHeGw+Fza6ur5yrOKRjH3JxmEIDVhYydHYvFftrXe93Y2Dgu1dn5Rl/ug1yIv7kAFq6ORj8K+v0/Ukqdbl8m9Ciao+D8woaZM+9avnw5ScYMW3L0Ag1bK8cqHnILXPmw9whgjOjFJHbbOzG2/NqTOvYZ8kaNvgpHJ4BVUUERMIjCr5OGHMDaZZddpm1Yv54ArJmDCWDRhiPd1XVqMp1eOsgMLApL+xWdxZgUFA0uLgkPAMCij1HQ5zuRhCIJONC8DaT4GSTuuKLM66Uohnd0dnQcpDNBAFAamgAWCZ5mUqn/Q0QSjtRKeaIQ5j5n1AYC5yulLlGIE3Q2+bkbAwoAwoX4WTQaPb5QFBmtRo9lIgsIf3X14WADWBrzn+bffyTiEfF4fNUATMhra2v3kZkMCeJW6ByI7LpoE/pvw+s9XaVSL5iZTLXOu8M477QZWGMA1gAGrZ9HtycAq8Ltci2TprmvjrsYfZyFEP8RnP85k8nQ2kUC7v0m+qYiY3fGYrHziwXrLcF5RIr4SYBQQVddW6R4FV2sZEzzIqXUeK11mvNlsVjsqGLbmW0Iv99/PUO8UCEaOnWT2KWnzPvc5MmTT1+xYkU+IfRCpi7J77Nnz17UsWXLTVJKAv30EmNveJU6uqlv9zrm8/lmAcCrDHHYXQjr6+urzUzmF6jU96aRKgAAIABJREFUnjrrtQ1gtSqA0+Lx+Mt6Rvkk12AAWFT6jBkzJpCQuUT8gs4cy223fZkWZ0qdGm1tHZDbrFObDDC/K1BT820EeML+5m4tzh6rF8vKy09oamraPMB6tnmctAMZItnqS7n7OgDoQKVOjbe1EYtyoIm8G4hJTiy7Xvt5Wis442ttcOmFvtYrv9+/K0d8WiHSu9fj7kiu4KRvdSnt+0kGAZSiyxrygMjeNtEySpdsjyNjZ+XzFqB9bF119WwlBJ2fJuRe4NH8cgnxsKus7PympqZOf03NVcDYJVRsz3y1x2tpMp2+briDG2nsGQc6pmPPjzYLnHs7eMdN9F6FwGgD03vzYTGw8OZrF3WRhs5YKrAXnDlz5vRkZ+e7UsoKncOO7aqVGa4ohKSBVVlR8TgifltzcbAALMHYrVOHSsR93rwpba2tf1ZS7jiYAFZjY6NHSnlKZgQBWDTdhBgwgAU7+nxTOgBeB8TddDaE9jSnG55NLo/nBy7DOKKjvZ0OJzrTRHLDuMmjwcAqBsCiiEqM86ui0ejSPjYGrMHnC2QYu89UirTddMW7s99u6vsGQ4gLWiIR2oSNaf8NfPUXvqqq74IQ99KtrMZEIgDr3xLxyAECWECbWsHYcqXU5zXnMPWW1rr2iRMn3rKlvf0M3SiEwFiXm/P5zdHoGIA18DmTr4TtBsCyIsn6fPci4kl5ImptYxv7sLGFC7HONM3aQi5m9gGZzltnxhIJusAsKlVVVVV4XK4bpVKn5wnTnq9MS6fS5XJ9mE6nd82N4tXHQT4NjN0ai8VIMH7AngA1NTUHcHItRqzUARfIVh63+91xEyYc9d577w2bkPvMhoZburq6zkFEj+Zg0YH4sVg8fko/3zFWU1OzE2PslZEAYBHwY6ZSP5NK7a/DPCQ7MMY2ImM/iMVi9L12ND+KBrDS6YOj69fnZWDZY0MgxyJU6npEnKozz3JBF4qwyDh/yzCMBf3qKWlOhqHIRpfBHZs3LzCVehAQe4Ho5ELo8Xie6Ewmz2xra+sodXvqJ06cmCn3/g4Q5uWUrWg/yxk7PhyL/aoU9RKT0+VyPc8Q98sdN9YdGOOCaCLxYF91+aur9wHOiUCQLW9A7SStrtOaw+HHCdgKBAIXoVJL8gS6oLzvKoBD4vF4OE89rLa2doFpms8wupLO2b8zgM3MMC6NRCL304+1gcBZFJ1VKeXqOb/Suic4fyyZTl+6du3aYY3AqrFnLMWwjpUxmiyw5ElvQKb5owzwa5h12EOGyJBvZgwXXnNSp+NbjdFkgxK1lY1SAIv8xQ/SXByGHMDaa6+9JkfC4T+jlDvRzYROKsaFsAfASqfTS3GQNLAmT548vszjoXfpy3o9AXAJcXFLN1gzkMRrfb47FYB1wNA9xFM0HI/X++syj6dy86ZNX9FsAAFYN3o8nusKaWANEoBlfahr/f6FCpG0rGp1+5vdPztkewtwvl8kEvlIs+9j2fq2AAFYC0CIe5wAWALxyJaBMbCoRbw2GKTIVufSwU/3IIGIyuPxrM6YZrVSig66hROFCOd8r+gYgFXYVsXl2J4ALAj6fBcogGsAsazQOvaJcEm2iEnfRrY1ULYwIQ6KRCJ/cnrwzyqZB/3+HyilrrNZXzqvCh2+lMq67e+rpYSwMWDrmBDnRaNRCjozULduiz2BUpJofb3mNCS2A+lgHbVy5crXNJ8pabYFCxZ4V6xY8Vyyq4skH7QuZkgM3OD8ynAs1l8gGFZdXT1bcP4KIOrag0CjJCp1fKy1lTQ2S5YIGPB6PffJjDxSh9Fnz9sk5/yKSCxGUdkcXTgVC2CZ6fTBbf0DWBAIBPwM8Xqp1EI7kI4jO9muhAQiXBCJxe522jdHlZUoM+2lu9rbTwbG7gCAXkArrVEut/vRZDJ5zmAAWNWVlVPFuHG/BYBdc7pD683HwPnxpRIkp34mk8lnlZTfyRMlsJMBXBqNx3/Ul1mDPt9RCvFe2/Opx2VPccY63IZx2Opw+Hf0bK3P9w0F8Awiko5tbtrADePoSCTyep7fjIDPd7sCOMcGsHptcRlj/3N5PKc1Nzf/mX4IBoNHKCl/ikq5swgYBKD+mgtxTjgcXl2iKVJUMToflaIKHntodFoAEdiVj1Tsyxg+BAwCgN0MCwo9yBijf73lNtSxVy5MtozpXxUcY9bY2Dgj1dX1L6cMLOFyHRYKhX491B8nYmCNr6j4qUSkBVgndbsQCnFrtKpqMaxYQT7Rjm67dCrJzrPbbrtNXL9mzV9Utx6CVhoAgHVqOp2+eSQBWG7DuLA5ErlVq+N9ZyKh3S8pKR9Hpeo02YGWDroQIl1WVtbV0dFBFGSdZpAIOjGw9ACsdPr/UCltF0INBpbVxsbGxqmpVOoyaZrn2Jt9rcb3+sKT2LBh3JhOp28cjM2WjjE/RXmEz+dbwBAtQVKNuWQxsEoEYEGwpmZvxdjjDoSmLdP3LG7ak4exTg/n81dHo//WGbsxDSwdK/XKs10BWHWBwIGmUk+hUrT+ak9DHataDCyAsLusbM/m5uY1A/mWB32+QwDxPok4bVDayViTQjwmkUj8oxQAFvXV7/NRBDFyjde1q6qsrLzhfx9+SCywIU+77757cM2aNb/LpFIkp6DTZtrIZ1CII+ORCLlQ95VGFIBFblOMwS3KlKcCgLuQoe1ImsTMvsMwjCUtLS3JQs9k/z6YAJYl6O7z7YsA5GJbZHRkCirCQ4bLdXgoFCIds0HdczuxXb68NH7KNM9mnF+XhzUEhmE8kkynvz8Ye6op5eU17vHjf8sYy9WM6gawlFoYbW0tCQD91a9+1Vjd1PS0lPKwnCAUND5piXh5a2vrbX3Yk0D07yspCfTfejlGboGc8w3eioq9P/zww/fpWb/fH+AAr9rBLuhPn7z7jGU4Y9dEYjEqJzuxhoaGqclk8pco5Z65y4V1QSvESwrx+7FYjMT0yY34GwzxFzlun/SNWKEYI/fcvjT0BjpltJ7XWfC0ChrL9OmwwO3PgXdjh+U+eC4B44RbWeAVvR+Mzq/s7jWZjgsfOB1GWxjX4RggC8BKd3X905SyUneDQXTRYQawHpWIB2suDkMOYM2bN2/CmkSCAKw5uoM6UgGsSZMmTfCWlREDa29Ne4Pb7b6wORQaKIBFN4FE5b4fpaSbQKcp+3K/0LMm5/wmj9erC2D9CZWaWajQrb8XdiHcmrW2tnaeNM1XUampmu/jNs1gjDUzxDMjiQTdcI3ojaO2DYcnYzEA1nsG4pHN8fiAXXZ8Pt8Ug7E7TCmPpdsZ3ffPsam6GVjzo2MAlmPTaT6wXQFYM/z+HVOIvwPEgAOgRc+U3W/BG7F4nFy1HLFWcg9LdT7fbrKbJaB/GaHXSisXY+z3XanU8evXr485eKzfrIHq6ouRMYrwq/V9s9yf3O43vXvu+fWVy5alS9UOnXJInBozmQPWbtjwhJRSTzMMQHLOEsDFNyORyH/6qWdEAViWC1pHx2Iznb5QE8Ail3+TMfZoZ1fXhRs2bHCkrTTIABbU1tZOAqV+IKW8CAAKMinzjhNiBoR4squr64dO+6czv0qZxwKwlPoBB1iSz9WVC0FRNAcFwJo8eXKgzON5nQHkXniXHMAidmDQ53tSIVLkvmxGJDnsSQRYkkgkru/Dtizo91+vEIkVXpa1H6G5HC2vrPxcVrRVI+j3/1gptSjXldxy8RPiRU9Z2Ym5mmJ1fv8+EuAxVGrbbwe5KXK+OK3U3fF4vJPaGKyp+Tx2R46s6vnW2G7mHwrDODtsM8JKOVeclDVoezYnjRjLO3IssOTRsnqJnG5mPtP9Avb6jpsM2PHXnNTxzBj7SmvMRh0Da+LEiRPHlZc/IhEP1VwchhzA2nPPPcfHIxECsHJvVPoclE8ZgHVBcyjU1y2O1sS0M9GNz6Gg1DO6wrVOCs/KSwDWjR6v9/pCLoS2WCsxsAYFwKqvry9DKS83TfN8BKBNguY07+5NTzRG0kqpZOz7q2Kx9UXaZOwxgGEFsOxgBicogLsRscLpXNAewDEAS9tURWbcrgCsQCAwGRCfR6W+nHNIKtJ8WY8xBpyx2yKxGAEFAwLnGxoapqW6un6BiF8YeMN6l2Bpe3H+QHtHx8UbN27cWKryfT7ffgzgeQfrAbEj1kyZOHH/f/73v6RxNyCbOekHXeR1dHRctWXTpnM03eroBpra+6bhdn+npaWFhOf7au+IArBs7bcLAOBazcjJFmDAhXhRKXVmPB5f58S2gw1gUVsa/f5AEvEVhbizrvtnbh8YYwnO2A/DsdjzAwScnZjHcV7ad2WSybOB8+uHiYH1O8ZY7oW3BWAJzheGotGSMLDoPfT7fE9CHgCLWKKIeG28tfXqvgwY8PkeUognbqNVyNg/J0ycOD8r2ilpWX1NZTIvIMC4XDF3cgVExg6OxWIfZNUlav3+cyQijQFdXm/d+9qu45u4YSwIh8Nv9KwL1dXVc11CLFNK7ZQNYHHOE8DYhbb7tuP5UKoHHG3eS1XpWDkj1wJLHvF+VwI8BYxZ7KueltoHt/8wzo++9sT2/47cHoyolhFlsyGdTP5ztLgQWgBWRcXDSimiwOqkIQewvvjFL44Lt7T8JYs+W7CdIx7AQtxblwPicbvPXx0K3V6w04UzkFBrLWfsN3RLPmgHeAATOL/Rqwtgmeb/oZSDAmCRSUhny0ylfq66D1ZauiHZpuy+gYJ1hst9bigUeg5gjI1aeKrlzUEA1hG2C+FEjflPuh//Mjyeo1avXp29MSuyeoD6+vqdzEzmWVpLij1EFKx8DMAqaKIBZtjeACwvB7jRlLLHFXqA5st6vDva1cJwNPrkQAu1GL6ID6BSx5acKWaJB7ELx02ceHfWoW6gTSaXmQAD+C10s8b0zkeMqcqKihsqx4+/ccWKFRZzYQgS+9znPrfT5o0bn+3s6qK1S6etlg6I4PzucDT6gwJt7AGwXrVdrLW6NFgaWFR50O8/QyHeZQv8F2oP7UuJifJHZOy4SCQSL/RA9u9DAWBRfYFA4EJQ6jpELOgWmdt+G3mUnPO3hWkeF2pra3bSx6HMa2lgdXScCAB32oyzXtW7XK7HulKpswfDhbC6unqq4Jze6XwaWBsFY8eHYrFXSmSP/gAswo+vi7e2XtVHXS6/z0fgOQXQ6vU+M85ficZi38l2lZ7n85W3AfwNcy7y7bP6FmEYCyORCHl3WFNlypQp48rLyn5iSklRxHsFZ7OB7dUer/cLH3300doeBmpw2rQZYBjkkfOlrDaRCyEJ0i+OJhKkLzdsSWfRG7bGjVU8hBZAYEuWQYXsqLgfAI/uBq+62Vc2B8tkADd7Pa7bLj1208dD2LLRXNXoBLAqKx9W3T7cOqlbxF2IW6dWVS1eMQQaWHPmzCEB8b+iUjvrNJDyFA1gZTKnpjOZmxHRq71JREwIgH3Dra0rC7Vvqwvh8ABYlhuhYIzErEnMvVx7016oY71/d8bAGmQAyxJ0DwSOpc0wKkVhj51+B+l2V5EeE+P8u2OC7s4mQ1buYQewSBy4zOO5Skn5vXwb66J7lv3gGIBVEjP2U8h2BWDZUahORikpUhStXU7Xr75MSQBHFzD2jVgs9tcSDBq5uVxsC7mXoLitRdCeIwWcL4zFYn2GpC+mQopOyhDvR4DjdI1qhZ43jObyysqD33///f7c8oppUp/P7Dx79qJNmzffK5UyNPcmhF8BE+KQSCTyUoHGjDgAy+fz0cH74dwodv30gyJbvmtIeWhLa2uLE+MPIYDlB8S7lVI9Hg+60y67OynG2GIjHr+7BcCR1pcTmwwkrx2F8LumUg/lGz9uGM8mk8lT1q5d2z6QevI9WzthwiRZXk4i7rlRCMk1bzMgLoomEsRgK0XqE8CyXQivTiQSudpU1hGldsKEibK8/JcIQGBRT7JAZy7EvZFIhPYo2cEqKFDGw8TYgu6IgtkLpBKc37Do1FOvWrJkifVMIBBoZEo9IxHn5Zlk9K70gGRbCwsGgz5A/LGUspdHDgKYgvNbIrHY5UPJOs0doGJellIM8lgZI80Clni7dz4w/jIwnExiV5bulfVqWRruawDxUDGj650l+wAJdY+lwhYYlQDW+MrKB6WU3y3cPSvHcAFYf0GlyM1VK5UAwCrXXCwpQNLgAlgez3mrW1oomkspEqv1+b6gGKNIIw0lPAxlt60YAKtRuy0ONLDsRrGpU6dWlXk81ysp6VbQMQuL5r2lNWAYi4UQtzkViS3FwH0Kyhh2AIvGvs7nmy8ZexaV8mvPOSfGHwOwnFirmLzbG4AFlrguwC91IhHqGtRyI+G8GdLp/aNr11J0qYFG9oO6QOBwU8qf62pK6bTVFppfC5yTi8zbJT5Acb/ffxoq9aNclkI/baNDpukpK7ty3rx5ty5btmwg2mE6JmD777//pNUfffRYe3v7t7gGddUulKKZhRRjX7ZFmvura8QBWEGf72AF8AQgVuqu06RXSfNEV3+wxyBDBWDR98fn832NhLItt1X9sdw6drZg/SoEOCYej/+rxO+DznwsmGcegCvh8x3IEJ/KEQS3zhCM81e5EAvD4XDJyRFVVVUVhhC/AcQv5jSUTEeRKs+KxGI/LdgJvQwE2j+llKLzUy8NLAo2JJW6orW1NZ9+Lb1vdQaJqCv1mVxA2iXEpXbk8ew1mSJrn6YQSQKhVyRx6pgQ4jVhGMfYrsLkeXCQmUrdrxCr83SFLmQXR2KxXvpcpNWmlFqqpDwl5/yDXIhHI9HoGcPpgaB5JtMbubFco9gCFoBVfg8wOA0tD5ksTVsGEpD9QXR1HLrkbCg5Qj6KrVao6WzGjBmNmVTqH6PFhZAYQeMqKx+QpnlEoc7Zv/cAWLdVjh+/eOXKlSTuP6g6ELvsskvFhvXriYGlD2AxtlG4XItCoRDd2Goloj3LdPq0tGneROwkzcWyGADrV9D71qXf9nlKC2ABsVA8Ltfjqlu4vxgwp5A9tV0IZ9fV1bRL+Ucl5WACWNReXltbu5cyTdKg0BXA7dVPGmjB+BZDiIOaBxZyvpD9Pq2/FwNg/dPweI4ulQuhbVge8PtfRqW+qXswcjggnUyIMRF3h0ZzkH17A7BI/2SOMs0/KqUmF3Po7cO2yBn7i+rWTtlQiu94IBDYA5T6oy3crPkJLTjyBBj9TyEekEgkQgVzO8wQDAZ3RymfVYj1uswmRFSGy/WPyRUVC/61apUjto/D5lnZP/vZz568fu1aYkZ4dC9gyE1ICHGXx+u9pKmpiQTn+9un0YF6juD8lZHiQuj3+7/OAJahUhO112nG2sq83sObmpr+YkVR10xDCGCRTu64dDJ5iynlom20j3TaS5EEGCPw+cGGmTO/t3z58pFIMBA1NTVf4Iy9CIi9WO/UfJfb/Ydx48cf/Z///GdAkU/zmYvAs1a//yWGeAARM7LyWBE5DZfr/FAo9GMdUxfKQ4EV1ra1/cyU8rCcvTTNvS5k7JJ4PP6jfOUEAoHPoFIkmF6bve4QpskN44RwOPx4znM8GAx+DqX8JXaDUr3WV855jAmxXzgcfn/OnDmujk2brpSIF+WCXdY6wNgaAXBcOB7/XXYdBP65DeNypdSl2ZcQ1uUt5y8n0+lj165d21GKb0Uh2+b7vVQflGLqHntmBFng8oe8ewjOnlKADb3AK6uNbAswteTak7qI9aH9ERhB3RuuphCANTOTSq0YA7BKNwTz5s0rb0sk/oqIu+iWykYygOX1/gq6fcy1ksfjOXd1SwtpCZQqsTqf72wTkUKBT9XeHOrXTtGAbigrL7+hkIj77Nmza9q3bBkKAAtmzJgxIZ1OX41SnpLnVlCnd5bOBuP8BYXoWChWp4JPeZ5iAKx/GIwdvToa/bCUtgkGgycr07wbAAbDjXYMwCrlYG1b1vYGYEFDVdW0tBDLFeJWcd0Bmpjcaejy6Qng/JxoNNo1wPKsjWNdXV29ymT+KpWaVjKgjRi3jP0WGDs+Go0S0FbSRNFJGcA9iEiHUKFdOGOdZV7v7RMnTrxmxYoVgxWlm+29997V8Vjs511dXXtpA2yWbiPbxBGP0oyeOxIBrL0Y4ouIqL1HYZxvEIZxfCgUIpFubUbhEAJYNL2IBbyrAnhKIc7SBSSz5yVdpjFga4XLdUo4HCY9J+2+as/vgWUUNVOm7Cbc7peJAZQ9by1g1TBWeMrKjmpqaiLmZ6nPmKQt9SQCLmBZus7UHXKFcwtxbUs0em0p6rXE6jOZ50Cpg3qPj/X+tQPihbFE4oE8dZEe7ZfyAHw9LoT7RyIRinrdK5G+lyHE00opAne3JluUPe0yjAvrZsy4NxqNTkqnUk+apvkNK4BrtoA7BXYQ4vfjJ0w4buXKlW3ZbaP+yEzmLESkS3zSzeqphva9bxsu1zdbWlpKFkTD6RTTPTM5LXcs/yiywJLnoFK2l9+GiCcwxuhGJzspBPgHuMRx1y3cMuDQ5aPILKVo6mgFsO6XpnmkpgHo+yMNt/u2ysrKIWFgWToVABaApbuAFQ1gJZOnpZUaXAaWQwDL5fH8oKWlhQ7bJUvT/f5dMwC3K6X20d0U61ZOmwTuBMDavPmPUqlG7XY4dyHsaTqJ9s4SABT2+LPFbBzt26sNnLErIrHYIwAwpKHUdcdghOYbMQDW9JqaOpNzov7vVeQ86M/EnUyp+dG2tn/rjEMjgKeruvoJYIzcEHSWODq/mMj5TfF4fLFOHZ+yPNsdgGVrt90vpTzCBll05kmfw2675bVzzq+OxGLEECjJOtY4efL4Lo/nzwBAEYMH1Ea78XS47eSc34+MXVEioC3XLsJfXb0QOL/dZotovS7UMMMwmiu93lPBMP5UQnH5rd+r3XbbbUI6mbxo8+bNP1D6upxW9FwG8DfD7T40FAolNDrEqqqq5hpC0OVanUZ+K8tgirjXVlfPVZxTwBmf7lxijHVwwzgzHA5TUAJtYGSIASwg5s66NWsuMaU8DxCJYeY0WZdpnPN/KoBjcqLPOS1rMPKTa24jIL6KiDNyARRDiP+5vd5jm5qayAWy1OCbK+jz3SERz9pmT8lYRhjGPeFw+LwS1MtmTJo0PuX1khB7DqBEmjxsnWD8e+FYjFyqc/voqvX7DzGV+ikDyI4Q2H2xoNTe0dbWd/LMYU/Q719sM6SsV7BnnbS0+YR43VVWdqRSqi6dSv0alarJ8+4gE+zWaDR+cW75pF22ZcuWY1HKH5MOcHb5wNiHFZx/7YNoNDYYE0anzFJ8UHTqGcszgi1wxaMVBzBUTyJjk3MRaqAIYgDXrqrsvH7ZETDYvv0j2EpFNY1Nnz59RzOd/rsuA6s7whnLGIwdForFfj3UoXHJhXB8ZeV9GdM8SnNxGHIAy4pupNRbQ8LA2k4ALHKXTHZ2XoKIPRFSNIe/8HvhBMCaFQz6OpUiAKthCAAsajwPBALno5SLi9WgsFhYjK3khnFkOBwei9BaeEr05HAOYAmxwgA4ptQMLGpQ0O+/UilFIa5LNvftjnaaSs1vGwOw9GeGs5zbHYBFN+PKNE+VUt4M3QeegSbS9FvjEuJkO6S89mG/QMWG3+9/giEelsd1pZg2U7s2MCEujkajdGFQqnb2aovf76dohM8rpfbQXQzs6F/g8Xj+Nn7ChEXvvvsuBXEpWfu++tWvGuvXrj1i48aNd0mldtD+Pnb3TCFj1+24447XarqYjTgAq7q+ul6k+XJArNVdoxljkhvGeeFwmFzEtIGRoQawaIB8Pl8tB3hUIX7FEfPvk5lLc00xIe6oqqq6bBBZgMW8t2zatGnTXIbxep6LZ8WFaDMYO7E5EiEXNu1x0mwIgWeXg1LX5NHik4ZhPBeKRBaW4KzF6qZMqVYez4tKqd2z5ygdkhjnYWDs5Fgstjy3j3Qpzzk/BZVcigjunnfbZlJtZFJ+OdLWRutJrm1YIBA4DJQiMfdeUhj0rCFE3F1Wtj9IObcrlXocEHMJKhYfiwMcFYnHn821JwGrG9as+WZGyicU4ricdsXKXK7vNIVCw6a7prs2a86TsWyjzQKXPgY7GLLiXgA8fJub527x9gQgO/DaRR3vjra+jYD29gBY5EJYrkOhHwkAVmVl5b3SNCnii06yACy3231b+RAxsHoALEDcRXd3+GliYLldru83h8N5/eh1BqyvPIFA4CsoJdHPS+pGhYgk4q7lQrjjjjv6uzo6lg8hgAX19fXVpmk+pkxzX513NK/9GMtwxm6dtMMO17/33nukCTCWClugGADr73TDHI1GmwoX7yyH3++fzxB/hYiTdQ9ImjWMAViahioy23YHYJFGb63Pt5fsFnLX1wTqw8D2QenfFNkvGo2+V+Q45HtM1AYC35NSXjeAC4LscukguNrF+cnNkcj/lbCduUXxgM93JSJeQcQqJ/XQfqi8ouJXtXV1Z//+978ntlMpDuR89uzZX+9qb78tbZpznWhV0h6JAzRLgBMTicSfNEG1kQdgVVdPFYz9EQD03WYZA0OIa6c3NFyjCdxZQz0cABYNk9/vXwhK/QgRKwewF2lBgIXxePxNJ/N2sPMGALxYU/MqAHwl5/tKF4BJwfmpoWiURN5LnoI+30kK8aE8UVvJfe6PnrKyAwrJW2g0isAkYpn9CpWauU0fAd43EY9obW19P3dNmDx58vjysrJLFeIFtLZvBYrIvY/zmKnU3meccUa4J6Jgdlvq6upmy3T65wgwJ6eNlj5xudd7vJJy565U6rLcGAF24I44AnwrFovlO+Pz+kBg74ySvwCErd8ZOvRxzjdwgJPC8Ti55w6L7prmGVVj6MayjDoLLEHg8pHK7wJT9wGDiSTl1munAEjhWa+ZVNF5x3lHQCk0EUadjQbY4NEKYN0jTfMYzcXBArBcbvcdFZWVVwyFiPt2D2C53ec0l0h0Mnt+T582rcp0ux+XpvkNitw7wLm/9XEnAFZjY2Mg1dX1h6EEsCxBd7//QIn4NCBWFANe2Bs30WLdAAAgAElEQVSB1cDYomg0SoeEUhxaSjUEI7WcYgCsd5CxYyKRyEel7pSlJ2EYd6CUR5fYjXBIACzF2C2TJk26Op1Oay7dpbYgQFNTE21kh5qpvT0CWCTgOx2Veh2Vml7MmtV7rwfAOX/NcLlObmlpaS3hzCDB+S8o06Qoa1MG2k5qFwN4B4Q4NDrIriv+adN2ZYZBAslBh+0m3RpVUVHx0oSJEy/s6OiIDsSd0DdvXvmk9vbPtnd0/MiUctc8h/DCw8XYY8IwznUQ5W3EAViNjY3jkx0dv0KALzkZD2EY90+dNu28FStWdBY2VHeOYQKwoKGhYVoqlfqpMs39GGP6+mtZHUMAyRl7tKy8/PympqbNun0egnzC7/f/FJRaAADu3u5owAxhXBmKRK4bjHbU+nz7KoAXKBhT9rfdAncZW1lWXr5/U1MTucLp3onnayavq6vb08xkSKg+V6eNyv1j2jSPXrt2bS+dKSqIov2had6hEI+3C97qCkiueqaUe7e1ta3N1z56Vkp5j21X2rf3+v5XVFQ8YUrpS3Z1fT1PkEsC8H7JhTgzFArRur9N/6dPn75rJp16FRVmux8S6EjSCBdGWltJ02uov/mWmYZtozMYk3SsTAcWQGBLHvL6TQFPMGBfzX0SGSJD9h/B3F9ectLGYRNpc9CjkZiV1dfXz5KZDLkQjgoGFt0EjCsvvycj5bGai8PwAVgAu1AEE63E2EajmCiEI9CF0D1IABZ9D+wbwJ8gQIVDF4U+h8ExgJVM/kFKOVQuhNZ3cNasWZWdW7bcrwC+S2KVRfS9O5o150+4PZ5zVq9evUlrXm7fmUYUgEXRitYFAt82lXoEEScUMQf6Gs1BB7CwGzD9LRfi1zmRloZshnFEw0Rcnkgk/j5klXZXtD0CWAQMTVRS/prcVUowV2n9eqDa5zun1K5HgUDAD0q9gYg7luDMoRhjL0fjcdKHG8xbf9r+8KDPd5dCPLuI+Uz7IiwvL3+zYty4O8vKyt54++23e8AEKrvfCIA9rk6z6+qqU4wdkTHNy5WUxQCAdNDsUlIeE29r+6WDA/qIA7As7VPGHkGlvqvrYkdGdhnGC8gYiZt/rDuOwwVg0fsRCAR2RqVeAwdaX9n9svXO1nDDOC0SiRCjfljAhTy2pu/9VYD4QwCozFmzyN3tyVA0SgBOofdDdxh78lnR4NOp1HIlZXX25awFYHEeN1yuY1taWojdp3mg2LYJJMMBUh7XlUzemcs2tTaHnD/W2dn5g48//jh3b0j7bj9DfBgR9+0F7FlfN/Z2Kp3eb926dVv66LhRGwicJaW8IZ/3hGEY7aSTb5pmWTarz/b2MRnnpJt5V196gsFgsEFJ+TL0DhhiuatyzpdOq66+qtTfDN0B1jyj6hY3lm9UWACBnbsMyiq2eG9hnJ0MAGXZ7CsCrziwLRLxyutP6voRkCvhWCrGAhSFZydlmu84BbCAscNiw6CBRQBWZXn5T0wpj9NcHEYPgMX5olA0+oLuQNIHKZ1MniZHmIi74XZ/LxQK/US3H07y+f1+0tZ4DZX6fAkOG1bVTgCsuXPn1m7ZtOn3ppS9hD777UPxIu7ZxdLt2SwzkyEBzln25krzFeguxt4QkKD7DZFYjKJEjrGw+p98jgEsQ4i/KcaOHQwGFs33urq6aklsEaX2KNX8J9FpU6k929ra/qPzLhYh4t6N4jCWQcSMFWOoB9jP/u/synP+TjezhS4DcvPk/j9njCPnl0Sj0bt0+lnCPNsjgEXmMwJ+/7Oo1HfI7aTY+dqNvLMUA7gyGo/fUsJxsYqaOHHixMqKCtKT+pqjBTVfQxhLcSHuiUQi5Goz6Ourz+f7LAN4BbrD1Fuvma59bE0sZRhGq8vt/n15efnzbrf7n+4ZM9b+ddmyvB4NS5Ys4cuXLx+/Zs0afyqV+mImlTpMIe6JSk1wUrfdRsuFiDH2hqnUwtbWVmJw6KYRB2DRfizV1XWFQrwYekdE67dPwjD+7EqnD/uorW2NbueHEcCiJopav/9WEh0HRFcR4057ESUY+3NGqeNbW1tbdPs92PlqamroXHErA5iW2y/O2D/GTZz4lZUrV5IEQ0nPnLbXxv8hIu1rsxOxJbuEYVwyY8aMe524mebaqqqqqsLr9f44k04fQ3p/vQA6K+4fWxyLxWh9TeY8S5cRc9A0H5OIn8t6jsBnkwG8KgGOicfjfTIISf6AI/5MIk7XXaDs/epGcLm+GwuFCLzLC3TaeoD0ndnT/s70NB+ZEM+UlZWd0dTUROBaScdMZy7q9lWnrLE8o8QCS5YAV7XeBQjsEWDg7e06iPSiSUB4NYVwxtJFnfFR0q2R2MzRCmD9WEpJooY6aQzAyv0gIiYEwL7h1lYSXew3kWi+10kUQgZguNxnh0KhewqVXezvtYHAUinl+aVyo7IBrOvLystvLKQzMHv27LqOLVvekFKSW4yeG2NpACxr4xj0+69SiBQ2eHIxrAbaONKNnkLcNx6Pryp2DLaT5xwDWFyItxnnx4bDYQq3PRiJBwOBm5VS3wdEcnMoReoUiHuEW1u1BP6LBbCyNpDZN9h93Wbn/l3n1lvnmfNjicQdpTCagzK2VwCLB/3+pUqpMxCAIvMWtZ+3Tx2buRAnRqPRXziwu1ZWAh66OjvvA8QTtR7oOxNF0tvCDOPSSCRy75AcmObMcfs3fXwRQ3a5QvQUYWOCkun4KoVhrBOGscowjHc5wPtMwNqysorNnHOZTqfLVSYzQTFWZ6bTszOmubMyzRkKsbIol8HuiyM6AK9liCdFW1spIJATwG/EAVgE2Pp8viOYUj8FxgjY0Uqc8w8Nt3vf5ubmkNYDw+hCaLePzQgEds4gPiqVIkCDktN3m+adEpzfGInFlowUFlYgENgDlXrAFnLP7hPN1VZ3Wdmpq1evJp2skoMhtT7fXRLw+5ayc+9ofcoQ4ukypc79IB5fpztHcvKxnadPn7Y5k1lumuasHP0yC0hGxkiX7Lk87yH3+Xykv/kEAGx1B7cBppRg7DHucv2wpaUlF/ja2gSKSut2uX4BiN9w0H7SE3yPcX5gJBLp85zfUFU1LWMYD0nEA2xgzqqC1hfhcv2Jc35UX+6HDtpSVFanL0VRlYw9NIIsgMAue9g9VwjxAiBr6H1IpE8tICpoRcbOvO6kzl/SxewIav1oawoh67NRyr+NFgbWlClTxpV7vT+Wptnji13I5kMOYFEEJjOdfgsAdi3EGtjaeHIhLJKBZSp1EyDSAUEnUUj7QQOwiPXAhDgzEoncp9OYYvIEfb79EOBBhUiRmPRApH4qIgALOL++XAPA2mmnneo7OzrekKZZPwwAFkyfPn1WJpW6DREPLGLTaH3XafPCGLtnWnX1D4eLWl3MuA/DMyMRwIK6uroDzXSa3Gjrijiw5jNju0Sc3zr4ANYwDGGvKmmvMAZgDd0osGAweLqS8joYWOABGrcYcH5QLBajiFKlThTp9QqU8sqBMMWsCGuMhQzEs1oSCQJkhiKRS5cPlSItLGJjaW4D8jaN7GwBWvRPipDHGLP+Rt8apRTv1kbmPXtuqqvY+qwykLFl8XicLiPTDo01EgEsFqypmacASGOSoqnp2Ia+xxsMt/sbLS0tJFKtdZ4ZZgYWLFiwQLzz1lunZSRFpcOi5BxIm5YL8bEBsG9LLEaBGZwAmA6ni172cX7/DuOlfAQYI9ZodqJxSXPDeHb+/PknL1u2rORujw2BwDdTSr1KB5bsuWMHsPjAcLuPcjJHctpPa/E8VOoPqFQvHdVuIArWIbBD4vH4X/PMQUbzzeD8ScwKyGEzODsoOND4ePzGlQXe4WAweL0yzYtzWFJ9DgwBnAbnT1VOmHBKfxp9pD2X7uq6SyISs4wiJPYkxRkLIef720F1tN4tvZmil0tnAdAraSzXqLDApY+N28GQ6m4AJKHa3uNvfVYxCRLuaxeea+4c074a6Jh2U0OlfNsxgKXUYbHuW7OSL+T9dYoALK/X+yNlmidodr4bwHK57qwYN+7yoRBx344BLOvD6zKMM1sGE8AKBn1MyqUmYo+Q/4C+ExaABXBteWXlzYUYWDNnzpyRSiZ/J02zbjgALLrlrfX7j5aIFAmoV1hizffBOjcAYwkOcGYkHn9Zd9PsoPxPS1bHAJbg/C0Q4rhBZGCBpdmDeCcqdajuZrC/AUHELcjYnolEgqIPFUwDYGAVLHuQM4wBWINs4Nzig8Hg/ijlvYhIgH9R6zQdlATnf5eIh8fj8cggdMGora09Vprmj4s9jFuLKqLiQvzJ5Xaf3tzc/MEQrqsUHe54QLydDpgDBLFyD+3Z/1/U+OUbL+tQDtBicH5YS3d0MaeHy5EIYMHkyZODXo/nHwCwg858t8GJdo/LdeRHodBvdEGc4QawaEzr6+vrM5nMjajUAl3Nr23mAmME4D0JjJ3el8bRILzv/RVpBHy+KxDwEkALhNyaLPF5IUKGYXy9paWl1G6PzOfzBTnA2wqxKld/CxjrMIS4JBSJUKTClFObzJkzx53s7DwvmUzeYAulZ7/LChh7DwEOjsfj4XxlW+uLUg/nRDylfeRmYRgXh8Nhale/Z8G6QOCbppQUjbBM8+K5Q3B+Rbhb7qLPRAzaTFfXDaZSpAXYS3yfcd6lEL8Uj8f/6dRmpchfsgWzFI0ZK2NwLXDJUxMmGcnMuZyzc2ykN6dCC5l+UzA8fslJSaLbOv3oDW4HRmHptbW1c20GllcnLK5NG83AcAJYHs/dSilduv+oALAYYxtFkQysEaSBZQFYgvPTw7EYRf4YrOQOBoPHKCnv38aXv4gaCcBiANd4KyuXFgKwGhsbG9KpFAFYtcMEYNHGsdo0zXuVlN+2N46Ov5O0GWOcv2Sa5pltDrQ3ijDvaH6kGADrr8w0jwu1tTUPYsdFoKbmJGTsLmJeDrQeRNwMnO+p61I6BmA5tvj26kIIwaqqnVGIBxTi/GKBFUvImLFfZKRc2NbWRvozpU7EYvoKSknuM8UIkfe0Bzljj0+aMuXs9957bzDa2We/fePGTWGVlbchAAW3KSo6XKmN2k95NKQUQXxxNB4nd95ixO5HJIBlR1z7GyqlG+SFAJw05/yccDRKIIDWmWYkAFgEZtT5/V+WiE8qxOpi3m/LjZTz9VyICyORyFMAkBnCeZi3qkB19TeR88cBMReEtNweyzyec8rKyx8eSOTOfBVTEAAOQLb8jg3w9HJh5Jy/QcL3oVDI8d6isbFxbjqVetY0zTnZ42Sf55KM86eTyeQP+xBi57WBwEVSyhtzD+QAsI4zdmokHn+p0LhNr6mpSzNGQVx21AKwGAtxIY6PRCL/11/ZxAZ8689/PlchXgUA2ewyi0ZKLojRaJTIFlrvVqF+OPnd8cbcSeFjeUeOBU67H1zTjLITGRO3AeA4S5gds27suv9/PUM87ZpFXSXXQRg5lhjalgSDwZ1BKWJgOQawvtDa+utlQ8zAmjVr1rjO9va7lFInaVrKArA8Lted3hHMwCoKwALwpAOB05Qt4q5rj0F0IezW2xXitGg0+qBme4rJRrdVszhjTyuldtH6GPa3myYAS4irvV7vLYUArIaGhsZMOv1bJwAWbVCB86ui0ehS3RvWAkah6KF7ZtLpl/KEQ9a1p+W6wAAWR+JxGqth3zjqNnwI8zkFsBTj/K2MaR7XNrgAFszw+3dMI/4KEWcO2B6Im5Dz+WMA1oAt2VcB2y2AZQfduF8pdVgxB9we9zXB2NJwPE7uJ4OS/H7/jgyRwtjPLbIC67AkGLssHIvlHvSKLNLZY76pUz/L3e7nUKkZxepSOavRee6eyGKA+DsmxKnRaDTmvBTriREJYFli3IjLHUTetA7VnPPrI7EYubBqpRECYFFbXUG//0FJUcEZM7Qa3zsTgUK0F/mXQjxOlwVcRD26j9DeMsAZe1YptQ3oToPlcrn+Xl5RcdL777+vFfSkp2KaG+Xl5RUffPDB+j7AFBH0+Y5HgNvVtlGGyUZJwzCubgmHb9btjJ3PNb2u7qZ0JnO27WK3FVexI0KuNYQ4LxSNPt3H/lQEA4G7lJRn5bAKSfOvRTF2fDwef7PQnpWe9fv9T6FSR2kAO5Jz/qZwuchtsrVA2bzW7z9OId6BiJOy9cPom4OcnxXrvlAfUm8ha5FyOFBj2UenBdgVj5R/iwHcAwwCvUXbrVlAIITJgF0nWOfSJSdtEyVhdPZ6BLR6tAFYU2bNGufdsoVCRzsCsFwez50VFRUj2oWQcb4o6iAKIeksBAKB02CkAVgAp0YTCbpNHLREopBej+dCKSVFexoQC8VaWxhbMmHSpFsK3artNGPGjp3p9OtSyqAuA2sQACyyKwm6ExPxtCJ1W6yNIwdYhZwfGovFPhyOG6pBmyClKXikAli0yfYahnGhzGQoxPRAdeA2ImMEYP1Px2xjDCwdK/XKs90CWMTS8Pv9N6FSP6D4Ho4t1+3uTMDQieFY7LEintd6pH7q1Grldj9sKnVgkYcOS1sQOD/c4Tdcq32amYygz3egAvgJKuXXYdRrlluSbDb9gaLP/Yu7XKeGQiHSMytW92hEAli0Fgd8Na8hwn5OjMY4f7Jx5syTdKPMjSAAC+r9/vkmqKeUxHriuzjpN+W1QZQME+ImwzBu7E8M3GnZWfl72lVwvs2bN8/V1tZ2PkpJ4vLZLmlWWzlj6XHjxj1RVVNz6fLly/sCo3o11Y6efp7H7Q59uHo1rWN521FbVTVDGgaBPASe5SaqO2R4PEc2Nzev0ARkxMwZMw7oSiZ/ohBrcy8RbPDwL8DYUbFYLNqHfY1gIPBzJSXpgvUWtuf8PwiwMNbtBlwosbpAYJGp1IN2SOE+l1rLXZOxe6ITJ14AK1cW0sfj9YHAfibiI6gURWPtKZcoMExwsTQcjV5eJNOzUJ/6/b3Ib8mA6hx7eAgtsOA5EDu1ez8PCI8DZ923ydnMq+4/mMDgV0Kxs5ec3Jmw2FljqSQWGG0AFjGw2rdsIdeZMQBrpAJYjJ0SjcfJX34wE6+rq9vNzGR+CYg1AznE2wDWVRMmTbq1EIBFIuoyk/nNCACw2PTp03cx02mKyPmFYjaOtqA7nQ8pEtDVRQjpDub4joSyiwCw2FsZUw46A4s2aYFAoBGU+jMiDsTtibZ7HwPj82OxGOn2FExjAFZBE+Vm2J4BLBIPPkNJ81bAoi4aCBgCtxB7ro5E3nFsec0HdqmqqvjYMEiQmiK8aj7VK5sVUl4gzg8lEqSBNFxJ+P3+74NSVyNi5UgCsezDcivj/KJoNPqzAYBXZNuRCmCB3+d7BABOAKT7Ib3EhVieTKUOWrt2LbmeFpyAIwnAsi/TrlZKXVos888ChjhvFkotCCUSAwE2cw1uTJ48uXxiWdlENM1UJ2PtbW1tXYXmHsk0pFOpvwJgHbOCdH6SaH0QhrF56rRpj5aZ5g3+WbPWL1u2jACp3HGzghzstNNOk7o6Os6TSp3j9niuWr169d19gU8WeJZIXKEQL+sD8Cdh8lXC7T7LMIy3mpqaCNzJN19of1BWVla2ZyaV+knGzMwiLCfPbOwAzu+IxWLkfpcXVOthFaJSu+eIy5Nr919Yt5vfRzozvb6+fqdMOv13W/qgL3yH1tIUAzgrEo8/qlEueSTsmkmnf4FK1W2z5jH2zISJE08otLfXqMdxljEAy7HJRtEDCOyKRyv3YSDvB2ZFHMwHXikG8DcujBOWnLBljCVQ4uEljQoQ4m2plHMXwr33/vVgROPor4sDALDuqqiouGwki7h/ahhYQwNgkZg10fXpZmi/Iunr3UtONwNr8YRJk24r9JFrrK2dk1HqNVPKgC5oZmtcXBUunQthzytC2gSLpFI/AUTtsN29NmO0y2Z8A0M8NJJIEA284Oa5xEvQSC7OEYCFgIox/lezW6vHsU5FEYYQAb//JVSq2IiU9icXNmSEmL82GqXva8E0BmAVNFFuhu0dwNoPpXzadu9wajxiYK03pZw7yFp9xGj9oUK8BZA8Y5wlS2iesfeFUt9qaW0dTn1W1tjY6O7q6LgKEC+Abrcux/1x1vuCuXu+KeRKf251dfVDJYh+O2IBrEAgcDUodQnpc2ranpg1LW6vd/5HH320pqA1AWCEAVisrq6uXkn5jJRy9wG4ClME6werqqq+V4L5QWZ0B2pqvm3pwnE+lyG2K4C/AWP3x2KxlQVkE1jA5/sRApyGiEauqDqBWIxz5vV6l5lS3m4YxsqmpqZ2e+zYkiVL8KGHHpoohJjFAK7IpNP7M86l2+O5dPXq1Xf1x56qCQY/z03zWQSY3octkQvxkdvjuYsx9qLb7V5jn2sIMMV58+aJ9evX+xniAmmaZ5lKUcAhWgRygTiKmrpCAZyVSCSI0ZV379fQ0BBMJ5PkFjs9D4D1ugI4Nh6Pr9OYtwQ0TZCmSfNkv37mCa35a7kQ345oXlo0NjYGkp2db5C+1jYfX8b+BJwfEo1GN2i0saRZhnvhLWlnxgr7xAJLlgA36zwHAIpr2f+3dyZQklRlvv++G5lZW+9015K1dNO0I9PN8hQ3YGRARh+OIyoeeeoITYMojBsqPnGjC3VARnABBQcXfOPC0upTccTlOMJ5Ps5TYYYRYWSm6a4tsyqrqpeq6loyI+J+73yRkdVV1bVEVmVWZ3f/g9PUFnHj3t+9cfPG/34L0X+b9WUwiHslzwmb93zqitGfMyyvSj6EwiCrv7UQsErGdrFZCBclYCWT6kL2GYkezFmfqV6H6JVdfX36IT7vsXbt2tU1NTU/IZG/iDAZBzGwxNqr0pmM7kKW/WhNJt9lRTQmgAZvXNShApYx5hOr1qz5XBQBK2vtw7YyBCxqa2vbbK293fr+a4NYx8W/rAT2Bo4xD9nh4StTIyNqEo8jT2BRAlbM9y8rcxD3yf5pa27ebkWC7GkRX5aO6Fsh2uc6ztkQsMo27E9kAYvaGhu3WWN+KCK6SRnhY2RaP4gTi/3fbC53USaTGSujwK5xVC7x1Q1FLZeKrGcgYDnO/WzMu7q6ug6WsZ6RBml9fX1DPBb7EIlcIUTrgtiUka4s7UnKRUtkoh5mvs31/a+XKBB/xQpYra2tV1rfv5NEaiKOd31hP1RdU/Pq55577rEoY6fCBCxSy6HBTOZvPGu/pkJ1sc9POOoCsdphvrYrlfrBQlZS841UDTERd5zrmfntQtQU1keNc1wh2kO+f30qk3l4HiFJLUfPsr6vcZXOna09QQB6Zp+Zu5n5KcdxOowxo4nqavY9b3U2m91iff/5VqRZ47SyMV6iquqGhQSsYGPW2p1W5IPzJOnRe4+wMX8yzE87jtNvrVULKsf3/Q0kcqbNx8dcOQenwDVbrH13uq9PY6DO5aanmerPtb7/oLVWsyNOtypk3sXGbC8ig6S6OV8nRH+v8bhmq5sGyjfGPOp63pujblps3bBhxUg8/ogVeeE0kU0zwxrzR0t0aTqdXs7MsEHTjsacW9oZHKVNJyDE7d+kKs/WvooMfYqFTptbvKJBJvqEWTF2b/ulcz5gILwEAhCwlgBvjkuXW8ASos8UkY3suBKwAjcqke+JtWcs9vMiFLA+3tDU9LmFdv62bNmyNTsxUTECli4cBwYGzvM9714RaVnMwjHI8kU0LMbsTKVSd8GVcPLBLk7AEtEg7o/51l7W19dX6jTbs842gYDp+98NgwZHdlmZWlgoYKkF1u4osyEssKJQmnbOiSxgqXVGo/W87/q+f94iXJ1FrTJ6enquXcoLbYQe482trS/Ket5DQlRf5DwaZJIjY9obGhpuX+gzJEJdSnLKymRy/SqRdxDzuyWfJW6536mCOItE9Cdivi2RSNxXwvhGFStgbd68+a9yExMPRrU4DOMqubFYbGdHV9dno8Q2qjQBSwdWQ0NDXdxx/tGKaJDuRWXCVFHIOM4fYiJv7sjHZFyMRbiKJK+wRGr1uWaG6CJhdrCfOUIf6urre3qehy3R3NR0hYh8lplVCFpIj1Axy6pULNZq+6d9HrMxbhQBS+ujSSVI5AGx9nQNAbjAhKCZHINMnqqpkYier3UNNpRnF4nEZ+InNGbfPLGvgvmira3tMuv7Gm915QyW1hB9tbu3V4O7LxhbLKwHn9za+vKcZnwV2TBb/VTAisdiN7DjfCnqfLF169bE8NDQw2LtX4YxYYPbiYh1jOkkke1Hw8NgoQFTkokehSwTASHWJ2rnvbXXWJJPM7NmDDjCbVDfsJlonIjf7/DYPyFoe/n6R2Ngie8fUxZYoyMjXxCRKyNSCbIQxquq7qirq/tIBbsQDoUWWN+P2C49raolmXxHxQlYIlem+/qi+K4X0dTZTw12/vr7b3Bd9yaNlRJhkXFEQSpgkTEfa2pq+vxCLx+hgPUz6/vNxbgQhovTUmUhnNYGZdDfm/mKJXvZIl0JdVrWRVCHEF0SMSDnkvvuGCigaAHLMP8ff3x8e+/Bg+pGVPZDxXLfdT8axh8pLFyLve+A8f2zu/v7I8WxgIBVLF46oQUsTTjgMN/tW/u2giVERIIqDI2x43y4u7tbhfXFvMxGvFXw0qhu4f9M1s6+qTpHScFLtzH7yRjNqvfjKAJE5Eot8cRggyOVeoNl/qoVWRF8QC4i0Hax1VAm2l+O4+wV5qsaenoee6K0mW4rVsA65ZRTTstmsz8W398UcT2irNRS5F+qampeu1AmZO2LShSwtF5tbW1/4Xvut0hI3daKfn8PA7oLGfPFVCr1ocU8S+vXr19ZFY9rTM/r5hBI9P2y3xhzU3cq9ZX55pWN69c3+YnEp6zIdhVGihS2pz02xQhYWu9kMnkxiXyFRBpKGcsuFEz7yNq39vT1PbrQvNra3PwJEfn4ES6xzDnDfHt3KqUB0iPPzSeffHKDl8v9lPLWUpqC8jAnnTaYD7ExF3R3dz9exLwTb2tp0azkF4f1LFyqguJ+Yr42lUp9r4jySnJq0Q9ASe6KQkOEgqcAABrbSURBVEpPQIhv+O7qNfGs+x4h+gAzrToyWHvggCQkPGyJbhs+NPbZO99L2dJXBiUWCByjAtbtInJ1xF4sCFh31tXV3XDcCVgNDe8Qx6koCyxLdHlvb++3IvbPkk9rSybPtUS/kOgm+9PvKeJKXsD6wkIC1rYtW7aOTEz8zK8gAUsbs6ml5XzPWt39fN5iF1lBLDDHuSOXy+0cGBgoxHNYcv8cwwUULWCxMY/KxMT29P793cvUbtPW1naB9TzdbV5sMPcBz9qXZTKZPVHqDAErCqXp7y6bm5uflxX5roi84Ag3jNmL0xeCrFh7aTqT+ecidriLrtwyXGBaW1s/IL7/6dBtJNK6PhSGupx4fEdnZ+cjxbwkLaZNLS0t61jkm1bkomI3AphoLzmOxll5qtz1XETbYk1NTWcb5v9JIudLPmuvvjZG6odF3E/dkw4a5l+aWOzWzs5OzVBW6hT2FStgbdy48WQS+Y7rui+N+KwrYmscp9OJxV7R0dGxoPVupQpYyWSy1mH+pBV5D83hIhZhPOnc1+kY8/auVOpXEc6fdkpjY+MGQ3QHM795zmuZ9xHzzalU6vMLPK9mw4YNmxPx+P8SkZcsRcQqUsAi2ro10XLgwLXErO6Eakm21Oc1UJWZ+SAT3VFdW3tLFLG0LZn8qi9yVcgyqENYzljMcXZ2dnd/rsjPp1hbMvkyK3IqMyf8KZZqDpH4ROMrV67c9eyzz44U0fextpaWu33P207MU+PBalXHDPOHu9PpLxdRXklOXWqHlaQSKGRpBNp/TTF6ruaFVv2Rmd46a7yaIN5V8N9BYrprPDb2mdsuJ83IgaOMBCYFLLE1M7NtzHbbMJOMS9Zecs5RCOKuvs5DsdhniemaiJo/BKzpHVluF0I1n35bOpPRLEPLcrS1ta21vv8Da+3LF2W6LuIaYz5a39T0xQUFrG3bto4MDRUtYCVisZ17urrKYoGlkDVugiH6kOf7Ny6KweGe6hTmq9PptC4co5qFL0s/H4WbLEbA+vX4xMQV+/fvnysldcmbsXHjxibf8+6x1l40R+aiue5Z2DVVAevsogSsZPJbIvLG+XbZdcFdiIGz1EZHKWvmOTN/NurawXx9KpXSBfdyHsVYYAV9kndz4eNFwFI3lFdYz/uetXZ1RGuCfOwkYx5nY17f3d2dLneHbdmypWpifPxWsVbjSmr8osgHG/P/PN+/uK+vbyDyRct8YktLS7PNW8H9jzAeWRAfpwQvxroUC6yImHmIRf5IjvMta+0PIwZ3XgyJihWw1MJErL0rl8u9oQi2aoE1wo7zpq6url8uBKRSBSytd1tbm8aOules3RbVSn1Ge3XNru74u0bHxq49ePDgUDGi8KZNm9a4rnszWatux3MdGSJqT/X2/mOUspPJ5CuZSDN7apB6TYxQ9FG0gBW6ZSaYPyDGvE9E1oU+gYvSRdQ1j4mGyZi7jDFfjjincmtz84+stRpjddIlMVw4jDjM7+tOp78ZhWHRwIq7wGlra7vZz+Xef4SAlbcUu607lbpxude0i+qo4tqNs8tGQONd3USOt6n2r42lm4TpzCDu3WxCcl7AOmDJft5zJ+689Z2kkxaOMhM41gQsDc6YiMdv1RSrEdNdH9cCVrKh4R3GcSopiLv1Rd7a19f3YJmH7mTx559/fmzv3r2Xurnc3Rq0sohFY74MFbCIPlLf3HzHQgLWmVu3bjswPPxwsRZYiURi556OjrIJWNqMpqamjUEwdmtPK5pBfgWSdyUk+gEZc00qlTrRA7oHAhaJfFlEVucdVFUFCTYyZzvUlehXE7ncjsHBwbK/cBcqoPEfRkZG/tb6/u0ksmaGqDSnaX/4B/3S71t7blQBS12Xm5NJXbRePE+YDTXxCOypSzEPRClr5jlH/EwUE5EPp3p7v1CKOhVRBjc3N6tl5INi7ZlzXjdjtctsclZEg88+tNwL7yLaFuVUzYy3fmJs7EkrogGVgydpngvzlgI6uIzZVVNTsz2KpUCUiix0Tmtz87UicrOIrJpSx/nfQ5g1i9yDOc+7qkQByheq5lL+nh+LIq8nkTcKkY7HqnBKUwGq0NYF+yeYB5k1cYjOi0NM9Fth/oHruj/s7+/XbHolefbnaCw3NjZudYxR68Q2OnJKLtS/UIcgJhBzIApfnurr27UUiPNdq2vU2traW9xs9l2Hcc56RSFOUfhEsBdYiqRSOj/Nyy4UsL7PRNVR18Ga2c3P5V6X2bfvt+Vqu5arQnBufPwK31rdKJgpBE9v8+wVyfcd8yAxvyuVSv3vBTIGziwl3pJMvkmINCFDfKYVXLjOeSLO/L7OdFqD5kc6mpqaXuQY80lr7SuDOFMRlfhC4caYXCyR+OjevXu1fyNbJGpsMcdx3s1E79VYdnmnu+g5GfJGB7rMpUEVckws9tWurq4DkRpN5LQ1Nz+i64OZ64rQkmtHdzr9o4hllfM0bmlpuV58/5M6n82oa46Z/6knnb6mGO6lqCwErFJQXO4yhPhNu8icOlq3lYTeTiJvIqaGeYK1q3w1KCw352T8a/9wFRVjOrjcrTuu7ndqS8vpoyK/t9ZqRogoz5suWnzy/Tecc955D+/atSvyRFwKcEGgSOZbyJj3WGunfchPfbcsfB98JfHjiapldyEUkTOmLi5m1k95FP4e7FwSvb2nt7eoGFjJxsarjTG3ljULYXX1T4iokIVwoUWpz0RvLrIdSx0avKmxcaNnjFph6YJ8Tq1hpv4QLDCZXRL5SGMyeedCAtaLX/zibZm+voc9zwsyy0SouMaWchPxeNkFrDCg+19az9ulgkvE53laE0ILy2HKv+hrdpoT2QrLbNy48XVG5JNCtCIAUXhRChL+hG8Z4e/0N8z8m5zrXr8ML3BT+403bNrUUJXL3R2a5avIFrwCBP90jFvdfCUmYw4/HPk2qJXUsDBfnE6nuyKMZz3FNDU1vZCtbdIfYguFmI1YaLlP88hxPM97qj9irK9S1ieZTK6visXeohmxyATv/MwiOn9odirtLyMarNda7S1jmR3F6hN9paOj48lS1uUolcXNyeTXSWQzGaMiedDm0EpOOeg4zfMgciT/1bDjfKOrq0tdP4IgxWU+1FLsHJt/CVqnViCB6KFfdc2Tf/rzvyOywd+Z9Xv99/3udFrj6RwT86W6AY80NCSNMec4jvNS8v2XEbPGbFotRPnsYLMpI4cVmTEm2i9E/2lEHnNFHqvyvCc7BwcHixQbFtul3NrQsE0cRzPJaeyyaVUuVHOyCeEbPDN7Yu3fpsq7wZZoa2l5v7X2UzPi8SzUVhVC7+tOJK6ijo6J+U5uamq6iEUeMMYk5lpjznL9Ps/aN2YymbIKWHpfjUNVU1X1Y1GXVdU5D7udTRtWMwW+GUNOn68n2ZgdPT09f1gI3tS/NzQ01Mcc50sk8poZIpo+w4eE6INVVVXfjhokPCzbOemkkxqrq6reSURvIZFT8okIg9DOU4+guXlT2iDZX/A3NqY7nkhcv3fvXl3jFzVPBFkV4/ELmPkasnIhkSRmlj+1AgXmQUB5onEmesQz9u44x3/V09OjY2uhdXyhuHhrMqkbD6cGAeIPH7pZlzZEb+lKp39TTN+U6VzNGrldfP8LGmx+xtrXZ2N+mkqn1WJ8OT5HJpsY5YW6TDxQ7GIItLeTGWtdX1fF468jluvEypls2Jk93lUwl+nKWtXgjyFg+2KIL+2aLc3NLTmRnb7uTs9e1OSvQ6uOYMEmzHemUin9UClqIl5abYnUx94QtROR7pRGmoS1vk4icU9dXd3HliMGVpAG1/cfIeY/j1hF/ZAbJZG/6+nt1d2mqEeVClhszK1FpWwW6XWIXtnV1/fMQjdat27dquqqqgeISE2noxziWbsjk8mo6LVshy7I3dbWv/d9f7uI6A5M5CPIHEN0Y0NT092RBKze3od9z2vUl6xgYTKvUQ6RMcarTiR27u7o0AxD5Xxe1NIhkR0bu99a+5pC/cIKzstjShsCKyxjTDcZ86qeiJnpIsM+xk48/fTTNdFIi7XWBAs41yVX21D4Gn4ffCES13UP9ff3qxAUnLaMh7rUbDDG1Gg9w8Vm8MjG43FD2WzwO0kkgnbERUxWv+Zj4Uh3JqMppudKpb2MzThub8VnnXVWbHx8nHO53KxTqed5we8LX/X7np4e7ZNl3SQqVw/oZ3culwvkzlWrVk2K/57nGWttMD7r6urY9/3Jn8fHx0eW06pJNwGGhobWaB2MCm3MMjY2FnzVf7FYLJi/9W8HDx7UeTJYgwwODmqs1mPx+TGbNm1KVPn+uqzjnC4iz/Ndt80SreN8LJlAbQ1fln1izhqiAROL7WXmp3O53O50Oj0czneR1mOlGl9nnHFGve+6O/SF1WoVrSUbbixYFUT158O/zzfDWp7wvPszmcwfS1WPWcoxbU1NL/BEXqMxfuYRC2ZaI+lCpNNxnG/39PSMz1e/ZDLZSr7/Kh2Axtc9w/BQ2ds/croIVFdjJkTkZ5lMRq3jyn6cesop54gxf13YaA77Rts4ra/CftJNlvziSAX9cHNamFUofqi3t7eYgN5aCp/S0LAh6zgfEKI3iohmFlXxYre60Hme970lzCvVyWTyLEN0qYj8DTE3MJEKiVOTqKhy5ZEmCCLqM8b80mG+3yP67UJ9O0/HmPr6+g2JWEytyy4hojOZqC68b2EbKW9Fz+yKiIbgeYqMeTCbzf5ocHCwtwjhKqiGrn8O7Nun73n1U64t7I49Z5nflkqlKmGDRS1LX2OY7xFrT5oiYIUu+fS7nOu+erlju0Z8Zyr7s4gbRCDQfi9Vu37NGb5nrovF5RIyktCP/fylk+6z+R/zLoM+Mz1D1lxnrjz0aDuX9eUuQgtO2FOiWJLMhBNMlEeBmNPQ0LDRWpucZedjrupINXNfVyazd5nqbJLJ5Jmu69ZNrWMsFtOXk6CO+r0ehZ/j8bg/PDy8e2RkRHcwox6JZEPDO9mYW0LRJsp8qR+sfVbkv/dFELD0SW1ubl6Xy+XitbW1PDo6d1i6QlsHBgZUkF725AtB7AmRTdbaGE1MkDeF91xAg37wPMn6fue+ffvU7WveMX3hhRf+WU9Pz9f8XG6DDfXTqRcEgmXBbypcTJMxfjyRuGv37t3q4lj2Z6a1tfXlYm07iazSnC4a+8ce3j2b5iJSyAo2VYQLstQYQ761306n07cvR52jDvijcF6UZ2q2ufEoVDX8ZD38gZv/pI12lH1cRqsGzgKBSYONSkARxeWpEupZijpMbWveKu7IQ+eJcm7ClKIdKAMECgQ0yclqa22r7/tDzDyQTqfHSoTHNDc3r3WILiCR86xImxWpCtbBImNszB5h/h0z/0tPT8/BUj43ukkuIs93iF7tWXs65y3ugzAQxphhY8yTJhb7RSwW+48luF/zaaedVn/gwIF3k7WOiOSE2WURdclT1bQ/UVPz0J49eyoh3A+31tdvto5zBYVJKgL7N2bLvp/VJBs9mcx9GtC9RH0fqZioi69IhVXySTd8Z/VajfpU3T801L4zsFc6NhaU7WRuqF+92klkTycylxkjr9J3XiFx5ox1le+ICbL0U/Lp1j+tGfvXXZceH7uMlTzGjqO6LXZeWM5najF1LLZ+TmtTk2bge33gfhLxYJGRuOd9qWNgoC/iJYXToizmo5xT5G2LOn0x3MPP/oXvo/GG6uvrk6Ojo4HoOzEx3dJ/5s96TjYbaHkHiog7sHBF5j8jnkwmV7uuG6ikU61x9OfqUMwqmISryEXV1dqYoFS1yJlglpqamvGenh4VI4sdl0utP64HARAAARAAARAAgUonELg+b9q0KVawnq2urra7d+/W3epyCr661jVbt251hoeHJ9f/q1at8p955hk1wwsM75YIL7jHHGWUs22LqXbF1XWxLyOLafzRvIY/fm/NGwzxRcbST9ycPDFgxvvveeeyuyFEZhBkFuxesc769qVE9Fpr5a+YqZWI587QoEmAVJsmShPLt8WTez599YSmjF3qQxa53jgRBI4zAo5+gBXTpppnnpEn8ubUeO6KAYdzQQAEQAAEQAAEQAAEQAAEQGAeAieKgEU3fqNuhxB9MR8gUp4R5gessbvie8cz7TtD66SjaZWVj8MXHB+9p7bRidHriOlyIvpzIVqpWRnmzbiRdxnUUv6DhT9oukZ/1d6+vAHV8KSBAAiAAAiAAAiAAAiAAAiAAAiAAAiAQDkInCgCFt/4jborAgGLZUVg+iekfptpYX6cRR5x2Xm0Kreyi3rTGigy8EFvby+jL7oQt98UilYbKeFKzQYjdDYxX8jMmlmiWYhqA6Mq9UGZltVzRrwr0kDtPEgk37fGv/03HdnORyBeleN5QZkgAAIgAAIgAAIgAAIgAAIgAAIgAAJHgcCJKmDlUResnpjGWaRXiJ8Sot8boj8a5k7X2IG4rRodOnAw29NCuV2XBsJX/siTi+IiNMm4/dfkHHqcqmJ1qxOxFdk17MXaiOzzhOklbO25xEbT1a4Ky8+HKtZEpzPEq0C+yqcW1fqME/PjQvbOCWfVz2+7PDN3FOijMMBwSxAAARAAARAAARAAARAAARAAARAAARBYKoETU8Ca4q5XEIvy+QVCpYhpXEQGSbiXiP+LjDxryHZYiaVivgy67A/ZePxQ1cTI+NO95K1tOlLIqltLsdXDq2pcyq00ZNaJsSdZoZaYY/5MLD2fiU4VpgYSWUNETv7ukwkFNc5vmFdwahdJ4P/IGumKyBeif2eR7/jW3Hfz1aOZpQ4GXA8CIAACIAACIAACIAACIAACIAACIAAClUgAAtZsvRLEwpp009NgzJ4IucQ0ysJDQnbMEE/oz0LkBnZQrLZSecMs0awCQgkiqRZWN0BaKUKrmKiOiOJBIHYmR5NQajZEmcvKKlTX9Eu+QoHBV84QP2VF7ifr/HRo/NCeO99LQRouHCAAAiAAAiAAAiAAAiAAAiAAAiAAAiBwPBI4YQSsT9xbu4NEY2AFItJh98FZe3VKjKkpgd3zadFVc5p+BLZSQZwq/X3BtzD0LgwuKVwYWE6FR3DN5C+mlpqPxR6WFd5fRCaY6ElheoA8/xdD4zkIV8fjE4k2gQAIgAAIgAAIgAAIgAAIgAAIgAAIHEHgRBGwqP3rtS/yDbWTyHlEXDupNKm11LTjiADphyUnkWkiVV4HC/8/JdB63vkvn++QNAK7KchaeTXq8P8LwtfhbhC9h9pvqZsgq/Qlh5jocSK+Pytj9/3DVTQS6FtHM2MiHiQQAAEQAAEQAAEQAAEQAAEQAAEQAAEQWEYCJ4yApbpR+9dWrXXZ3WqYX8FMLxGhbUSynojrjjCryutSk6HaQz3piK45bH1VQBlKWlNsrQqWWQWxK+83qIrXZDD2ggymf3FZeFBY/pPJ/J58+rlr+A+37Dg0CNFqGZ8M3AoEQAAEQAAEQAAEQAAEQAAEQAAEQKBiCJxIAtYkdDVy+tg9tY2xmD1V2DmL2Z5BxM8XoTYiWkFE1cTiTLoDqvIkwmz4sHdfWNo0d79QhgqEqlDACsSrwFqKKYh1ZVS5mrxYJSyNXzVBRGkhec4QPW2Jf0O+ffrZX0x07dpFfsWMFlQEBEAABEAABEAABEAABEAABEAABEAABI4CgRNSwJrJuf1BStBETaPvy0aS2JnM3hkkZptmCRSiRhKpm4xRpWJUEHxdvfsCE628KVWgWYXuh3nrqtDwanpmwbzxFQ8bkl4h7iSSp5jMv9qY+2TMr+1t33Hw4FEYB7glCIAACIAACIAACIAACIAACIAACIAACFQsAQhY07uG2x+kOB2g2GiiblWV465lv2o9kdcqPrUah08WoVZhWs9CK0SkhjmIcKVxtEzoIqg5CS2zWk4F1lXDRNTHxqatOJ0k9jkWSomxg75J7J/YNzL2by8g95ELSLMd4gABEAABEAABEAABEAABEAABEAABEAABEJhBAALWXEPicCLAydBV7TeFplYbKZEdXVlXtdZd7U1InClWbUnixiHxmV3jedmY4Szl4of2tY6MnPQ7cvU27TuDqFp5D0ONB49A7HggQQAEQAAEQAAEQAAEQAAEQAAEQAAEQGBBAhCwFkQ0ywlHZgGcLkUFbobIFLgYtLgGBEAABEAABEAABEAABEAABEAABEAABGYSgICFMQECIAACIAACIAACIAACIAACIAACIAACIFDRBCBgVXT3oHIgAAIgAAIgAAIgAAIgAAIgAAIgAAIgAAIQsDAGQAAEQAAEQAAEQAAEQAAEQAAEQAAEQAAEKpoABKyK7h5UDgRAAARAAARAAARAAARAAARAAARAAARAAAIWxgAIgAAIgAAIgAAIgAAIgAAIgAAIgAAIgEBFE4CAVdHdg8qBAAiAAAiAAAiAAAiAAAiAAAiAAAiAAAhAwMIYAAEQAAEQAAEQAAEQAAEQAAEQAAEQAAEQqGgCELAquntQORAAARAAARAAARAAARAAARAAARAAARAAAQhYGAMgAAIgAAIgAAIgAAIgAAIgAAIgAAIgAAIVTQACVkV3DyoHAiAAAiAAAiAAAiAAAiAAAiAAAiAAAiAAAQtjAARAAARAAARAAARAAARAAARAAARAAARAoKIJQMCq6O5B5UAABEAABEAABEAABEAABEAABEAABEAABCBgYQyAAAiAAAiAAAiAAAiAAAiAAAiAAAiAAAhUNAEIWBXdPagcCIAACIAACIAACIAACIAACIAACIAACIAABCyMARAAARAAARAAARAAARAAARAAARAAARAAgYomAAGrorsHlQMBEAABEAABEAABEAABEAABEAABEAABEICAhTEAAiAAAiAAAiAAAiAAAiAAAiAAAiAAAiBQ0QQgYFV096ByIAACIAACIAACIAACIAACIAACIAACIAACELAwBkAABEAABEAABEAABEAABEAABEAABEAABCqaAASsiu4eVA4EQAAEQAAEQAAEQAAEQAAEQAAEQAAEQAACFsYACIAACIAACIAACIAACIAACIAACIAACIBARROAgFXR3YPKgQAIgAAIgAAIgAAIgAAIgAAIgAAIgAAIQMDCGAABEAABEAABEAABEAABEAABEAABEAABEKhoAhCwKrp7UDkQAAEQAAEQAAEQAAEQAAEQAAEQAAEQAAEIWBgDIAACIAACIAACIAACIAACIAACIAACIAACFU3g/wPMRchSeLTklAAAAABJRU5ErkJggg==;" parent="1" vertex="1">
            <mxGeometry x="50" y="2260" width="466.67" height="70" as="geometry" />
          </mxCell>
        </UserObject>
        <mxCell id="A3XayTcSQzNsOiLvJzIz-1" value="Description and Questions" parent="0" />
        <object label="Labels" id="WOLFXr68zG1B-jRjzp42-16">
          <mxCell style="" parent="0" />
        </object>
        <mxCell id="WOLFXr68zG1B-jRjzp42-37" value="System in focus:" style="text;strokeColor=none;fillColor=none;html=1;align=left;verticalAlign=top;whiteSpace=wrap;rounded=0;sketch=1;hachureGap=4;jiggle=2;fontFamily=Architects Daughter;fontSource=https%3A%2F%2Ffonts.googleapis.com%2Fcss%3Ffamily%3DArchitects%2BDaughter;fontSize=40;fontStyle=5;fontColor=#10739E;spacingTop=0;spacingLeft=5;spacingRight=5;spacing=5;" parent="WOLFXr68zG1B-jRjzp42-16" vertex="1">
          <mxGeometry x="60" y="53" width="400" height="65" as="geometry" />
        </mxCell>
        <mxCell id="WOLFXr68zG1B-jRjzp42-41" value="Design by:" style="text;strokeColor=none;fillColor=none;html=1;align=left;verticalAlign=top;whiteSpace=wrap;rounded=0;sketch=1;hachureGap=4;jiggle=2;fontFamily=Architects Daughter;fontSource=https%3A%2F%2Ffonts.googleapis.com%2Fcss%3Ffamily%3DArchitects%2BDaughter;fontSize=40;fontStyle=5;fontColor=#10739E;spacingTop=0;spacingLeft=5;spacingRight=5;spacing=5;" parent="WOLFXr68zG1B-jRjzp42-16" vertex="1">
          <mxGeometry x="1603" y="53" width="359" height="65" as="geometry" />
        </mxCell>
        <mxCell id="WOLFXr68zG1B-jRjzp42-42" value="Date/Version:" style="text;strokeColor=none;fillColor=none;html=1;align=left;verticalAlign=top;whiteSpace=wrap;rounded=0;sketch=1;hachureGap=4;jiggle=2;fontFamily=Architects Daughter;fontSource=https%3A%2F%2Ffonts.googleapis.com%2Fcss%3Ffamily%3DArchitects%2BDaughter;fontSize=40;fontStyle=5;fontColor=#10739E;spacingTop=0;spacingLeft=5;spacingRight=5;spacing=5;" parent="WOLFXr68zG1B-jRjzp42-16" vertex="1">
          <mxGeometry x="2453" y="53" width="359" height="65" as="geometry" />
        </mxCell>
        <mxCell id="WOLFXr68zG1B-jRjzp42-43" value="Objectives / Purpose" style="text;strokeColor=none;fillColor=none;html=1;align=left;verticalAlign=top;whiteSpace=wrap;rounded=0;sketch=1;hachureGap=4;jiggle=2;fontFamily=Architects Daughter;fontSource=https%3A%2F%2Ffonts.googleapis.com%2Fcss%3Ffamily%3DArchitects%2BDaughter;fontSize=40;fontStyle=5;fontColor=#10739E;spacingTop=0;spacingLeft=5;spacingRight=5;spacing=5;" parent="WOLFXr68zG1B-jRjzp42-16" vertex="1">
          <mxGeometry x="53" y="280" width="500" height="65" as="geometry" />
        </mxCell>
        <mxCell id="WOLFXr68zG1B-jRjzp42-44" value="Operations &amp;amp; Value Creation:" style="text;html=1;align=left;verticalAlign=top;whiteSpace=wrap;rounded=0;sketch=1;hachureGap=4;jiggle=2;fontFamily=Architects Daughter;fontSource=https%3A%2F%2Ffonts.googleapis.com%2Fcss%3Ffamily%3DArchitects%2BDaughter;fontSize=40;fontStyle=5;spacingTop=0;spacingLeft=5;spacingRight=5;spacing=5;fontColor=#F2931E;" parent="WOLFXr68zG1B-jRjzp42-16" vertex="1">
          <mxGeometry x="1680" y="1202" width="580" height="78" as="geometry" />
        </mxCell>
        <mxCell id="WOLFXr68zG1B-jRjzp42-49" value="Key Results &amp;amp; KPIs" style="text;strokeColor=none;fillColor=none;html=1;align=left;verticalAlign=top;whiteSpace=wrap;rounded=0;sketch=1;hachureGap=4;jiggle=2;fontFamily=Architects Daughter;fontSource=https%3A%2F%2Ffonts.googleapis.com%2Fcss%3Ffamily%3DArchitects%2BDaughter;fontSize=40;fontStyle=5;fontColor=#10739E;spacingTop=0;spacingLeft=5;spacingRight=5;spacing=5;" parent="WOLFXr68zG1B-jRjzp42-16" vertex="1">
          <mxGeometry x="2202" y="253" width="500" height="65" as="geometry" />
        </mxCell>
        <mxCell id="WOLFXr68zG1B-jRjzp42-51" value="Environment" style="text;strokeColor=none;fillColor=none;html=1;align=left;verticalAlign=top;whiteSpace=wrap;rounded=0;sketch=1;hachureGap=4;jiggle=2;fontFamily=Architects Daughter;fontSource=https%3A%2F%2Ffonts.googleapis.com%2Fcss%3Ffamily%3DArchitects%2BDaughter;fontSize=40;fontStyle=5;fontColor=#F2931E;spacingTop=0;spacingLeft=5;spacingRight=5;spacing=5;" parent="WOLFXr68zG1B-jRjzp42-16" vertex="1">
          <mxGeometry x="853" y="1202" width="317" height="78" as="geometry" />
        </mxCell>
        <mxCell id="WOLFXr68zG1B-jRjzp42-52" value="Stability, conflict resolution &amp;amp; Facilitation" style="text;strokeColor=none;fillColor=none;html=1;align=left;verticalAlign=top;whiteSpace=wrap;rounded=0;sketch=1;hachureGap=4;jiggle=2;fontFamily=Architects Daughter;fontSource=https%3A%2F%2Ffonts.googleapis.com%2Fcss%3Ffamily%3DArchitects%2BDaughter;fontSize=40;fontStyle=5;fontColor=#AE4132;spacingTop=0;spacingLeft=5;spacingRight=5;spacing=5;" parent="WOLFXr68zG1B-jRjzp42-16" vertex="1">
          <mxGeometry x="2520" y="1002" width="528" height="108" as="geometry" />
        </mxCell>
        <mxCell id="WOLFXr68zG1B-jRjzp42-53" value="Content Definition, Resources &amp;amp; Result Ownership" style="text;strokeColor=none;fillColor=none;html=1;align=left;verticalAlign=top;whiteSpace=wrap;rounded=0;sketch=1;hachureGap=4;jiggle=2;fontFamily=Architects Daughter;fontSource=https%3A%2F%2Ffonts.googleapis.com%2Fcss%3Ffamily%3DArchitects%2BDaughter;fontSize=40;fontStyle=5;fontColor=#23445D;spacingTop=0;spacingLeft=5;spacingRight=5;spacing=5;" parent="WOLFXr68zG1B-jRjzp42-16" vertex="1">
          <mxGeometry x="925" y="903" width="958" height="108" as="geometry" />
        </mxCell>
        <mxCell id="WOLFXr68zG1B-jRjzp42-54" value="Outsite view &amp;amp; future strategy" style="text;strokeColor=none;fillColor=none;html=1;align=left;verticalAlign=top;whiteSpace=wrap;rounded=0;sketch=1;hachureGap=4;jiggle=2;fontFamily=Architects Daughter;fontSource=https%3A%2F%2Ffonts.googleapis.com%2Fcss%3Ffamily%3DArchitects%2BDaughter;fontSize=40;fontStyle=5;fontColor=#12AAB5;spacingTop=0;spacingLeft=5;spacingRight=5;spacing=5;" parent="WOLFXr68zG1B-jRjzp42-16" vertex="1">
          <mxGeometry x="1160" y="603" width="667" height="108" as="geometry" />
        </mxCell>
        <mxCell id="WOLFXr68zG1B-jRjzp42-55" value="Overall policies and norms" style="text;strokeColor=none;fillColor=none;html=1;align=left;verticalAlign=top;whiteSpace=wrap;rounded=0;sketch=1;hachureGap=4;jiggle=2;fontFamily=Architects Daughter;fontSource=https%3A%2F%2Ffonts.googleapis.com%2Fcss%3Ffamily%3DArchitects%2BDaughter;fontSize=40;fontStyle=5;fontColor=#66CC00;spacingTop=0;spacingLeft=5;spacingRight=5;spacing=5;" parent="WOLFXr68zG1B-jRjzp42-16" vertex="1">
          <mxGeometry x="1160" y="253" width="675" height="108" as="geometry" />
        </mxCell>
        <mxCell id="WOLFXr68zG1B-jRjzp42-56" value="3.1. Quality &amp;amp; Auditing" style="text;strokeColor=none;fillColor=none;html=1;align=left;verticalAlign=top;whiteSpace=wrap;rounded=0;sketch=1;hachureGap=4;jiggle=2;fontFamily=Architects Daughter;fontSource=https%3A%2F%2Ffonts.googleapis.com%2Fcss%3Ffamily%3DArchitects%2BDaughter;fontSize=40;fontStyle=5;fontColor=#004C99;spacingTop=0;spacingLeft=5;spacingRight=5;spacing=5;" parent="WOLFXr68zG1B-jRjzp42-16" vertex="1">
          <mxGeometry x="53" y="1003" width="605" height="108" as="geometry" />
        </mxCell>
        <mxCell id="WOLFXr68zG1B-jRjzp42-61" value="Organization / Leaders" style="text;strokeColor=none;fillColor=none;html=1;align=left;verticalAlign=top;whiteSpace=wrap;rounded=0;sketch=1;hachureGap=4;jiggle=2;fontFamily=Architects Daughter;fontSource=https%3A%2F%2Ffonts.googleapis.com%2Fcss%3Ffamily%3DArchitects%2BDaughter;fontSize=40;fontStyle=5;fontColor=#AE4132;spacingTop=0;spacingLeft=5;spacingRight=5;spacing=5;" parent="WOLFXr68zG1B-jRjzp42-16" vertex="1">
          <mxGeometry x="2520" y="1690" width="523" height="108" as="geometry" />
        </mxCell>
        <mxCell id="xv8WNQiCP0smpZNsjWFE-1" value="1" style="shape=ellipse;strokeWidth=6;strokeColor=#10739E;fontSize=15;html=1;whiteSpace=wrap;fontStyle=1;fontColor=#10739E;shadow=1;container=0;" parent="WOLFXr68zG1B-jRjzp42-16" vertex="1">
          <mxGeometry x="60" y="224" width="50" height="50" as="geometry" />
        </mxCell>
        <mxCell id="yUWcZohmMmz_l3pUNEoG-1" value="2" style="shape=ellipse;strokeWidth=6;strokeColor=#F2931E;fontSize=15;html=1;whiteSpace=wrap;fontStyle=1;fontColor=#F2931E;shadow=1;container=0;" parent="WOLFXr68zG1B-jRjzp42-16" vertex="1">
          <mxGeometry x="1625" y="1220" width="50" height="50" as="geometry" />
        </mxCell>
        <mxCell id="Y4kX_OTSPbdVZBUfIvmD-1" value="3" style="shape=ellipse;strokeWidth=6;strokeColor=#AE4132;fontSize=15;html=1;whiteSpace=wrap;fontStyle=1;fontColor=#AE4132;shadow=1;container=0;" parent="WOLFXr68zG1B-jRjzp42-16" vertex="1">
          <mxGeometry x="2460" y="1011" width="50" height="49" as="geometry" />
        </mxCell>
        <mxCell id="epBPW47MeySCBtszYXyr-1" value="4" style="shape=ellipse;strokeWidth=6;strokeColor=#23445D;fontSize=15;html=1;whiteSpace=wrap;fontStyle=1;fontColor=#23445D;shadow=1;container=0;" parent="WOLFXr68zG1B-jRjzp42-16" vertex="1">
          <mxGeometry x="860" y="910" width="50" height="50" as="geometry" />
        </mxCell>
        <mxCell id="F4TMWCmWkVGRh0A9ih9V-1" value="5" style="shape=ellipse;strokeWidth=6;strokeColor=#12AAB5;fontSize=15;html=1;whiteSpace=wrap;fontStyle=1;fontColor=#12AAB5;shadow=1;container=0;" parent="WOLFXr68zG1B-jRjzp42-16" vertex="1">
          <mxGeometry x="1090" y="610" width="50" height="49.37" as="geometry" />
        </mxCell>
        <mxCell id="WPbfb0xaXf5NNyUCOlR0-1" value="6" style="shape=ellipse;strokeWidth=6;strokeColor=#66CC00;fontSize=15;html=1;whiteSpace=wrap;fontStyle=1;fontColor=#66CC00;shadow=1;container=0;" parent="WOLFXr68zG1B-jRjzp42-16" vertex="1">
          <mxGeometry x="1110" y="260" width="50" height="50" as="geometry" />
        </mxCell>
        <mxCell id="WOLFXr68zG1B-jRjzp42-63" value="Content" parent="0" />
      </root>
    </mxGraphModel>
  </diagram>
  <diagram id="59po18sIlPhJbN6yBbGv" name="DiagnoseFlow">
    <mxGraphModel dx="8168" dy="4348" grid="1" gridSize="10" guides="1" tooltips="1" connect="1" arrows="1" fold="1" page="1" pageScale="1" pageWidth="3300" pageHeight="2339" math="0" shadow="0">
      <root>
        <mxCell id="0" />
        <mxCell id="1" parent="0" />
        <mxCell id="cjYUdTIQ8c538otHGQbf-1" value="" style="orthogonalLoop=1;jettySize=auto;html=1;rounded=0;sketch=0;hachureGap=4;jiggle=2;fontFamily=Architects Daughter;fontSource=https%3A%2F%2Ffonts.googleapis.com%2Fcss%3Ffamily%3DArchitects%2BDaughter;fontSize=16;endArrow=none;sourcePerimeterSpacing=8;targetPerimeterSpacing=8;strokeWidth=6;shadow=0;elbow=vertical;endFill=0;" edge="1" parent="1">
          <mxGeometry width="120" relative="1" as="geometry">
            <mxPoint x="50" y="50" as="sourcePoint" />
            <mxPoint x="3250" y="50" as="targetPoint" />
          </mxGeometry>
        </mxCell>
        <mxCell id="cjYUdTIQ8c538otHGQbf-2" value="" style="orthogonalLoop=1;jettySize=auto;html=1;rounded=0;sketch=0;hachureGap=4;jiggle=2;fontFamily=Architects Daughter;fontSource=https%3A%2F%2Ffonts.googleapis.com%2Fcss%3Ffamily%3DArchitects%2BDaughter;fontSize=16;endArrow=none;sourcePerimeterSpacing=8;targetPerimeterSpacing=8;strokeWidth=6;shadow=0;elbow=vertical;endFill=0;" edge="1" parent="1">
          <mxGeometry width="120" relative="1" as="geometry">
            <mxPoint x="50" y="2250" as="sourcePoint" />
            <mxPoint x="3250" y="2250" as="targetPoint" />
          </mxGeometry>
        </mxCell>
        <mxCell id="cjYUdTIQ8c538otHGQbf-3" value="" style="orthogonalLoop=1;jettySize=auto;html=1;rounded=0;sketch=0;hachureGap=4;jiggle=2;fontFamily=Architects Daughter;fontSource=https%3A%2F%2Ffonts.googleapis.com%2Fcss%3Ffamily%3DArchitects%2BDaughter;fontSize=16;endArrow=none;sourcePerimeterSpacing=8;targetPerimeterSpacing=8;strokeWidth=6;shadow=0;elbow=vertical;endFill=0;" edge="1" parent="1">
          <mxGeometry width="120" relative="1" as="geometry">
            <mxPoint x="50" y="50" as="sourcePoint" />
            <mxPoint x="50" y="2250" as="targetPoint" />
          </mxGeometry>
        </mxCell>
        <mxCell id="cjYUdTIQ8c538otHGQbf-4" value="" style="orthogonalLoop=1;jettySize=auto;html=1;rounded=0;sketch=0;hachureGap=4;jiggle=2;fontFamily=Architects Daughter;fontSource=https%3A%2F%2Ffonts.googleapis.com%2Fcss%3Ffamily%3DArchitects%2BDaughter;fontSize=16;endArrow=none;sourcePerimeterSpacing=8;targetPerimeterSpacing=8;strokeWidth=6;shadow=0;elbow=vertical;endFill=0;" edge="1" parent="1">
          <mxGeometry width="120" relative="1" as="geometry">
            <mxPoint x="3250" y="50" as="sourcePoint" />
            <mxPoint x="3250" y="2250" as="targetPoint" />
          </mxGeometry>
        </mxCell>
        <mxCell id="cjYUdTIQ8c538otHGQbf-5" value="Organizational Design &amp;amp; Validation Canvas, A. Kempkens´&lt;br style=&quot;font-size: 12px;&quot;&gt;based on VSM by Stadford Beer &amp;amp; inspired by grado.group&lt;br style=&quot;font-size: 12px;&quot;&gt;Creative Commons 4.0, Attribution-NonCommercial-ShareAlike" style="text;strokeColor=none;fillColor=none;html=1;align=right;verticalAlign=top;whiteSpace=wrap;rounded=0;sketch=1;hachureGap=4;jiggle=2;fontFamily=Architects Daughter;fontSource=https%3A%2F%2Ffonts.googleapis.com%2Fcss%3Ffamily%3DArchitects%2BDaughter;fontSize=12;textOpacity=80;spacingTop=2;" vertex="1" parent="1">
          <mxGeometry x="2801" y="2254" width="450" height="54" as="geometry" />
        </mxCell>
        <mxCell id="cjYUdTIQ8c538otHGQbf-6" value="&lt;a style=&quot;font-size: 10px;&quot; href=&quot;https://grado.group/article/the-viable-system-model/&quot;&gt;The Viable System Model - Grado Group Site&lt;/a&gt;" style="text;strokeColor=none;fillColor=none;html=1;align=right;verticalAlign=top;whiteSpace=wrap;rounded=0;sketch=1;hachureGap=4;jiggle=2;fontFamily=Architects Daughter;fontSource=https%3A%2F%2Ffonts.googleapis.com%2Fcss%3Ffamily%3DArchitects%2BDaughter;fontSize=10;textOpacity=80;spacingTop=2;" vertex="1" parent="1">
          <mxGeometry x="2996" y="2306" width="255" height="31" as="geometry" />
        </mxCell>
        <mxCell id="cjYUdTIQ8c538otHGQbf-7" value="&lt;a href=&quot;https://www.thinknetwork.com/alex-kempkens/&quot;&gt;Alexander Kempkens&lt;/a&gt;&amp;nbsp;@ THINKNETWORK.com" style="text;html=1;align=center;verticalAlign=middle;resizable=0;points=[];autosize=1;strokeColor=none;fillColor=none;sketch=1;hachureGap=4;jiggle=2;fontFamily=Architects Daughter;fontSource=https%3A%2F%2Ffonts.googleapis.com%2Fcss%3Ffamily%3DArchitects%2BDaughter;fontSize=10;" vertex="1" parent="1">
          <mxGeometry x="2801" y="2308" width="230" height="30" as="geometry" />
        </mxCell>
        <mxCell id="VrW_ZwrHoVtoXgy6VjFM-1" value="" style="orthogonalLoop=1;jettySize=auto;html=1;rounded=0;sketch=0;hachureGap=4;jiggle=2;fontFamily=Architects Daughter;fontSource=https%3A%2F%2Ffonts.googleapis.com%2Fcss%3Ffamily%3DArchitects%2BDaughter;fontSize=16;endArrow=none;sourcePerimeterSpacing=8;targetPerimeterSpacing=8;strokeWidth=6;shadow=0;elbow=vertical;endFill=0;" edge="1" parent="1">
          <mxGeometry width="120" relative="1" as="geometry">
            <mxPoint x="50" y="250" as="sourcePoint" />
            <mxPoint x="3250" y="250" as="targetPoint" />
          </mxGeometry>
        </mxCell>
        <mxCell id="cjYUdTIQ8c538otHGQbf-8" value="Structure" parent="0" />
        <mxCell id="Te7q1YfpF43OVBGdsZGd-1" value="Flow of your diagnose steps" style="text;strokeColor=none;fillColor=none;html=1;align=left;verticalAlign=middle;whiteSpace=wrap;rounded=0;sketch=1;hachureGap=4;jiggle=2;fontFamily=Architects Daughter;fontSource=https%3A%2F%2Ffonts.googleapis.com%2Fcss%3Ffamily%3DArchitects%2BDaughter;fontSize=96;fontStyle=1;fontColor=#000000;spacingTop=0;spacingLeft=5;spacingRight=5;spacing=5;" vertex="1" parent="cjYUdTIQ8c538otHGQbf-8">
          <mxGeometry x="53" y="53" width="1387" height="187" as="geometry" />
        </mxCell>
        <mxCell id="ibEskMX55xlxBAFiAByo-1" value="" style="group;aspect=fixed;" vertex="1" connectable="0" parent="cjYUdTIQ8c538otHGQbf-8">
          <mxGeometry x="140" y="409.99999999999994" width="3000" height="1653.56" as="geometry" />
        </mxCell>
        <mxCell id="cjYUdTIQ8c538otHGQbf-9" value="" style="verticalLabelPosition=bottom;verticalAlign=top;html=1;shape=mxgraph.basic.partConcEllipse;startAngle=0.75;endAngle=0.5;arcWidth=0.25;fillColor=#10739E;strokeColor=none;shadow=0;container=0;" vertex="1" parent="ibEskMX55xlxBAFiAByo-1">
          <mxGeometry x="699.5494165389676" width="441.82068412987445" height="456.2823204777201" as="geometry" />
        </mxCell>
        <mxCell id="cjYUdTIQ8c538otHGQbf-10" value="" style="verticalLabelPosition=bottom;verticalAlign=top;html=1;shape=mxgraph.basic.partConcEllipse;startAngle=0.25;endAngle=0;arcWidth=0.25;fillColor=#F2931E;strokeColor=none;shadow=0;container=0;" vertex="1" parent="ibEskMX55xlxBAFiAByo-1">
          <mxGeometry x="699.5494165389676" y="399.24703041800507" width="441.82068412987445" height="456.2823204777201" as="geometry" />
        </mxCell>
        <mxCell id="cjYUdTIQ8c538otHGQbf-11" value="" style="verticalLabelPosition=bottom;verticalAlign=top;html=1;shape=mxgraph.basic.partConcEllipse;startAngle=0.75;endAngle=0.5;arcWidth=0.25;fillColor=#AE4132;strokeColor=none;shadow=0;container=0;" vertex="1" parent="ibEskMX55xlxBAFiAByo-1">
          <mxGeometry x="1086.1425151526075" y="399.24703041800507" width="441.82068412987445" height="456.2823204777201" as="geometry" />
        </mxCell>
        <mxCell id="cjYUdTIQ8c538otHGQbf-12" value="" style="verticalLabelPosition=bottom;verticalAlign=top;html=1;shape=mxgraph.basic.partConcEllipse;startAngle=0.25;endAngle=0;arcWidth=0.25;fillColor=#23445D;strokeColor=none;shadow=0;container=0;" vertex="1" parent="ibEskMX55xlxBAFiAByo-1">
          <mxGeometry x="1086.1425151526075" y="798.4940608360098" width="441.82068412987445" height="456.2823204777201" as="geometry" />
        </mxCell>
        <mxCell id="cjYUdTIQ8c538otHGQbf-13" value="" style="verticalLabelPosition=bottom;verticalAlign=top;html=1;shape=mxgraph.basic.partConcEllipse;startAngle=0.75;endAngle=0.5;arcWidth=0.25;fillColor=#12AAB5;strokeColor=none;shadow=0;container=0;" vertex="1" parent="ibEskMX55xlxBAFiAByo-1">
          <mxGeometry x="1472.7356137662482" y="798.4940608360098" width="441.82068412987445" height="456.2823204777201" as="geometry" />
        </mxCell>
        <mxCell id="cjYUdTIQ8c538otHGQbf-14" value="1" style="shape=ellipse;strokeWidth=6;strokeColor=#10739E;fontSize=42;html=1;whiteSpace=wrap;fontStyle=1;fontColor=#10739E;shadow=1;container=0;" vertex="1" parent="ibEskMX55xlxBAFiAByo-1">
          <mxGeometry x="828.4137827435147" y="133.08234347266855" width="184.09195172078105" height="190.11763353238334" as="geometry" />
        </mxCell>
        <mxCell id="cjYUdTIQ8c538otHGQbf-15" value="2" style="shape=ellipse;strokeWidth=6;strokeColor=#F2931E;fontSize=42;html=1;whiteSpace=wrap;fontStyle=1;fontColor=#F2931E;shadow=1;container=0;" vertex="1" parent="ibEskMX55xlxBAFiAByo-1">
          <mxGeometry x="828.4137827435147" y="532.3293738906739" width="184.09195172078105" height="190.11763353238334" as="geometry" />
        </mxCell>
        <mxCell id="cjYUdTIQ8c538otHGQbf-16" value="3" style="shape=ellipse;strokeWidth=6;strokeColor=#AE4132;fontSize=42;html=1;whiteSpace=wrap;fontStyle=1;fontColor=#AE4132;shadow=1;container=0;" vertex="1" parent="ibEskMX55xlxBAFiAByo-1">
          <mxGeometry x="1215.006881357155" y="532.3293738906739" width="184.09195172078105" height="190.11763353238334" as="geometry" />
        </mxCell>
        <mxCell id="cjYUdTIQ8c538otHGQbf-17" value="4" style="shape=ellipse;strokeWidth=6;strokeColor=#23445D;fontSize=42;html=1;whiteSpace=wrap;fontStyle=1;fontColor=#23445D;shadow=1;container=0;" vertex="1" parent="ibEskMX55xlxBAFiAByo-1">
          <mxGeometry x="1215.006881357155" y="931.5764043086783" width="184.09195172078105" height="190.11763353238334" as="geometry" />
        </mxCell>
        <mxCell id="cjYUdTIQ8c538otHGQbf-18" value="5" style="shape=ellipse;strokeWidth=6;strokeColor=#12AAB5;fontSize=42;html=1;whiteSpace=wrap;fontStyle=1;fontColor=#12AAB5;shadow=1;container=0;" vertex="1" parent="ibEskMX55xlxBAFiAByo-1">
          <mxGeometry x="1601.5999799707952" y="931.5764043086783" width="184.09195172078105" height="190.11763353238334" as="geometry" />
        </mxCell>
        <mxCell id="cjYUdTIQ8c538otHGQbf-19" value="&lt;font style=&quot;font-size: 30px;&quot;&gt;&lt;font style=&quot;font-size: 30px;&quot; color=&quot;#10739E&quot;&gt;&lt;b style=&quot;font-size: 30px;&quot;&gt;Start with your System in Focus&lt;/b&gt;&lt;/font&gt;&lt;br style=&quot;font-size: 30px;&quot;&gt;&lt;br style=&quot;font-size: 30px;&quot;&gt;&lt;font style=&quot;font-size: 30px;&quot;&gt;Describe the System you are diagnosing, who is doing it and when in the title of the diagram.&lt;/font&gt;&lt;br style=&quot;font-size: 30px;&quot;&gt;Include the description of the systems objectives and key results.&lt;br style=&quot;font-size: 30px;&quot;&gt;&lt;/font&gt;" style="rounded=1;strokeColor=none;fillColor=#EEEEEE;align=center;arcSize=12;verticalAlign=top;whiteSpace=wrap;html=1;fontSize=30;spacing=3;shadow=0;container=0;" vertex="1" parent="ibEskMX55xlxBAFiAByo-1">
          <mxGeometry x="1178.1884910129986" y="76.04705341295342" width="662.7310261948118" height="266.1646869453367" as="geometry" />
        </mxCell>
        <mxCell id="cjYUdTIQ8c538otHGQbf-20" value="&lt;font style=&quot;font-size: 30px;&quot;&gt;&lt;font style=&quot;font-size: 30px;&quot; color=&quot;#F2931E&quot;&gt;&lt;b style=&quot;font-size: 30px;&quot;&gt;System I: Operations &amp;amp; Environment&lt;/b&gt;&lt;/font&gt;&lt;br style=&quot;font-size: 30px;&quot;&gt;&lt;br style=&quot;font-size: 30px;&quot;&gt;&lt;font style=&quot;font-size: 30px;&quot;&gt;Identify your operational units and with which environmental areas they are working together.&lt;/font&gt;&lt;br style=&quot;font-size: 30px;&quot;&gt;&lt;/font&gt;" style="rounded=1;strokeColor=none;fillColor=#EEEEEE;align=center;arcSize=12;verticalAlign=top;whiteSpace=wrap;html=1;fontSize=30;spacing=3;shadow=0;container=0;" vertex="1" parent="ibEskMX55xlxBAFiAByo-1">
          <mxGeometry y="494.3058471841968" width="662.7310261948118" height="266.1646869453367" as="geometry" />
        </mxCell>
        <mxCell id="cjYUdTIQ8c538otHGQbf-21" value="&lt;font style=&quot;font-size: 30px;&quot;&gt;&lt;font style=&quot;font-size: 30px;&quot; color=&quot;#AE4132&quot;&gt;&lt;b style=&quot;font-size: 30px;&quot;&gt;System II: Stability, Facilitation &amp;amp; Coaching&lt;/b&gt;&lt;/font&gt;&lt;br style=&quot;font-size: 30px;&quot;&gt;&lt;br style=&quot;font-size: 30px;&quot;&gt;&lt;font style=&quot;font-size: 30px;&quot;&gt;Who are the persons that support in facilitation, conflict resolution and team coaching on a regular level.&lt;br style=&quot;font-size: 30px;&quot;&gt;Organizational leaders are separated to indicate that they might only temporarily join.&lt;br style=&quot;font-size: 30px;&quot;&gt;&lt;/font&gt;&lt;/font&gt;" style="rounded=1;strokeColor=none;fillColor=#EEEEEE;align=center;arcSize=12;verticalAlign=top;whiteSpace=wrap;html=1;fontSize=30;spacing=3;shadow=0;container=0;" vertex="1" parent="ibEskMX55xlxBAFiAByo-1">
          <mxGeometry x="1564.781589626639" y="494.3058471841968" width="662.7310261948118" height="266.1646869453367" as="geometry" />
        </mxCell>
        <mxCell id="cjYUdTIQ8c538otHGQbf-22" value="&lt;font style=&quot;font-size: 30px;&quot;&gt;&lt;font style=&quot;font-size: 30px;&quot; color=&quot;#23445D&quot;&gt;&lt;b style=&quot;font-size: 30px;&quot;&gt;System III: Content and Scope Ownership&lt;/b&gt;&lt;/font&gt;&lt;br style=&quot;font-size: 30px;&quot;&gt;&lt;br style=&quot;font-size: 30px;&quot;&gt;&lt;font style=&quot;font-size: 30px;&quot;&gt;Who are the persons owning the content of the operational value streams, resources and make the final decisions about budget?&lt;br style=&quot;font-size: 30px;&quot;&gt;Ensure to focus on context relevant ownership.&lt;br style=&quot;font-size: 30px;&quot;&gt;&lt;/font&gt;&lt;/font&gt;" style="rounded=1;strokeColor=none;fillColor=#EEEEEE;align=center;arcSize=12;verticalAlign=top;whiteSpace=wrap;html=1;fontSize=30;spacing=3;shadow=0;container=0;" vertex="1" parent="ibEskMX55xlxBAFiAByo-1">
          <mxGeometry x="386.5930986136399" y="893.5528776022019" width="660.1169204803766" height="266.1646869453367" as="geometry" />
        </mxCell>
        <mxCell id="cjYUdTIQ8c538otHGQbf-23" value="&lt;font style=&quot;font-size: 30px;&quot;&gt;&lt;font style=&quot;font-size: 30px;&quot; color=&quot;#12AAB5&quot;&gt;&lt;b style=&quot;font-size: 30px;&quot;&gt;System IV: Outside view &amp;amp; strategy&amp;nbsp;&lt;/b&gt;&lt;/font&gt;&lt;br style=&quot;font-size: 30px;&quot;&gt;&lt;br style=&quot;font-size: 30px;&quot;&gt;&lt;font style=&quot;font-size: 30px;&quot;&gt;Who are the persons involved to have a constant outside/market overview? Who is identifying the overall business or product strategy within the relevant context?&lt;/font&gt;&lt;/font&gt;" style="rounded=1;strokeColor=none;fillColor=#EEEEEE;align=center;arcSize=12;verticalAlign=top;whiteSpace=wrap;html=1;fontSize=30;spacing=3;shadow=0;container=0;" vertex="1" parent="ibEskMX55xlxBAFiAByo-1">
          <mxGeometry x="1951.374688240279" y="893.5528776022019" width="662.7310261948118" height="266.1646869453367" as="geometry" />
        </mxCell>
        <mxCell id="cjYUdTIQ8c538otHGQbf-24" value="" style="verticalLabelPosition=bottom;verticalAlign=top;html=1;shape=mxgraph.basic.partConcEllipse;startAngle=0.25;endAngle=0;arcWidth=0.25;fillColor=#66CC00;strokeColor=none;shadow=0;container=0;fontColor=#ffffff;" vertex="1" parent="ibEskMX55xlxBAFiAByo-1">
          <mxGeometry x="1472.7426092604132" y="1197.27767952228" width="441.82068412987445" height="456.2823204777201" as="geometry" />
        </mxCell>
        <mxCell id="cjYUdTIQ8c538otHGQbf-25" value="6" style="shape=ellipse;strokeWidth=6;strokeColor=#66CC00;fontSize=42;html=1;whiteSpace=wrap;fontStyle=1;fontColor=#66CC00;shadow=1;container=0;" vertex="1" parent="ibEskMX55xlxBAFiAByo-1">
          <mxGeometry x="1601.6069754649607" y="1330.3600229949488" width="184.09195172078105" height="190.11763353238334" as="geometry" />
        </mxCell>
        <mxCell id="cjYUdTIQ8c538otHGQbf-26" value="&lt;font style=&quot;font-size: 30px;&quot;&gt;&lt;font color=&quot;#66cc00&quot; style=&quot;font-size: 30px;&quot;&gt;&lt;b style=&quot;font-size: 30px;&quot;&gt;System V: Overall policies &amp;amp; norms&lt;/b&gt;&lt;/font&gt;&lt;br style=&quot;font-size: 30px;&quot;&gt;&lt;br style=&quot;font-size: 30px;&quot;&gt;&lt;font style=&quot;font-size: 30px;&quot;&gt;Typically your senior leadership teams responsible to oversee and ensure the overall policies &amp;amp; norms are followed.&lt;/font&gt;&lt;/font&gt;" style="rounded=1;strokeColor=none;fillColor=#EEEEEE;align=center;arcSize=12;verticalAlign=top;whiteSpace=wrap;html=1;fontSize=30;spacing=3;shadow=0;container=0;" vertex="1" parent="ibEskMX55xlxBAFiAByo-1">
          <mxGeometry x="773.1931927214457" y="1292.336496288471" width="662.7310261948118" height="266.1646869453367" as="geometry" />
        </mxCell>
        <mxCell id="cjYUdTIQ8c538otHGQbf-27" value="" style="verticalLabelPosition=bottom;verticalAlign=top;html=1;shape=mxgraph.basic.partConcEllipse;startAngle=0.75;endAngle=0.5;arcWidth=0.25;fillColor=#006600;strokeColor=none;shadow=0;container=0;" vertex="1" parent="ibEskMX55xlxBAFiAByo-1">
          <mxGeometry x="1858.6298993311555" y="1197.27767952228" width="441.82068412987445" height="456.2823204777201" as="geometry" />
        </mxCell>
        <mxCell id="cjYUdTIQ8c538otHGQbf-28" value="7" style="shape=ellipse;strokeWidth=6;strokeColor=#006600;fontSize=42;html=1;whiteSpace=wrap;fontStyle=1;fontColor=#006600;shadow=1;container=0;" vertex="1" parent="ibEskMX55xlxBAFiAByo-1">
          <mxGeometry x="1987.494265535703" y="1330.3600229949488" width="184.09195172078105" height="190.11763353238334" as="geometry" />
        </mxCell>
        <mxCell id="cjYUdTIQ8c538otHGQbf-29" value="&lt;font style=&quot;font-size: 30px;&quot;&gt;&lt;font color=&quot;#009900&quot; style=&quot;font-size: 30px;&quot;&gt;&lt;b style=&quot;font-size: 30px;&quot;&gt;Search of dysfunctional system - patterns&lt;/b&gt;&lt;/font&gt;&lt;br style=&quot;font-size: 30px;&quot;&gt;&lt;br style=&quot;font-size: 30px;&quot;&gt;&lt;font style=&quot;font-size: 30px;&quot;&gt;Based on the described questions try to identify dysfunctional system structures or observations.&lt;br style=&quot;font-size: 30px;&quot;&gt;These topics are your first starting point for the next phase of the diagnose.&lt;br style=&quot;font-size: 30px;&quot;&gt;&lt;/font&gt;&lt;/font&gt;" style="rounded=1;strokeColor=none;fillColor=#EEEEEE;align=center;arcSize=12;verticalAlign=top;whiteSpace=wrap;html=1;fontSize=30;spacing=3;shadow=0;container=0;" vertex="1" parent="ibEskMX55xlxBAFiAByo-1">
          <mxGeometry x="2337.268973805188" y="1292.336496288471" width="662.7310261948118" height="266.1646869453367" as="geometry" />
        </mxCell>
      </root>
    </mxGraphModel>
  </diagram>
</mxfile>
